<?xml version="1.0" encoding="utf-8" standalone="no"?>
<!DOCTYPE svg PUBLIC "-//W3C//DTD SVG 1.1//EN"
  "http://www.w3.org/Graphics/SVG/1.1/DTD/svg11.dtd">
<svg xmlns:xlink="http://www.w3.org/1999/xlink" width="1001.055625pt" height="425.47875pt" viewBox="0 0 1001.055625 425.47875" xmlns="http://www.w3.org/2000/svg" version="1.1">
 <metadata>
  <rdf:RDF xmlns:dc="http://purl.org/dc/elements/1.1/" xmlns:cc="http://creativecommons.org/ns#" xmlns:rdf="http://www.w3.org/1999/02/22-rdf-syntax-ns#">
   <cc:Work>
    <dc:type rdf:resource="http://purl.org/dc/dcmitype/StillImage"/>
    <dc:date>2025-03-30T21:30:39.096448</dc:date>
    <dc:format>image/svg+xml</dc:format>
    <dc:creator>
     <cc:Agent>
      <dc:title>Matplotlib v3.9.2, https://matplotlib.org/</dc:title>
     </cc:Agent>
    </dc:creator>
   </cc:Work>
  </rdf:RDF>
 </metadata>
 <defs>
  <style type="text/css">*{stroke-linejoin: round; stroke-linecap: butt}</style>
 </defs>
 <g id="figure_1">
  <g id="patch_1">
   <path d="M 0 425.47875 
L 1001.055625 425.47875 
L 1001.055625 0 
L 0 0 
z
" style="fill: #ffffff"/>
  </g>
  <g id="axes_1">
   <g id="patch_2">
    <path d="M 49.055625 387.159062 
L 478.575873 387.159062 
L 478.575873 23.391562 
L 49.055625 23.391562 
z
" style="fill: #ffffff"/>
   </g>
   <g id="matplotlib.axis_1">
    <g id="xtick_1">
     <g id="line2d_1">
      <path d="M 98.048422 387.159062 
L 98.048422 23.391562 
" clip-path="url(#p4ad8596df0)" style="fill: none; stroke: #cccccc; stroke-width: 0.8; stroke-linecap: round"/>
     </g>
     <g id="text_1">
      <!-- −1 -->
      <g style="fill: #262626" transform="translate(92.347641 401.316875) scale(0.1 -0.1)">
       <defs>
        <path id="ArialMT-2212" d="M 3381 1997 
L 356 1997 
L 356 2522 
L 3381 2522 
L 3381 1997 
z
" transform="scale(0.015625)"/>
        <path id="ArialMT-31" d="M 2384 0 
L 1822 0 
L 1822 3584 
Q 1619 3391 1289 3197 
Q 959 3003 697 2906 
L 697 3450 
Q 1169 3672 1522 3987 
Q 1875 4303 2022 4600 
L 2384 4600 
L 2384 0 
z
" transform="scale(0.015625)"/>
       </defs>
       <use xlink:href="#ArialMT-2212"/>
       <use xlink:href="#ArialMT-31" x="58.398438"/>
      </g>
     </g>
    </g>
    <g id="xtick_2">
     <g id="line2d_2">
      <path d="M 191.73498 387.159062 
L 191.73498 23.391562 
" clip-path="url(#p4ad8596df0)" style="fill: none; stroke: #cccccc; stroke-width: 0.8; stroke-linecap: round"/>
     </g>
     <g id="text_2">
      <!-- 0 -->
      <g style="fill: #262626" transform="translate(188.954511 401.316875) scale(0.1 -0.1)">
       <defs>
        <path id="ArialMT-30" d="M 266 2259 
Q 266 3072 433 3567 
Q 600 4063 929 4331 
Q 1259 4600 1759 4600 
Q 2128 4600 2406 4451 
Q 2684 4303 2865 4023 
Q 3047 3744 3150 3342 
Q 3253 2941 3253 2259 
Q 3253 1453 3087 958 
Q 2922 463 2592 192 
Q 2263 -78 1759 -78 
Q 1097 -78 719 397 
Q 266 969 266 2259 
z
M 844 2259 
Q 844 1131 1108 757 
Q 1372 384 1759 384 
Q 2147 384 2411 759 
Q 2675 1134 2675 2259 
Q 2675 3391 2411 3762 
Q 2147 4134 1753 4134 
Q 1366 4134 1134 3806 
Q 844 3388 844 2259 
z
" transform="scale(0.015625)"/>
       </defs>
       <use xlink:href="#ArialMT-30"/>
      </g>
     </g>
    </g>
    <g id="xtick_3">
     <g id="line2d_3">
      <path d="M 285.421537 387.159062 
L 285.421537 23.391562 
" clip-path="url(#p4ad8596df0)" style="fill: none; stroke: #cccccc; stroke-width: 0.8; stroke-linecap: round"/>
     </g>
     <g id="text_3">
      <!-- 1 -->
      <g style="fill: #262626" transform="translate(282.641069 401.316875) scale(0.1 -0.1)">
       <use xlink:href="#ArialMT-31"/>
      </g>
     </g>
    </g>
    <g id="xtick_4">
     <g id="line2d_4">
      <path d="M 379.108095 387.159062 
L 379.108095 23.391562 
" clip-path="url(#p4ad8596df0)" style="fill: none; stroke: #cccccc; stroke-width: 0.8; stroke-linecap: round"/>
     </g>
     <g id="text_4">
      <!-- 2 -->
      <g style="fill: #262626" transform="translate(376.327626 401.316875) scale(0.1 -0.1)">
       <defs>
        <path id="ArialMT-32" d="M 3222 541 
L 3222 0 
L 194 0 
Q 188 203 259 391 
Q 375 700 629 1000 
Q 884 1300 1366 1694 
Q 2113 2306 2375 2664 
Q 2638 3022 2638 3341 
Q 2638 3675 2398 3904 
Q 2159 4134 1775 4134 
Q 1369 4134 1125 3890 
Q 881 3647 878 3216 
L 300 3275 
Q 359 3922 746 4261 
Q 1134 4600 1788 4600 
Q 2447 4600 2831 4234 
Q 3216 3869 3216 3328 
Q 3216 3053 3103 2787 
Q 2991 2522 2730 2228 
Q 2469 1934 1863 1422 
Q 1356 997 1212 845 
Q 1069 694 975 541 
L 3222 541 
z
" transform="scale(0.015625)"/>
       </defs>
       <use xlink:href="#ArialMT-32"/>
      </g>
     </g>
    </g>
    <g id="xtick_5">
     <g id="line2d_5">
      <path d="M 472.794653 387.159062 
L 472.794653 23.391562 
" clip-path="url(#p4ad8596df0)" style="fill: none; stroke: #cccccc; stroke-width: 0.8; stroke-linecap: round"/>
     </g>
     <g id="text_5">
      <!-- 3 -->
      <g style="fill: #262626" transform="translate(470.014184 401.316875) scale(0.1 -0.1)">
       <defs>
        <path id="ArialMT-33" d="M 269 1209 
L 831 1284 
Q 928 806 1161 595 
Q 1394 384 1728 384 
Q 2125 384 2398 659 
Q 2672 934 2672 1341 
Q 2672 1728 2419 1979 
Q 2166 2231 1775 2231 
Q 1616 2231 1378 2169 
L 1441 2663 
Q 1497 2656 1531 2656 
Q 1891 2656 2178 2843 
Q 2466 3031 2466 3422 
Q 2466 3731 2256 3934 
Q 2047 4138 1716 4138 
Q 1388 4138 1169 3931 
Q 950 3725 888 3313 
L 325 3413 
Q 428 3978 793 4289 
Q 1159 4600 1703 4600 
Q 2078 4600 2393 4439 
Q 2709 4278 2876 4000 
Q 3044 3722 3044 3409 
Q 3044 3113 2884 2869 
Q 2725 2625 2413 2481 
Q 2819 2388 3044 2092 
Q 3269 1797 3269 1353 
Q 3269 753 2831 336 
Q 2394 -81 1725 -81 
Q 1122 -81 723 278 
Q 325 638 269 1209 
z
" transform="scale(0.015625)"/>
       </defs>
       <use xlink:href="#ArialMT-33"/>
      </g>
     </g>
    </g>
    <g id="text_6">
     <!-- Variable estandarizada -->
     <g style="fill: #262626" transform="translate(202.888561 415.89375) scale(0.12 -0.12)">
      <defs>
       <path id="ArialMT-56" d="M 1803 0 
L 28 4581 
L 684 4581 
L 1875 1253 
Q 2019 853 2116 503 
Q 2222 878 2363 1253 
L 3600 4581 
L 4219 4581 
L 2425 0 
L 1803 0 
z
" transform="scale(0.015625)"/>
       <path id="ArialMT-61" d="M 2588 409 
Q 2275 144 1986 34 
Q 1697 -75 1366 -75 
Q 819 -75 525 192 
Q 231 459 231 875 
Q 231 1119 342 1320 
Q 453 1522 633 1644 
Q 813 1766 1038 1828 
Q 1203 1872 1538 1913 
Q 2219 1994 2541 2106 
Q 2544 2222 2544 2253 
Q 2544 2597 2384 2738 
Q 2169 2928 1744 2928 
Q 1347 2928 1158 2789 
Q 969 2650 878 2297 
L 328 2372 
Q 403 2725 575 2942 
Q 747 3159 1072 3276 
Q 1397 3394 1825 3394 
Q 2250 3394 2515 3294 
Q 2781 3194 2906 3042 
Q 3031 2891 3081 2659 
Q 3109 2516 3109 2141 
L 3109 1391 
Q 3109 606 3145 398 
Q 3181 191 3288 0 
L 2700 0 
Q 2613 175 2588 409 
z
M 2541 1666 
Q 2234 1541 1622 1453 
Q 1275 1403 1131 1340 
Q 988 1278 909 1158 
Q 831 1038 831 891 
Q 831 666 1001 516 
Q 1172 366 1500 366 
Q 1825 366 2078 508 
Q 2331 650 2450 897 
Q 2541 1088 2541 1459 
L 2541 1666 
z
" transform="scale(0.015625)"/>
       <path id="ArialMT-72" d="M 416 0 
L 416 3319 
L 922 3319 
L 922 2816 
Q 1116 3169 1280 3281 
Q 1444 3394 1641 3394 
Q 1925 3394 2219 3213 
L 2025 2691 
Q 1819 2813 1613 2813 
Q 1428 2813 1281 2702 
Q 1134 2591 1072 2394 
Q 978 2094 978 1738 
L 978 0 
L 416 0 
z
" transform="scale(0.015625)"/>
       <path id="ArialMT-69" d="M 425 3934 
L 425 4581 
L 988 4581 
L 988 3934 
L 425 3934 
z
M 425 0 
L 425 3319 
L 988 3319 
L 988 0 
L 425 0 
z
" transform="scale(0.015625)"/>
       <path id="ArialMT-62" d="M 941 0 
L 419 0 
L 419 4581 
L 981 4581 
L 981 2947 
Q 1338 3394 1891 3394 
Q 2197 3394 2470 3270 
Q 2744 3147 2920 2923 
Q 3097 2700 3197 2384 
Q 3297 2069 3297 1709 
Q 3297 856 2875 390 
Q 2453 -75 1863 -75 
Q 1275 -75 941 416 
L 941 0 
z
M 934 1684 
Q 934 1088 1097 822 
Q 1363 388 1816 388 
Q 2184 388 2453 708 
Q 2722 1028 2722 1663 
Q 2722 2313 2464 2622 
Q 2206 2931 1841 2931 
Q 1472 2931 1203 2611 
Q 934 2291 934 1684 
z
" transform="scale(0.015625)"/>
       <path id="ArialMT-6c" d="M 409 0 
L 409 4581 
L 972 4581 
L 972 0 
L 409 0 
z
" transform="scale(0.015625)"/>
       <path id="ArialMT-65" d="M 2694 1069 
L 3275 997 
Q 3138 488 2766 206 
Q 2394 -75 1816 -75 
Q 1088 -75 661 373 
Q 234 822 234 1631 
Q 234 2469 665 2931 
Q 1097 3394 1784 3394 
Q 2450 3394 2872 2941 
Q 3294 2488 3294 1666 
Q 3294 1616 3291 1516 
L 816 1516 
Q 847 969 1125 678 
Q 1403 388 1819 388 
Q 2128 388 2347 550 
Q 2566 713 2694 1069 
z
M 847 1978 
L 2700 1978 
Q 2663 2397 2488 2606 
Q 2219 2931 1791 2931 
Q 1403 2931 1139 2672 
Q 875 2413 847 1978 
z
" transform="scale(0.015625)"/>
       <path id="ArialMT-20" transform="scale(0.015625)"/>
       <path id="ArialMT-73" d="M 197 991 
L 753 1078 
Q 800 744 1014 566 
Q 1228 388 1613 388 
Q 2000 388 2187 545 
Q 2375 703 2375 916 
Q 2375 1106 2209 1216 
Q 2094 1291 1634 1406 
Q 1016 1563 777 1677 
Q 538 1791 414 1992 
Q 291 2194 291 2438 
Q 291 2659 392 2848 
Q 494 3038 669 3163 
Q 800 3259 1026 3326 
Q 1253 3394 1513 3394 
Q 1903 3394 2198 3281 
Q 2494 3169 2634 2976 
Q 2775 2784 2828 2463 
L 2278 2388 
Q 2241 2644 2061 2787 
Q 1881 2931 1553 2931 
Q 1166 2931 1000 2803 
Q 834 2675 834 2503 
Q 834 2394 903 2306 
Q 972 2216 1119 2156 
Q 1203 2125 1616 2013 
Q 2213 1853 2448 1751 
Q 2684 1650 2818 1456 
Q 2953 1263 2953 975 
Q 2953 694 2789 445 
Q 2625 197 2315 61 
Q 2006 -75 1616 -75 
Q 969 -75 630 194 
Q 291 463 197 991 
z
" transform="scale(0.015625)"/>
       <path id="ArialMT-74" d="M 1650 503 
L 1731 6 
Q 1494 -44 1306 -44 
Q 1000 -44 831 53 
Q 663 150 594 308 
Q 525 466 525 972 
L 525 2881 
L 113 2881 
L 113 3319 
L 525 3319 
L 525 4141 
L 1084 4478 
L 1084 3319 
L 1650 3319 
L 1650 2881 
L 1084 2881 
L 1084 941 
Q 1084 700 1114 631 
Q 1144 563 1211 522 
Q 1278 481 1403 481 
Q 1497 481 1650 503 
z
" transform="scale(0.015625)"/>
       <path id="ArialMT-6e" d="M 422 0 
L 422 3319 
L 928 3319 
L 928 2847 
Q 1294 3394 1984 3394 
Q 2284 3394 2536 3286 
Q 2788 3178 2913 3003 
Q 3038 2828 3088 2588 
Q 3119 2431 3119 2041 
L 3119 0 
L 2556 0 
L 2556 2019 
Q 2556 2363 2490 2533 
Q 2425 2703 2258 2804 
Q 2091 2906 1866 2906 
Q 1506 2906 1245 2678 
Q 984 2450 984 1813 
L 984 0 
L 422 0 
z
" transform="scale(0.015625)"/>
       <path id="ArialMT-64" d="M 2575 0 
L 2575 419 
Q 2259 -75 1647 -75 
Q 1250 -75 917 144 
Q 584 363 401 755 
Q 219 1147 219 1656 
Q 219 2153 384 2558 
Q 550 2963 881 3178 
Q 1213 3394 1622 3394 
Q 1922 3394 2156 3267 
Q 2391 3141 2538 2938 
L 2538 4581 
L 3097 4581 
L 3097 0 
L 2575 0 
z
M 797 1656 
Q 797 1019 1065 703 
Q 1334 388 1700 388 
Q 2069 388 2326 689 
Q 2584 991 2584 1609 
Q 2584 2291 2321 2609 
Q 2059 2928 1675 2928 
Q 1300 2928 1048 2622 
Q 797 2316 797 1656 
z
" transform="scale(0.015625)"/>
       <path id="ArialMT-7a" d="M 125 0 
L 125 456 
L 2238 2881 
Q 1878 2863 1603 2863 
L 250 2863 
L 250 3319 
L 2963 3319 
L 2963 2947 
L 1166 841 
L 819 456 
Q 1197 484 1528 484 
L 3063 484 
L 3063 0 
L 125 0 
z
" transform="scale(0.015625)"/>
      </defs>
      <use xlink:href="#ArialMT-56"/>
      <use xlink:href="#ArialMT-61" x="59.324219"/>
      <use xlink:href="#ArialMT-72" x="114.939453"/>
      <use xlink:href="#ArialMT-69" x="148.240234"/>
      <use xlink:href="#ArialMT-61" x="170.457031"/>
      <use xlink:href="#ArialMT-62" x="226.072266"/>
      <use xlink:href="#ArialMT-6c" x="281.6875"/>
      <use xlink:href="#ArialMT-65" x="303.904297"/>
      <use xlink:href="#ArialMT-20" x="359.519531"/>
      <use xlink:href="#ArialMT-65" x="387.302734"/>
      <use xlink:href="#ArialMT-73" x="442.917969"/>
      <use xlink:href="#ArialMT-74" x="492.917969"/>
      <use xlink:href="#ArialMT-61" x="520.701172"/>
      <use xlink:href="#ArialMT-6e" x="576.316406"/>
      <use xlink:href="#ArialMT-64" x="631.931641"/>
      <use xlink:href="#ArialMT-61" x="687.546875"/>
      <use xlink:href="#ArialMT-72" x="743.162109"/>
      <use xlink:href="#ArialMT-69" x="776.462891"/>
      <use xlink:href="#ArialMT-7a" x="798.679688"/>
      <use xlink:href="#ArialMT-61" x="848.679688"/>
      <use xlink:href="#ArialMT-64" x="904.294922"/>
      <use xlink:href="#ArialMT-61" x="959.910156"/>
     </g>
    </g>
   </g>
   <g id="matplotlib.axis_2">
    <g id="ytick_1">
     <g id="line2d_6">
      <path d="M 49.055625 337.006109 
L 478.575873 337.006109 
" clip-path="url(#p4ad8596df0)" style="fill: none; stroke: #cccccc; stroke-width: 0.8; stroke-linecap: round"/>
     </g>
     <g id="text_7">
      <!-- −0.5 -->
      <g style="fill: #262626" transform="translate(22.315 340.585015) scale(0.1 -0.1)">
       <defs>
        <path id="ArialMT-2e" d="M 581 0 
L 581 641 
L 1222 641 
L 1222 0 
L 581 0 
z
" transform="scale(0.015625)"/>
        <path id="ArialMT-35" d="M 266 1200 
L 856 1250 
Q 922 819 1161 601 
Q 1400 384 1738 384 
Q 2144 384 2425 690 
Q 2706 997 2706 1503 
Q 2706 1984 2436 2262 
Q 2166 2541 1728 2541 
Q 1456 2541 1237 2417 
Q 1019 2294 894 2097 
L 366 2166 
L 809 4519 
L 3088 4519 
L 3088 3981 
L 1259 3981 
L 1013 2750 
Q 1425 3038 1878 3038 
Q 2478 3038 2890 2622 
Q 3303 2206 3303 1553 
Q 3303 931 2941 478 
Q 2500 -78 1738 -78 
Q 1113 -78 717 272 
Q 322 622 266 1200 
z
" transform="scale(0.015625)"/>
       </defs>
       <use xlink:href="#ArialMT-2212"/>
       <use xlink:href="#ArialMT-30" x="58.398438"/>
       <use xlink:href="#ArialMT-2e" x="114.013672"/>
       <use xlink:href="#ArialMT-35" x="141.796875"/>
      </g>
     </g>
    </g>
    <g id="ytick_2">
     <g id="line2d_7">
      <path d="M 49.055625 258.363657 
L 478.575873 258.363657 
" clip-path="url(#p4ad8596df0)" style="fill: none; stroke: #cccccc; stroke-width: 0.8; stroke-linecap: round"/>
     </g>
     <g id="text_8">
      <!-- 0.0 -->
      <g style="fill: #262626" transform="translate(28.155625 261.942563) scale(0.1 -0.1)">
       <use xlink:href="#ArialMT-30"/>
       <use xlink:href="#ArialMT-2e" x="55.615234"/>
       <use xlink:href="#ArialMT-30" x="83.398438"/>
      </g>
     </g>
    </g>
    <g id="ytick_3">
     <g id="line2d_8">
      <path d="M 49.055625 179.721204 
L 478.575873 179.721204 
" clip-path="url(#p4ad8596df0)" style="fill: none; stroke: #cccccc; stroke-width: 0.8; stroke-linecap: round"/>
     </g>
     <g id="text_9">
      <!-- 0.5 -->
      <g style="fill: #262626" transform="translate(28.155625 183.30011) scale(0.1 -0.1)">
       <use xlink:href="#ArialMT-30"/>
       <use xlink:href="#ArialMT-2e" x="55.615234"/>
       <use xlink:href="#ArialMT-35" x="83.398438"/>
      </g>
     </g>
    </g>
    <g id="ytick_4">
     <g id="line2d_9">
      <path d="M 49.055625 101.078751 
L 478.575873 101.078751 
" clip-path="url(#p4ad8596df0)" style="fill: none; stroke: #cccccc; stroke-width: 0.8; stroke-linecap: round"/>
     </g>
     <g id="text_10">
      <!-- 1.0 -->
      <g style="fill: #262626" transform="translate(28.155625 104.657657) scale(0.1 -0.1)">
       <use xlink:href="#ArialMT-31"/>
       <use xlink:href="#ArialMT-2e" x="55.615234"/>
       <use xlink:href="#ArialMT-30" x="83.398438"/>
      </g>
     </g>
    </g>
    <g id="text_11">
     <!-- Lag Espacial -->
     <g style="fill: #262626" transform="translate(15.789375 239.63) rotate(-90) scale(0.12 -0.12)">
      <defs>
       <path id="ArialMT-4c" d="M 469 0 
L 469 4581 
L 1075 4581 
L 1075 541 
L 3331 541 
L 3331 0 
L 469 0 
z
" transform="scale(0.015625)"/>
       <path id="ArialMT-67" d="M 319 -275 
L 866 -356 
Q 900 -609 1056 -725 
Q 1266 -881 1628 -881 
Q 2019 -881 2231 -725 
Q 2444 -569 2519 -288 
Q 2563 -116 2559 434 
Q 2191 0 1641 0 
Q 956 0 581 494 
Q 206 988 206 1678 
Q 206 2153 378 2554 
Q 550 2956 876 3175 
Q 1203 3394 1644 3394 
Q 2231 3394 2613 2919 
L 2613 3319 
L 3131 3319 
L 3131 450 
Q 3131 -325 2973 -648 
Q 2816 -972 2473 -1159 
Q 2131 -1347 1631 -1347 
Q 1038 -1347 672 -1080 
Q 306 -813 319 -275 
z
M 784 1719 
Q 784 1066 1043 766 
Q 1303 466 1694 466 
Q 2081 466 2343 764 
Q 2606 1063 2606 1700 
Q 2606 2309 2336 2618 
Q 2066 2928 1684 2928 
Q 1309 2928 1046 2623 
Q 784 2319 784 1719 
z
" transform="scale(0.015625)"/>
       <path id="ArialMT-45" d="M 506 0 
L 506 4581 
L 3819 4581 
L 3819 4041 
L 1113 4041 
L 1113 2638 
L 3647 2638 
L 3647 2100 
L 1113 2100 
L 1113 541 
L 3925 541 
L 3925 0 
L 506 0 
z
" transform="scale(0.015625)"/>
       <path id="ArialMT-70" d="M 422 -1272 
L 422 3319 
L 934 3319 
L 934 2888 
Q 1116 3141 1344 3267 
Q 1572 3394 1897 3394 
Q 2322 3394 2647 3175 
Q 2972 2956 3137 2557 
Q 3303 2159 3303 1684 
Q 3303 1175 3120 767 
Q 2938 359 2589 142 
Q 2241 -75 1856 -75 
Q 1575 -75 1351 44 
Q 1128 163 984 344 
L 984 -1272 
L 422 -1272 
z
M 931 1641 
Q 931 1000 1190 694 
Q 1450 388 1819 388 
Q 2194 388 2461 705 
Q 2728 1022 2728 1688 
Q 2728 2322 2467 2637 
Q 2206 2953 1844 2953 
Q 1484 2953 1207 2617 
Q 931 2281 931 1641 
z
" transform="scale(0.015625)"/>
       <path id="ArialMT-63" d="M 2588 1216 
L 3141 1144 
Q 3050 572 2676 248 
Q 2303 -75 1759 -75 
Q 1078 -75 664 370 
Q 250 816 250 1647 
Q 250 2184 428 2587 
Q 606 2991 970 3192 
Q 1334 3394 1763 3394 
Q 2303 3394 2647 3120 
Q 2991 2847 3088 2344 
L 2541 2259 
Q 2463 2594 2264 2762 
Q 2066 2931 1784 2931 
Q 1359 2931 1093 2626 
Q 828 2322 828 1663 
Q 828 994 1084 691 
Q 1341 388 1753 388 
Q 2084 388 2306 591 
Q 2528 794 2588 1216 
z
" transform="scale(0.015625)"/>
      </defs>
      <use xlink:href="#ArialMT-4c"/>
      <use xlink:href="#ArialMT-61" x="55.615234"/>
      <use xlink:href="#ArialMT-67" x="111.230469"/>
      <use xlink:href="#ArialMT-20" x="166.845703"/>
      <use xlink:href="#ArialMT-45" x="194.628906"/>
      <use xlink:href="#ArialMT-73" x="261.328125"/>
      <use xlink:href="#ArialMT-70" x="311.328125"/>
      <use xlink:href="#ArialMT-61" x="366.943359"/>
      <use xlink:href="#ArialMT-63" x="422.558594"/>
      <use xlink:href="#ArialMT-69" x="472.558594"/>
      <use xlink:href="#ArialMT-61" x="494.775391"/>
      <use xlink:href="#ArialMT-6c" x="550.390625"/>
     </g>
    </g>
   </g>
   <g id="PathCollection_1">
    <defs>
     <path id="mf7f0ce3737" d="M 0 3.872983 
C 1.027127 3.872983 2.012324 3.464901 2.738613 2.738613 
C 3.464901 2.012324 3.872983 1.027127 3.872983 0 
C 3.872983 -1.027127 3.464901 -2.012324 2.738613 -2.738613 
C 2.012324 -3.464901 1.027127 -3.872983 0 -3.872983 
C -1.027127 -3.872983 -2.012324 -3.464901 -2.738613 -2.738613 
C -3.464901 -2.012324 -3.872983 -1.027127 -3.872983 0 
C -3.872983 1.027127 -3.464901 2.012324 -2.738613 2.738613 
C -2.012324 3.464901 -1.027127 3.872983 0 3.872983 
z
" style="stroke: #ffffff; stroke-opacity: 0.7"/>
    </defs>
    <g clip-path="url(#p4ad8596df0)">
     <use xlink:href="#mf7f0ce3737" x="148.805491" y="140.161831" style="fill: #003049; fill-opacity: 0.7; stroke: #ffffff; stroke-opacity: 0.7"/>
     <use xlink:href="#mf7f0ce3737" x="103.187964" y="293.125515" style="fill: #003049; fill-opacity: 0.7; stroke: #ffffff; stroke-opacity: 0.7"/>
     <use xlink:href="#mf7f0ce3737" x="128.607615" y="292.289067" style="fill: #003049; fill-opacity: 0.7; stroke: #ffffff; stroke-opacity: 0.7"/>
     <use xlink:href="#mf7f0ce3737" x="239.167077" y="39.926449" style="fill: #003049; fill-opacity: 0.7; stroke: #ffffff; stroke-opacity: 0.7"/>
     <use xlink:href="#mf7f0ce3737" x="181.554325" y="93.635784" style="fill: #003049; fill-opacity: 0.7; stroke: #ffffff; stroke-opacity: 0.7"/>
     <use xlink:href="#mf7f0ce3737" x="216.679638" y="328.357833" style="fill: #003049; fill-opacity: 0.7; stroke: #ffffff; stroke-opacity: 0.7"/>
     <use xlink:href="#mf7f0ce3737" x="68.579273" y="276.903607" style="fill: #003049; fill-opacity: 0.7; stroke: #ffffff; stroke-opacity: 0.7"/>
     <use xlink:href="#mf7f0ce3737" x="148.011645" y="273.939436" style="fill: #003049; fill-opacity: 0.7; stroke: #ffffff; stroke-opacity: 0.7"/>
     <use xlink:href="#mf7f0ce3737" x="153.479305" y="349.734754" style="fill: #003049; fill-opacity: 0.7; stroke: #ffffff; stroke-opacity: 0.7"/>
     <use xlink:href="#mf7f0ce3737" x="188.39028" y="291.624946" style="fill: #003049; fill-opacity: 0.7; stroke: #ffffff; stroke-opacity: 0.7"/>
     <use xlink:href="#mf7f0ce3737" x="207.904058" y="370.624176" style="fill: #003049; fill-opacity: 0.7; stroke: #ffffff; stroke-opacity: 0.7"/>
     <use xlink:href="#mf7f0ce3737" x="151.077521" y="290.094207" style="fill: #003049; fill-opacity: 0.7; stroke: #ffffff; stroke-opacity: 0.7"/>
     <use xlink:href="#mf7f0ce3737" x="126.00509" y="243.883779" style="fill: #003049; fill-opacity: 0.7; stroke: #ffffff; stroke-opacity: 0.7"/>
     <use xlink:href="#mf7f0ce3737" x="357.682774" y="204.151134" style="fill: #003049; fill-opacity: 0.7; stroke: #ffffff; stroke-opacity: 0.7"/>
     <use xlink:href="#mf7f0ce3737" x="189.575398" y="273.169236" style="fill: #003049; fill-opacity: 0.7; stroke: #ffffff; stroke-opacity: 0.7"/>
     <use xlink:href="#mf7f0ce3737" x="459.052225" y="144.650535" style="fill: #003049; fill-opacity: 0.7; stroke: #ffffff; stroke-opacity: 0.7"/>
    </g>
   </g>
   <g id="line2d_10">
    <path d="M 68.579273 289.396128 
L 72.523444 287.946824 
L 76.467615 286.497521 
L 80.411786 285.048218 
L 84.355958 283.598915 
L 88.300129 282.149612 
L 92.2443 280.700309 
L 96.188471 279.251005 
L 100.132643 277.801702 
L 104.076814 276.352399 
L 108.020985 274.903096 
L 111.965156 273.453793 
L 115.909328 272.00449 
L 119.853499 270.555186 
L 123.79767 269.105883 
L 127.741841 267.65658 
L 131.686012 266.207277 
L 135.630184 264.757974 
L 139.574355 263.30867 
L 143.518526 261.859367 
L 147.462697 260.410064 
L 151.406869 258.960761 
L 155.35104 257.511458 
L 159.295211 256.062155 
L 163.239382 254.612851 
L 167.183554 253.163548 
L 171.127725 251.714245 
L 175.071896 250.264942 
L 179.016067 248.815639 
L 182.960239 247.366336 
L 186.90441 245.917032 
L 190.848581 244.467729 
L 194.792752 243.018426 
L 198.736924 241.569123 
L 202.681095 240.11982 
L 206.625266 238.670517 
L 210.569437 237.221213 
L 214.513608 235.77191 
L 218.45778 234.322607 
L 222.401951 232.873304 
L 226.346122 231.424001 
L 230.290293 229.974698 
L 234.234465 228.525394 
L 238.178636 227.076091 
L 242.122807 225.626788 
L 246.066978 224.177485 
L 250.01115 222.728182 
L 253.955321 221.278879 
L 257.899492 219.829575 
L 261.843663 218.380272 
L 265.787835 216.930969 
L 269.732006 215.481666 
L 273.676177 214.032363 
L 277.620348 212.58306 
L 281.56452 211.133756 
L 285.508691 209.684453 
L 289.452862 208.23515 
L 293.397033 206.785847 
L 297.341204 205.336544 
L 301.285376 203.887241 
L 305.229547 202.437937 
L 309.173718 200.988634 
L 313.117889 199.539331 
L 317.062061 198.090028 
L 321.006232 196.640725 
L 324.950403 195.191422 
L 328.894574 193.742118 
L 332.838746 192.292815 
L 336.782917 190.843512 
L 340.727088 189.394209 
L 344.671259 187.944906 
L 348.615431 186.495603 
L 352.559602 185.046299 
L 356.503773 183.596996 
L 360.447944 182.147693 
L 364.392116 180.69839 
L 368.336287 179.249087 
L 372.280458 177.799784 
L 376.224629 176.35048 
L 380.168801 174.901177 
L 384.112972 173.451874 
L 388.057143 172.002571 
L 392.001314 170.553268 
L 395.945485 169.103965 
L 399.889657 167.654661 
L 403.833828 166.205358 
L 407.777999 164.756055 
L 411.72217 163.306752 
L 415.666342 161.857449 
L 419.610513 160.408145 
L 423.554684 158.958842 
L 427.498855 157.509539 
L 431.443027 156.060236 
L 435.387198 154.610933 
L 439.331369 153.16163 
L 443.27554 151.712326 
L 447.219712 150.263023 
L 451.163883 148.81372 
L 455.108054 147.364417 
L 459.052225 145.915114 
" clip-path="url(#p4ad8596df0)" style="fill: none; stroke: #ff0000; stroke-width: 2; stroke-linecap: round"/>
   </g>
   <g id="line2d_11">
    <path d="M 49.055625 258.363657 
L 478.575873 258.363657 
" clip-path="url(#p4ad8596df0)" style="fill: none; stroke-dasharray: 3.7,1.6; stroke-dashoffset: 0; stroke: #000000"/>
   </g>
   <g id="line2d_12">
    <path d="M 191.73498 387.159062 
L 191.73498 23.391562 
" clip-path="url(#p4ad8596df0)" style="fill: none; stroke-dasharray: 3.7,1.6; stroke-dashoffset: 0; stroke: #000000"/>
   </g>
   <g id="patch_3">
    <path d="M 49.055625 387.159062 
L 49.055625 23.391562 
" style="fill: none; stroke: #cccccc; stroke-width: 0.8; stroke-linejoin: miter; stroke-linecap: square"/>
   </g>
   <g id="patch_4">
    <path d="M 478.575873 387.159062 
L 478.575873 23.391562 
" style="fill: none; stroke: #cccccc; stroke-width: 0.8; stroke-linejoin: miter; stroke-linecap: square"/>
   </g>
   <g id="patch_5">
    <path d="M 49.055625 387.159062 
L 478.575873 387.159062 
" style="fill: none; stroke: #cccccc; stroke-width: 0.8; stroke-linejoin: miter; stroke-linecap: square"/>
   </g>
   <g id="patch_6">
    <path d="M 49.055625 23.391562 
L 478.575873 23.391562 
" style="fill: none; stroke: #cccccc; stroke-width: 0.8; stroke-linejoin: miter; stroke-linecap: square"/>
   </g>
   <g id="text_12">
    <!-- I. Moran = 0.22 -->
    <g style="fill: #ff0000" transform="translate(198.057634 182.823391) scale(0.12 -0.12)">
     <defs>
      <path id="ArialMT-49" d="M 597 0 
L 597 4581 
L 1203 4581 
L 1203 0 
L 597 0 
z
" transform="scale(0.015625)"/>
      <path id="ArialMT-4d" d="M 475 0 
L 475 4581 
L 1388 4581 
L 2472 1338 
Q 2622 884 2691 659 
Q 2769 909 2934 1394 
L 4031 4581 
L 4847 4581 
L 4847 0 
L 4263 0 
L 4263 3834 
L 2931 0 
L 2384 0 
L 1059 3900 
L 1059 0 
L 475 0 
z
" transform="scale(0.015625)"/>
      <path id="ArialMT-6f" d="M 213 1659 
Q 213 2581 725 3025 
Q 1153 3394 1769 3394 
Q 2453 3394 2887 2945 
Q 3322 2497 3322 1706 
Q 3322 1066 3130 698 
Q 2938 331 2570 128 
Q 2203 -75 1769 -75 
Q 1072 -75 642 372 
Q 213 819 213 1659 
z
M 791 1659 
Q 791 1022 1069 705 
Q 1347 388 1769 388 
Q 2188 388 2466 706 
Q 2744 1025 2744 1678 
Q 2744 2294 2464 2611 
Q 2184 2928 1769 2928 
Q 1347 2928 1069 2612 
Q 791 2297 791 1659 
z
" transform="scale(0.015625)"/>
      <path id="ArialMT-3d" d="M 3381 2694 
L 356 2694 
L 356 3219 
L 3381 3219 
L 3381 2694 
z
M 3381 1303 
L 356 1303 
L 356 1828 
L 3381 1828 
L 3381 1303 
z
" transform="scale(0.015625)"/>
     </defs>
     <use xlink:href="#ArialMT-49"/>
     <use xlink:href="#ArialMT-2e" x="27.783203"/>
     <use xlink:href="#ArialMT-20" x="55.566406"/>
     <use xlink:href="#ArialMT-4d" x="83.349609"/>
     <use xlink:href="#ArialMT-6f" x="166.650391"/>
     <use xlink:href="#ArialMT-72" x="222.265625"/>
     <use xlink:href="#ArialMT-61" x="255.566406"/>
     <use xlink:href="#ArialMT-6e" x="311.181641"/>
     <use xlink:href="#ArialMT-20" x="366.796875"/>
     <use xlink:href="#ArialMT-3d" x="394.580078"/>
     <use xlink:href="#ArialMT-20" x="452.978516"/>
     <use xlink:href="#ArialMT-30" x="480.761719"/>
     <use xlink:href="#ArialMT-2e" x="536.376953"/>
     <use xlink:href="#ArialMT-32" x="564.160156"/>
     <use xlink:href="#ArialMT-32" x="619.775391"/>
    </g>
   </g>
   <g id="text_13">
    <!-- Azcapotzalco -->
    <g style="opacity: 0.7" transform="translate(148.805491 140.161831) scale(0.05 -0.05)">
     <defs>
      <path id="ArialMT-41" d="M -9 0 
L 1750 4581 
L 2403 4581 
L 4278 0 
L 3588 0 
L 3053 1388 
L 1138 1388 
L 634 0 
L -9 0 
z
M 1313 1881 
L 2866 1881 
L 2388 3150 
Q 2169 3728 2063 4100 
Q 1975 3659 1816 3225 
L 1313 1881 
z
" transform="scale(0.015625)"/>
     </defs>
     <use xlink:href="#ArialMT-41"/>
     <use xlink:href="#ArialMT-7a" x="66.699219"/>
     <use xlink:href="#ArialMT-63" x="116.699219"/>
     <use xlink:href="#ArialMT-61" x="166.699219"/>
     <use xlink:href="#ArialMT-70" x="222.314453"/>
     <use xlink:href="#ArialMT-6f" x="277.929688"/>
     <use xlink:href="#ArialMT-74" x="333.544922"/>
     <use xlink:href="#ArialMT-7a" x="361.328125"/>
     <use xlink:href="#ArialMT-61" x="411.328125"/>
     <use xlink:href="#ArialMT-6c" x="466.943359"/>
     <use xlink:href="#ArialMT-63" x="489.160156"/>
     <use xlink:href="#ArialMT-6f" x="539.160156"/>
    </g>
   </g>
   <g id="text_14">
    <!-- Coyoacán -->
    <g style="opacity: 0.7" transform="translate(103.187964 293.125515) scale(0.05 -0.05)">
     <defs>
      <path id="ArialMT-43" d="M 3763 1606 
L 4369 1453 
Q 4178 706 3683 314 
Q 3188 -78 2472 -78 
Q 1731 -78 1267 223 
Q 803 525 561 1097 
Q 319 1669 319 2325 
Q 319 3041 592 3573 
Q 866 4106 1370 4382 
Q 1875 4659 2481 4659 
Q 3169 4659 3637 4309 
Q 4106 3959 4291 3325 
L 3694 3184 
Q 3534 3684 3231 3912 
Q 2928 4141 2469 4141 
Q 1941 4141 1586 3887 
Q 1231 3634 1087 3207 
Q 944 2781 944 2328 
Q 944 1744 1114 1308 
Q 1284 872 1643 656 
Q 2003 441 2422 441 
Q 2931 441 3284 734 
Q 3638 1028 3763 1606 
z
" transform="scale(0.015625)"/>
      <path id="ArialMT-79" d="M 397 -1278 
L 334 -750 
Q 519 -800 656 -800 
Q 844 -800 956 -737 
Q 1069 -675 1141 -563 
Q 1194 -478 1313 -144 
Q 1328 -97 1363 -6 
L 103 3319 
L 709 3319 
L 1400 1397 
Q 1534 1031 1641 628 
Q 1738 1016 1872 1384 
L 2581 3319 
L 3144 3319 
L 1881 -56 
Q 1678 -603 1566 -809 
Q 1416 -1088 1222 -1217 
Q 1028 -1347 759 -1347 
Q 597 -1347 397 -1278 
z
" transform="scale(0.015625)"/>
      <path id="ArialMT-e1" d="M 2588 409 
Q 2275 144 1986 34 
Q 1697 -75 1366 -75 
Q 819 -75 525 192 
Q 231 459 231 875 
Q 231 1119 342 1320 
Q 453 1522 633 1644 
Q 813 1766 1038 1828 
Q 1203 1872 1538 1913 
Q 2219 1994 2541 2106 
Q 2544 2222 2544 2253 
Q 2544 2597 2384 2738 
Q 2169 2928 1744 2928 
Q 1347 2928 1158 2789 
Q 969 2650 878 2297 
L 328 2372 
Q 403 2725 575 2942 
Q 747 3159 1072 3276 
Q 1397 3394 1825 3394 
Q 2250 3394 2515 3294 
Q 2781 3194 2906 3042 
Q 3031 2891 3081 2659 
Q 3109 2516 3109 2141 
L 3109 1391 
Q 3109 606 3145 398 
Q 3181 191 3288 0 
L 2700 0 
Q 2613 175 2588 409 
z
M 2541 1666 
Q 2234 1541 1622 1453 
Q 1275 1403 1131 1340 
Q 988 1278 909 1158 
Q 831 1038 831 891 
Q 831 666 1001 516 
Q 1172 366 1500 366 
Q 1825 366 2078 508 
Q 2331 650 2450 897 
Q 2541 1088 2541 1459 
L 2541 1666 
z
M 1447 3731 
L 1863 4606 
L 2600 4606 
L 1913 3731 
L 1447 3731 
z
" transform="scale(0.015625)"/>
     </defs>
     <use xlink:href="#ArialMT-43"/>
     <use xlink:href="#ArialMT-6f" x="72.216797"/>
     <use xlink:href="#ArialMT-79" x="127.832031"/>
     <use xlink:href="#ArialMT-6f" x="177.832031"/>
     <use xlink:href="#ArialMT-61" x="233.447266"/>
     <use xlink:href="#ArialMT-63" x="289.0625"/>
     <use xlink:href="#ArialMT-e1" x="339.0625"/>
     <use xlink:href="#ArialMT-6e" x="394.677734"/>
    </g>
   </g>
   <g id="text_15">
    <!-- Cuajimalpa de Morelos -->
    <g style="opacity: 0.7" transform="translate(128.607615 292.289067) scale(0.05 -0.05)">
     <defs>
      <path id="ArialMT-75" d="M 2597 0 
L 2597 488 
Q 2209 -75 1544 -75 
Q 1250 -75 995 37 
Q 741 150 617 320 
Q 494 491 444 738 
Q 409 903 409 1263 
L 409 3319 
L 972 3319 
L 972 1478 
Q 972 1038 1006 884 
Q 1059 663 1231 536 
Q 1403 409 1656 409 
Q 1909 409 2131 539 
Q 2353 669 2445 892 
Q 2538 1116 2538 1541 
L 2538 3319 
L 3100 3319 
L 3100 0 
L 2597 0 
z
" transform="scale(0.015625)"/>
      <path id="ArialMT-6a" d="M 419 3928 
L 419 4581 
L 981 4581 
L 981 3928 
L 419 3928 
z
M -294 -1288 
L -188 -809 
Q -19 -853 78 -853 
Q 250 -853 334 -739 
Q 419 -625 419 -169 
L 419 3319 
L 981 3319 
L 981 -181 
Q 981 -794 822 -1034 
Q 619 -1347 147 -1347 
Q -81 -1347 -294 -1288 
z
" transform="scale(0.015625)"/>
      <path id="ArialMT-6d" d="M 422 0 
L 422 3319 
L 925 3319 
L 925 2853 
Q 1081 3097 1340 3245 
Q 1600 3394 1931 3394 
Q 2300 3394 2536 3241 
Q 2772 3088 2869 2813 
Q 3263 3394 3894 3394 
Q 4388 3394 4653 3120 
Q 4919 2847 4919 2278 
L 4919 0 
L 4359 0 
L 4359 2091 
Q 4359 2428 4304 2576 
Q 4250 2725 4106 2815 
Q 3963 2906 3769 2906 
Q 3419 2906 3187 2673 
Q 2956 2441 2956 1928 
L 2956 0 
L 2394 0 
L 2394 2156 
Q 2394 2531 2256 2718 
Q 2119 2906 1806 2906 
Q 1569 2906 1367 2781 
Q 1166 2656 1075 2415 
Q 984 2175 984 1722 
L 984 0 
L 422 0 
z
" transform="scale(0.015625)"/>
     </defs>
     <use xlink:href="#ArialMT-43"/>
     <use xlink:href="#ArialMT-75" x="72.216797"/>
     <use xlink:href="#ArialMT-61" x="127.832031"/>
     <use xlink:href="#ArialMT-6a" x="183.447266"/>
     <use xlink:href="#ArialMT-69" x="205.664062"/>
     <use xlink:href="#ArialMT-6d" x="227.880859"/>
     <use xlink:href="#ArialMT-61" x="311.181641"/>
     <use xlink:href="#ArialMT-6c" x="366.796875"/>
     <use xlink:href="#ArialMT-70" x="389.013672"/>
     <use xlink:href="#ArialMT-61" x="444.628906"/>
     <use xlink:href="#ArialMT-20" x="500.244141"/>
     <use xlink:href="#ArialMT-64" x="528.027344"/>
     <use xlink:href="#ArialMT-65" x="583.642578"/>
     <use xlink:href="#ArialMT-20" x="639.257812"/>
     <use xlink:href="#ArialMT-4d" x="667.041016"/>
     <use xlink:href="#ArialMT-6f" x="750.341797"/>
     <use xlink:href="#ArialMT-72" x="805.957031"/>
     <use xlink:href="#ArialMT-65" x="839.257812"/>
     <use xlink:href="#ArialMT-6c" x="894.873047"/>
     <use xlink:href="#ArialMT-6f" x="917.089844"/>
     <use xlink:href="#ArialMT-73" x="972.705078"/>
    </g>
   </g>
   <g id="text_16">
    <!-- Gustavo A. Madero -->
    <g style="opacity: 0.7" transform="translate(239.167077 39.926449) scale(0.05 -0.05)">
     <defs>
      <path id="ArialMT-47" d="M 2638 1797 
L 2638 2334 
L 4578 2338 
L 4578 638 
Q 4131 281 3656 101 
Q 3181 -78 2681 -78 
Q 2006 -78 1454 211 
Q 903 500 622 1047 
Q 341 1594 341 2269 
Q 341 2938 620 3517 
Q 900 4097 1425 4378 
Q 1950 4659 2634 4659 
Q 3131 4659 3532 4498 
Q 3934 4338 4162 4050 
Q 4391 3763 4509 3300 
L 3963 3150 
Q 3859 3500 3706 3700 
Q 3553 3900 3268 4020 
Q 2984 4141 2638 4141 
Q 2222 4141 1919 4014 
Q 1616 3888 1430 3681 
Q 1244 3475 1141 3228 
Q 966 2803 966 2306 
Q 966 1694 1177 1281 
Q 1388 869 1791 669 
Q 2194 469 2647 469 
Q 3041 469 3416 620 
Q 3791 772 3984 944 
L 3984 1797 
L 2638 1797 
z
" transform="scale(0.015625)"/>
      <path id="ArialMT-76" d="M 1344 0 
L 81 3319 
L 675 3319 
L 1388 1331 
Q 1503 1009 1600 663 
Q 1675 925 1809 1294 
L 2547 3319 
L 3125 3319 
L 1869 0 
L 1344 0 
z
" transform="scale(0.015625)"/>
     </defs>
     <use xlink:href="#ArialMT-47"/>
     <use xlink:href="#ArialMT-75" x="77.783203"/>
     <use xlink:href="#ArialMT-73" x="133.398438"/>
     <use xlink:href="#ArialMT-74" x="183.398438"/>
     <use xlink:href="#ArialMT-61" x="211.181641"/>
     <use xlink:href="#ArialMT-76" x="266.796875"/>
     <use xlink:href="#ArialMT-6f" x="316.796875"/>
     <use xlink:href="#ArialMT-20" x="372.412109"/>
     <use xlink:href="#ArialMT-41" x="394.695312"/>
     <use xlink:href="#ArialMT-2e" x="461.394531"/>
     <use xlink:href="#ArialMT-20" x="489.177734"/>
     <use xlink:href="#ArialMT-4d" x="516.960938"/>
     <use xlink:href="#ArialMT-61" x="600.261719"/>
     <use xlink:href="#ArialMT-64" x="655.876953"/>
     <use xlink:href="#ArialMT-65" x="711.492188"/>
     <use xlink:href="#ArialMT-72" x="767.107422"/>
     <use xlink:href="#ArialMT-6f" x="800.408203"/>
    </g>
   </g>
   <g id="text_17">
    <!-- Iztacalco -->
    <g style="opacity: 0.7" transform="translate(181.554325 93.635784) scale(0.05 -0.05)">
     <use xlink:href="#ArialMT-49"/>
     <use xlink:href="#ArialMT-7a" x="27.783203"/>
     <use xlink:href="#ArialMT-74" x="77.783203"/>
     <use xlink:href="#ArialMT-61" x="105.566406"/>
     <use xlink:href="#ArialMT-63" x="161.181641"/>
     <use xlink:href="#ArialMT-61" x="211.181641"/>
     <use xlink:href="#ArialMT-6c" x="266.796875"/>
     <use xlink:href="#ArialMT-63" x="289.013672"/>
     <use xlink:href="#ArialMT-6f" x="339.013672"/>
    </g>
   </g>
   <g id="text_18">
    <!-- Iztapalapa -->
    <g style="opacity: 0.7" transform="translate(216.679638 328.357833) scale(0.05 -0.05)">
     <use xlink:href="#ArialMT-49"/>
     <use xlink:href="#ArialMT-7a" x="27.783203"/>
     <use xlink:href="#ArialMT-74" x="77.783203"/>
     <use xlink:href="#ArialMT-61" x="105.566406"/>
     <use xlink:href="#ArialMT-70" x="161.181641"/>
     <use xlink:href="#ArialMT-61" x="216.796875"/>
     <use xlink:href="#ArialMT-6c" x="272.412109"/>
     <use xlink:href="#ArialMT-61" x="294.628906"/>
     <use xlink:href="#ArialMT-70" x="350.244141"/>
     <use xlink:href="#ArialMT-61" x="405.859375"/>
    </g>
   </g>
   <g id="text_19">
    <!-- La Magdalena Contreras -->
    <g style="opacity: 0.7" transform="translate(68.579273 276.903607) scale(0.05 -0.05)">
     <use xlink:href="#ArialMT-4c"/>
     <use xlink:href="#ArialMT-61" x="55.615234"/>
     <use xlink:href="#ArialMT-20" x="111.230469"/>
     <use xlink:href="#ArialMT-4d" x="139.013672"/>
     <use xlink:href="#ArialMT-61" x="222.314453"/>
     <use xlink:href="#ArialMT-67" x="277.929688"/>
     <use xlink:href="#ArialMT-64" x="333.544922"/>
     <use xlink:href="#ArialMT-61" x="389.160156"/>
     <use xlink:href="#ArialMT-6c" x="444.775391"/>
     <use xlink:href="#ArialMT-65" x="466.992188"/>
     <use xlink:href="#ArialMT-6e" x="522.607422"/>
     <use xlink:href="#ArialMT-61" x="578.222656"/>
     <use xlink:href="#ArialMT-20" x="633.837891"/>
     <use xlink:href="#ArialMT-43" x="661.621094"/>
     <use xlink:href="#ArialMT-6f" x="733.837891"/>
     <use xlink:href="#ArialMT-6e" x="789.453125"/>
     <use xlink:href="#ArialMT-74" x="845.068359"/>
     <use xlink:href="#ArialMT-72" x="872.851562"/>
     <use xlink:href="#ArialMT-65" x="906.152344"/>
     <use xlink:href="#ArialMT-72" x="961.767578"/>
     <use xlink:href="#ArialMT-61" x="995.068359"/>
     <use xlink:href="#ArialMT-73" x="1050.683594"/>
    </g>
   </g>
   <g id="text_20">
    <!-- Milpa Alta -->
    <g style="opacity: 0.7" transform="translate(148.011645 273.939436) scale(0.05 -0.05)">
     <use xlink:href="#ArialMT-4d"/>
     <use xlink:href="#ArialMT-69" x="83.300781"/>
     <use xlink:href="#ArialMT-6c" x="105.517578"/>
     <use xlink:href="#ArialMT-70" x="127.734375"/>
     <use xlink:href="#ArialMT-61" x="183.349609"/>
     <use xlink:href="#ArialMT-20" x="238.964844"/>
     <use xlink:href="#ArialMT-41" x="261.248047"/>
     <use xlink:href="#ArialMT-6c" x="327.947266"/>
     <use xlink:href="#ArialMT-74" x="350.164062"/>
     <use xlink:href="#ArialMT-61" x="377.947266"/>
    </g>
   </g>
   <g id="text_21">
    <!-- Álvaro Obregón -->
    <g style="opacity: 0.7" transform="translate(153.479305 349.734754) scale(0.05 -0.05)">
     <defs>
      <path id="ArialMT-c1" d="M -9 0 
L 1750 4581 
L 2403 4581 
L 4278 0 
L 3588 0 
L 3053 1388 
L 1138 1388 
L 634 0 
L -9 0 
z
M 1313 1881 
L 2866 1881 
L 2388 3150 
Q 2169 3728 2063 4100 
Q 1975 3659 1816 3225 
L 1313 1881 
z
M 1691 4862 
L 2106 5737 
L 2844 5737 
L 2156 4862 
L 1691 4862 
z
" transform="scale(0.015625)"/>
      <path id="ArialMT-4f" d="M 309 2231 
Q 309 3372 921 4017 
Q 1534 4663 2503 4663 
Q 3138 4663 3647 4359 
Q 4156 4056 4423 3514 
Q 4691 2972 4691 2284 
Q 4691 1588 4409 1038 
Q 4128 488 3612 205 
Q 3097 -78 2500 -78 
Q 1853 -78 1343 234 
Q 834 547 571 1087 
Q 309 1628 309 2231 
z
M 934 2222 
Q 934 1394 1379 917 
Q 1825 441 2497 441 
Q 3181 441 3623 922 
Q 4066 1403 4066 2288 
Q 4066 2847 3877 3264 
Q 3688 3681 3323 3911 
Q 2959 4141 2506 4141 
Q 1863 4141 1398 3698 
Q 934 3256 934 2222 
z
" transform="scale(0.015625)"/>
      <path id="ArialMT-f3" d="M 213 1659 
Q 213 2581 725 3025 
Q 1153 3394 1769 3394 
Q 2453 3394 2887 2945 
Q 3322 2497 3322 1706 
Q 3322 1066 3130 698 
Q 2938 331 2570 128 
Q 2203 -75 1769 -75 
Q 1072 -75 642 372 
Q 213 819 213 1659 
z
M 791 1659 
Q 791 1022 1069 705 
Q 1347 388 1769 388 
Q 2188 388 2466 706 
Q 2744 1025 2744 1678 
Q 2744 2294 2464 2611 
Q 2184 2928 1769 2928 
Q 1347 2928 1069 2612 
Q 791 2297 791 1659 
z
M 1456 3731 
L 1872 4606 
L 2609 4606 
L 1922 3731 
L 1456 3731 
z
" transform="scale(0.015625)"/>
     </defs>
     <use xlink:href="#ArialMT-c1"/>
     <use xlink:href="#ArialMT-6c" x="66.699219"/>
     <use xlink:href="#ArialMT-76" x="88.916016"/>
     <use xlink:href="#ArialMT-61" x="138.916016"/>
     <use xlink:href="#ArialMT-72" x="194.53125"/>
     <use xlink:href="#ArialMT-6f" x="227.832031"/>
     <use xlink:href="#ArialMT-20" x="283.447266"/>
     <use xlink:href="#ArialMT-4f" x="311.230469"/>
     <use xlink:href="#ArialMT-62" x="389.013672"/>
     <use xlink:href="#ArialMT-72" x="444.628906"/>
     <use xlink:href="#ArialMT-65" x="477.929688"/>
     <use xlink:href="#ArialMT-67" x="533.544922"/>
     <use xlink:href="#ArialMT-f3" x="589.160156"/>
     <use xlink:href="#ArialMT-6e" x="644.775391"/>
    </g>
   </g>
   <g id="text_22">
    <!-- Tláhuac -->
    <g style="opacity: 0.7" transform="translate(188.39028 291.624946) scale(0.05 -0.05)">
     <defs>
      <path id="ArialMT-54" d="M 1659 0 
L 1659 4041 
L 150 4041 
L 150 4581 
L 3781 4581 
L 3781 4041 
L 2266 4041 
L 2266 0 
L 1659 0 
z
" transform="scale(0.015625)"/>
      <path id="ArialMT-68" d="M 422 0 
L 422 4581 
L 984 4581 
L 984 2938 
Q 1378 3394 1978 3394 
Q 2347 3394 2619 3248 
Q 2891 3103 3008 2847 
Q 3125 2591 3125 2103 
L 3125 0 
L 2563 0 
L 2563 2103 
Q 2563 2525 2380 2717 
Q 2197 2909 1863 2909 
Q 1613 2909 1392 2779 
Q 1172 2650 1078 2428 
Q 984 2206 984 1816 
L 984 0 
L 422 0 
z
" transform="scale(0.015625)"/>
     </defs>
     <use xlink:href="#ArialMT-54"/>
     <use xlink:href="#ArialMT-6c" x="61.083984"/>
     <use xlink:href="#ArialMT-e1" x="83.300781"/>
     <use xlink:href="#ArialMT-68" x="138.916016"/>
     <use xlink:href="#ArialMT-75" x="194.53125"/>
     <use xlink:href="#ArialMT-61" x="250.146484"/>
     <use xlink:href="#ArialMT-63" x="305.761719"/>
    </g>
   </g>
   <g id="text_23">
    <!-- Tlalpan -->
    <g style="opacity: 0.7" transform="translate(207.904058 370.624176) scale(0.05 -0.05)">
     <use xlink:href="#ArialMT-54"/>
     <use xlink:href="#ArialMT-6c" x="61.083984"/>
     <use xlink:href="#ArialMT-61" x="83.300781"/>
     <use xlink:href="#ArialMT-6c" x="138.916016"/>
     <use xlink:href="#ArialMT-70" x="161.132812"/>
     <use xlink:href="#ArialMT-61" x="216.748047"/>
     <use xlink:href="#ArialMT-6e" x="272.363281"/>
    </g>
   </g>
   <g id="text_24">
    <!-- Xochimilco -->
    <g style="opacity: 0.7" transform="translate(151.077521 290.094207) scale(0.05 -0.05)">
     <defs>
      <path id="ArialMT-58" d="M 28 0 
L 1800 2388 
L 238 4581 
L 959 4581 
L 1791 3406 
Q 2050 3041 2159 2844 
Q 2313 3094 2522 3366 
L 3444 4581 
L 4103 4581 
L 2494 2422 
L 4228 0 
L 3478 0 
L 2325 1634 
Q 2228 1775 2125 1941 
Q 1972 1691 1906 1597 
L 756 0 
L 28 0 
z
" transform="scale(0.015625)"/>
     </defs>
     <use xlink:href="#ArialMT-58"/>
     <use xlink:href="#ArialMT-6f" x="66.699219"/>
     <use xlink:href="#ArialMT-63" x="122.314453"/>
     <use xlink:href="#ArialMT-68" x="172.314453"/>
     <use xlink:href="#ArialMT-69" x="227.929688"/>
     <use xlink:href="#ArialMT-6d" x="250.146484"/>
     <use xlink:href="#ArialMT-69" x="333.447266"/>
     <use xlink:href="#ArialMT-6c" x="355.664062"/>
     <use xlink:href="#ArialMT-63" x="377.880859"/>
     <use xlink:href="#ArialMT-6f" x="427.880859"/>
    </g>
   </g>
   <g id="text_25">
    <!-- Benito Juárez -->
    <g style="opacity: 0.7" transform="translate(126.00509 243.883779) scale(0.05 -0.05)">
     <defs>
      <path id="ArialMT-42" d="M 469 0 
L 469 4581 
L 2188 4581 
Q 2713 4581 3030 4442 
Q 3347 4303 3526 4014 
Q 3706 3725 3706 3409 
Q 3706 3116 3547 2856 
Q 3388 2597 3066 2438 
Q 3481 2316 3704 2022 
Q 3928 1728 3928 1328 
Q 3928 1006 3792 729 
Q 3656 453 3456 303 
Q 3256 153 2954 76 
Q 2653 0 2216 0 
L 469 0 
z
M 1075 2656 
L 2066 2656 
Q 2469 2656 2644 2709 
Q 2875 2778 2992 2937 
Q 3109 3097 3109 3338 
Q 3109 3566 3000 3739 
Q 2891 3913 2687 3977 
Q 2484 4041 1991 4041 
L 1075 4041 
L 1075 2656 
z
M 1075 541 
L 2216 541 
Q 2509 541 2628 563 
Q 2838 600 2978 687 
Q 3119 775 3209 942 
Q 3300 1109 3300 1328 
Q 3300 1584 3169 1773 
Q 3038 1963 2805 2039 
Q 2572 2116 2134 2116 
L 1075 2116 
L 1075 541 
z
" transform="scale(0.015625)"/>
      <path id="ArialMT-4a" d="M 184 1300 
L 731 1375 
Q 753 850 928 656 
Q 1103 463 1413 463 
Q 1641 463 1806 567 
Q 1972 672 2034 851 
Q 2097 1031 2097 1425 
L 2097 4581 
L 2703 4581 
L 2703 1459 
Q 2703 884 2564 568 
Q 2425 253 2123 87 
Q 1822 -78 1416 -78 
Q 813 -78 492 269 
Q 172 616 184 1300 
z
" transform="scale(0.015625)"/>
     </defs>
     <use xlink:href="#ArialMT-42"/>
     <use xlink:href="#ArialMT-65" x="66.699219"/>
     <use xlink:href="#ArialMT-6e" x="122.314453"/>
     <use xlink:href="#ArialMT-69" x="177.929688"/>
     <use xlink:href="#ArialMT-74" x="200.146484"/>
     <use xlink:href="#ArialMT-6f" x="227.929688"/>
     <use xlink:href="#ArialMT-20" x="283.544922"/>
     <use xlink:href="#ArialMT-4a" x="311.328125"/>
     <use xlink:href="#ArialMT-75" x="361.328125"/>
     <use xlink:href="#ArialMT-e1" x="416.943359"/>
     <use xlink:href="#ArialMT-72" x="472.558594"/>
     <use xlink:href="#ArialMT-65" x="505.859375"/>
     <use xlink:href="#ArialMT-7a" x="561.474609"/>
    </g>
   </g>
   <g id="text_26">
    <!-- Cuauhtémoc -->
    <g style="opacity: 0.7" transform="translate(357.682774 204.151134) scale(0.05 -0.05)">
     <defs>
      <path id="ArialMT-e9" d="M 2694 1069 
L 3275 997 
Q 3138 488 2766 206 
Q 2394 -75 1816 -75 
Q 1088 -75 661 373 
Q 234 822 234 1631 
Q 234 2469 665 2931 
Q 1097 3394 1784 3394 
Q 2450 3394 2872 2941 
Q 3294 2488 3294 1666 
Q 3294 1616 3291 1516 
L 816 1516 
Q 847 969 1125 678 
Q 1403 388 1819 388 
Q 2128 388 2347 550 
Q 2566 713 2694 1069 
z
M 847 1978 
L 2700 1978 
Q 2663 2397 2488 2606 
Q 2219 2931 1791 2931 
Q 1403 2931 1139 2672 
Q 875 2413 847 1978 
z
M 1453 3731 
L 1869 4606 
L 2606 4606 
L 1919 3731 
L 1453 3731 
z
" transform="scale(0.015625)"/>
     </defs>
     <use xlink:href="#ArialMT-43"/>
     <use xlink:href="#ArialMT-75" x="72.216797"/>
     <use xlink:href="#ArialMT-61" x="127.832031"/>
     <use xlink:href="#ArialMT-75" x="183.447266"/>
     <use xlink:href="#ArialMT-68" x="239.0625"/>
     <use xlink:href="#ArialMT-74" x="294.677734"/>
     <use xlink:href="#ArialMT-e9" x="322.460938"/>
     <use xlink:href="#ArialMT-6d" x="378.076172"/>
     <use xlink:href="#ArialMT-6f" x="461.376953"/>
     <use xlink:href="#ArialMT-63" x="516.992188"/>
    </g>
   </g>
   <g id="text_27">
    <!-- Miguel Hidalgo -->
    <g style="opacity: 0.7" transform="translate(189.575398 273.169236) scale(0.05 -0.05)">
     <defs>
      <path id="ArialMT-48" d="M 513 0 
L 513 4581 
L 1119 4581 
L 1119 2700 
L 3500 2700 
L 3500 4581 
L 4106 4581 
L 4106 0 
L 3500 0 
L 3500 2159 
L 1119 2159 
L 1119 0 
L 513 0 
z
" transform="scale(0.015625)"/>
     </defs>
     <use xlink:href="#ArialMT-4d"/>
     <use xlink:href="#ArialMT-69" x="83.300781"/>
     <use xlink:href="#ArialMT-67" x="105.517578"/>
     <use xlink:href="#ArialMT-75" x="161.132812"/>
     <use xlink:href="#ArialMT-65" x="216.748047"/>
     <use xlink:href="#ArialMT-6c" x="272.363281"/>
     <use xlink:href="#ArialMT-20" x="294.580078"/>
     <use xlink:href="#ArialMT-48" x="322.363281"/>
     <use xlink:href="#ArialMT-69" x="394.580078"/>
     <use xlink:href="#ArialMT-64" x="416.796875"/>
     <use xlink:href="#ArialMT-61" x="472.412109"/>
     <use xlink:href="#ArialMT-6c" x="528.027344"/>
     <use xlink:href="#ArialMT-67" x="550.244141"/>
     <use xlink:href="#ArialMT-6f" x="605.859375"/>
    </g>
   </g>
   <g id="text_28">
    <!-- Venustiano Carranza -->
    <g style="opacity: 0.7" transform="translate(459.052225 144.650535) scale(0.05 -0.05)">
     <use xlink:href="#ArialMT-56"/>
     <use xlink:href="#ArialMT-65" x="61.199219"/>
     <use xlink:href="#ArialMT-6e" x="116.814453"/>
     <use xlink:href="#ArialMT-75" x="172.429688"/>
     <use xlink:href="#ArialMT-73" x="228.044922"/>
     <use xlink:href="#ArialMT-74" x="278.044922"/>
     <use xlink:href="#ArialMT-69" x="305.828125"/>
     <use xlink:href="#ArialMT-61" x="328.044922"/>
     <use xlink:href="#ArialMT-6e" x="383.660156"/>
     <use xlink:href="#ArialMT-6f" x="439.275391"/>
     <use xlink:href="#ArialMT-20" x="494.890625"/>
     <use xlink:href="#ArialMT-43" x="522.673828"/>
     <use xlink:href="#ArialMT-61" x="594.890625"/>
     <use xlink:href="#ArialMT-72" x="650.505859"/>
     <use xlink:href="#ArialMT-72" x="683.806641"/>
     <use xlink:href="#ArialMT-61" x="717.107422"/>
     <use xlink:href="#ArialMT-6e" x="772.722656"/>
     <use xlink:href="#ArialMT-7a" x="828.337891"/>
     <use xlink:href="#ArialMT-61" x="878.337891"/>
    </g>
   </g>
   <g id="text_29">
    <!-- Diagrama de Dispersión de Moran -->
    <g style="fill: #262626" transform="translate(150.625749 17.391562) scale(0.14 -0.14)">
     <defs>
      <path id="Arial-BoldMT-44" d="M 463 4581 
L 2153 4581 
Q 2725 4581 3025 4494 
Q 3428 4375 3715 4072 
Q 4003 3769 4153 3330 
Q 4303 2891 4303 2247 
Q 4303 1681 4163 1272 
Q 3991 772 3672 463 
Q 3431 228 3022 97 
Q 2716 0 2203 0 
L 463 0 
L 463 4581 
z
M 1388 3806 
L 1388 772 
L 2078 772 
Q 2466 772 2638 816 
Q 2863 872 3011 1006 
Q 3159 1141 3253 1448 
Q 3347 1756 3347 2288 
Q 3347 2819 3253 3103 
Q 3159 3388 2990 3547 
Q 2822 3706 2563 3763 
Q 2369 3806 1803 3806 
L 1388 3806 
z
" transform="scale(0.015625)"/>
      <path id="Arial-BoldMT-69" d="M 459 3769 
L 459 4581 
L 1338 4581 
L 1338 3769 
L 459 3769 
z
M 459 0 
L 459 3319 
L 1338 3319 
L 1338 0 
L 459 0 
z
" transform="scale(0.015625)"/>
      <path id="Arial-BoldMT-61" d="M 1116 2306 
L 319 2450 
Q 453 2931 781 3162 
Q 1109 3394 1756 3394 
Q 2344 3394 2631 3255 
Q 2919 3116 3036 2902 
Q 3153 2688 3153 2116 
L 3144 1091 
Q 3144 653 3186 445 
Q 3228 238 3344 0 
L 2475 0 
Q 2441 88 2391 259 
Q 2369 338 2359 363 
Q 2134 144 1878 34 
Q 1622 -75 1331 -75 
Q 819 -75 523 203 
Q 228 481 228 906 
Q 228 1188 362 1408 
Q 497 1628 739 1745 
Q 981 1863 1438 1950 
Q 2053 2066 2291 2166 
L 2291 2253 
Q 2291 2506 2166 2614 
Q 2041 2722 1694 2722 
Q 1459 2722 1328 2630 
Q 1197 2538 1116 2306 
z
M 2291 1594 
Q 2122 1538 1756 1459 
Q 1391 1381 1278 1306 
Q 1106 1184 1106 997 
Q 1106 813 1243 678 
Q 1381 544 1594 544 
Q 1831 544 2047 700 
Q 2206 819 2256 991 
Q 2291 1103 2291 1419 
L 2291 1594 
z
" transform="scale(0.015625)"/>
      <path id="Arial-BoldMT-67" d="M 378 -219 
L 1381 -341 
Q 1406 -516 1497 -581 
Q 1622 -675 1891 -675 
Q 2234 -675 2406 -572 
Q 2522 -503 2581 -350 
Q 2622 -241 2622 53 
L 2622 538 
Q 2228 0 1628 0 
Q 959 0 569 566 
Q 263 1013 263 1678 
Q 263 2513 664 2953 
Q 1066 3394 1663 3394 
Q 2278 3394 2678 2853 
L 2678 3319 
L 3500 3319 
L 3500 341 
Q 3500 -247 3403 -537 
Q 3306 -828 3131 -993 
Q 2956 -1159 2664 -1253 
Q 2372 -1347 1925 -1347 
Q 1081 -1347 728 -1058 
Q 375 -769 375 -325 
Q 375 -281 378 -219 
z
M 1163 1728 
Q 1163 1200 1367 954 
Q 1572 709 1872 709 
Q 2194 709 2416 961 
Q 2638 1213 2638 1706 
Q 2638 2222 2425 2472 
Q 2213 2722 1888 2722 
Q 1572 2722 1367 2476 
Q 1163 2231 1163 1728 
z
" transform="scale(0.015625)"/>
      <path id="Arial-BoldMT-72" d="M 1300 0 
L 422 0 
L 422 3319 
L 1238 3319 
L 1238 2847 
Q 1447 3181 1614 3287 
Q 1781 3394 1994 3394 
Q 2294 3394 2572 3228 
L 2300 2463 
Q 2078 2606 1888 2606 
Q 1703 2606 1575 2504 
Q 1447 2403 1373 2137 
Q 1300 1872 1300 1025 
L 1300 0 
z
" transform="scale(0.015625)"/>
      <path id="Arial-BoldMT-6d" d="M 394 3319 
L 1203 3319 
L 1203 2866 
Q 1638 3394 2238 3394 
Q 2556 3394 2790 3262 
Q 3025 3131 3175 2866 
Q 3394 3131 3647 3262 
Q 3900 3394 4188 3394 
Q 4553 3394 4806 3245 
Q 5059 3097 5184 2809 
Q 5275 2597 5275 2122 
L 5275 0 
L 4397 0 
L 4397 1897 
Q 4397 2391 4306 2534 
Q 4184 2722 3931 2722 
Q 3747 2722 3584 2609 
Q 3422 2497 3350 2280 
Q 3278 2063 3278 1594 
L 3278 0 
L 2400 0 
L 2400 1819 
Q 2400 2303 2353 2443 
Q 2306 2584 2207 2653 
Q 2109 2722 1941 2722 
Q 1738 2722 1575 2612 
Q 1413 2503 1342 2297 
Q 1272 2091 1272 1613 
L 1272 0 
L 394 0 
L 394 3319 
z
" transform="scale(0.015625)"/>
      <path id="Arial-BoldMT-20" transform="scale(0.015625)"/>
      <path id="Arial-BoldMT-64" d="M 3503 0 
L 2688 0 
L 2688 488 
Q 2484 203 2207 64 
Q 1931 -75 1650 -75 
Q 1078 -75 670 386 
Q 263 847 263 1672 
Q 263 2516 659 2955 
Q 1056 3394 1663 3394 
Q 2219 3394 2625 2931 
L 2625 4581 
L 3503 4581 
L 3503 0 
z
M 1159 1731 
Q 1159 1200 1306 963 
Q 1519 619 1900 619 
Q 2203 619 2415 876 
Q 2628 1134 2628 1647 
Q 2628 2219 2422 2470 
Q 2216 2722 1894 2722 
Q 1581 2722 1370 2473 
Q 1159 2225 1159 1731 
z
" transform="scale(0.015625)"/>
      <path id="Arial-BoldMT-65" d="M 2381 1056 
L 3256 909 
Q 3088 428 2723 176 
Q 2359 -75 1813 -75 
Q 947 -75 531 491 
Q 203 944 203 1634 
Q 203 2459 634 2926 
Q 1066 3394 1725 3394 
Q 2466 3394 2894 2905 
Q 3322 2416 3303 1406 
L 1103 1406 
Q 1113 1016 1316 798 
Q 1519 581 1822 581 
Q 2028 581 2168 693 
Q 2309 806 2381 1056 
z
M 2431 1944 
Q 2422 2325 2234 2523 
Q 2047 2722 1778 2722 
Q 1491 2722 1303 2513 
Q 1116 2303 1119 1944 
L 2431 1944 
z
" transform="scale(0.015625)"/>
      <path id="Arial-BoldMT-73" d="M 150 947 
L 1031 1081 
Q 1088 825 1259 692 
Q 1431 559 1741 559 
Q 2081 559 2253 684 
Q 2369 772 2369 919 
Q 2369 1019 2306 1084 
Q 2241 1147 2013 1200 
Q 950 1434 666 1628 
Q 272 1897 272 2375 
Q 272 2806 612 3100 
Q 953 3394 1669 3394 
Q 2350 3394 2681 3172 
Q 3013 2950 3138 2516 
L 2309 2363 
Q 2256 2556 2107 2659 
Q 1959 2763 1684 2763 
Q 1338 2763 1188 2666 
Q 1088 2597 1088 2488 
Q 1088 2394 1175 2328 
Q 1294 2241 1995 2081 
Q 2697 1922 2975 1691 
Q 3250 1456 3250 1038 
Q 3250 581 2869 253 
Q 2488 -75 1741 -75 
Q 1063 -75 667 200 
Q 272 475 150 947 
z
" transform="scale(0.015625)"/>
      <path id="Arial-BoldMT-70" d="M 434 3319 
L 1253 3319 
L 1253 2831 
Q 1413 3081 1684 3237 
Q 1956 3394 2288 3394 
Q 2866 3394 3269 2941 
Q 3672 2488 3672 1678 
Q 3672 847 3265 386 
Q 2859 -75 2281 -75 
Q 2006 -75 1782 34 
Q 1559 144 1313 409 
L 1313 -1263 
L 434 -1263 
L 434 3319 
z
M 1303 1716 
Q 1303 1156 1525 889 
Q 1747 622 2066 622 
Q 2372 622 2575 867 
Q 2778 1113 2778 1672 
Q 2778 2194 2568 2447 
Q 2359 2700 2050 2700 
Q 1728 2700 1515 2451 
Q 1303 2203 1303 1716 
z
" transform="scale(0.015625)"/>
      <path id="Arial-BoldMT-f3" d="M 256 1706 
Q 256 2144 472 2553 
Q 688 2963 1083 3178 
Q 1478 3394 1966 3394 
Q 2719 3394 3200 2905 
Q 3681 2416 3681 1669 
Q 3681 916 3195 420 
Q 2709 -75 1972 -75 
Q 1516 -75 1102 131 
Q 688 338 472 736 
Q 256 1134 256 1706 
z
M 1156 1659 
Q 1156 1166 1390 903 
Q 1625 641 1969 641 
Q 2313 641 2545 903 
Q 2778 1166 2778 1666 
Q 2778 2153 2545 2415 
Q 2313 2678 1969 2678 
Q 1625 2678 1390 2415 
Q 1156 2153 1156 1659 
z
M 1525 3725 
L 1956 4659 
L 2941 4659 
L 2081 3725 
L 1525 3725 
z
" transform="scale(0.015625)"/>
      <path id="Arial-BoldMT-6e" d="M 3478 0 
L 2600 0 
L 2600 1694 
Q 2600 2231 2544 2389 
Q 2488 2547 2361 2634 
Q 2234 2722 2056 2722 
Q 1828 2722 1647 2597 
Q 1466 2472 1398 2265 
Q 1331 2059 1331 1503 
L 1331 0 
L 453 0 
L 453 3319 
L 1269 3319 
L 1269 2831 
Q 1703 3394 2363 3394 
Q 2653 3394 2893 3289 
Q 3134 3184 3257 3021 
Q 3381 2859 3429 2653 
Q 3478 2447 3478 2063 
L 3478 0 
z
" transform="scale(0.015625)"/>
      <path id="Arial-BoldMT-4d" d="M 453 0 
L 453 4581 
L 1838 4581 
L 2669 1456 
L 3491 4581 
L 4878 4581 
L 4878 0 
L 4019 0 
L 4019 3606 
L 3109 0 
L 2219 0 
L 1313 3606 
L 1313 0 
L 453 0 
z
" transform="scale(0.015625)"/>
      <path id="Arial-BoldMT-6f" d="M 256 1706 
Q 256 2144 472 2553 
Q 688 2963 1083 3178 
Q 1478 3394 1966 3394 
Q 2719 3394 3200 2905 
Q 3681 2416 3681 1669 
Q 3681 916 3195 420 
Q 2709 -75 1972 -75 
Q 1516 -75 1102 131 
Q 688 338 472 736 
Q 256 1134 256 1706 
z
M 1156 1659 
Q 1156 1166 1390 903 
Q 1625 641 1969 641 
Q 2313 641 2545 903 
Q 2778 1166 2778 1666 
Q 2778 2153 2545 2415 
Q 2313 2678 1969 2678 
Q 1625 2678 1390 2415 
Q 1156 2153 1156 1659 
z
" transform="scale(0.015625)"/>
     </defs>
     <use xlink:href="#Arial-BoldMT-44"/>
     <use xlink:href="#Arial-BoldMT-69" x="72.216797"/>
     <use xlink:href="#Arial-BoldMT-61" x="100"/>
     <use xlink:href="#Arial-BoldMT-67" x="155.615234"/>
     <use xlink:href="#Arial-BoldMT-72" x="216.699219"/>
     <use xlink:href="#Arial-BoldMT-61" x="255.615234"/>
     <use xlink:href="#Arial-BoldMT-6d" x="311.230469"/>
     <use xlink:href="#Arial-BoldMT-61" x="400.146484"/>
     <use xlink:href="#Arial-BoldMT-20" x="455.761719"/>
     <use xlink:href="#Arial-BoldMT-64" x="483.544922"/>
     <use xlink:href="#Arial-BoldMT-65" x="544.628906"/>
     <use xlink:href="#Arial-BoldMT-20" x="600.244141"/>
     <use xlink:href="#Arial-BoldMT-44" x="628.027344"/>
     <use xlink:href="#Arial-BoldMT-69" x="700.244141"/>
     <use xlink:href="#Arial-BoldMT-73" x="728.027344"/>
     <use xlink:href="#Arial-BoldMT-70" x="783.642578"/>
     <use xlink:href="#Arial-BoldMT-65" x="844.726562"/>
     <use xlink:href="#Arial-BoldMT-72" x="900.341797"/>
     <use xlink:href="#Arial-BoldMT-73" x="939.257812"/>
     <use xlink:href="#Arial-BoldMT-69" x="994.873047"/>
     <use xlink:href="#Arial-BoldMT-f3" x="1022.65625"/>
     <use xlink:href="#Arial-BoldMT-6e" x="1083.740234"/>
     <use xlink:href="#Arial-BoldMT-20" x="1144.824219"/>
     <use xlink:href="#Arial-BoldMT-64" x="1172.607422"/>
     <use xlink:href="#Arial-BoldMT-65" x="1233.691406"/>
     <use xlink:href="#Arial-BoldMT-20" x="1289.306641"/>
     <use xlink:href="#Arial-BoldMT-4d" x="1317.089844"/>
     <use xlink:href="#Arial-BoldMT-6f" x="1400.390625"/>
     <use xlink:href="#Arial-BoldMT-72" x="1461.474609"/>
     <use xlink:href="#Arial-BoldMT-61" x="1500.390625"/>
     <use xlink:href="#Arial-BoldMT-6e" x="1556.005859"/>
    </g>
   </g>
  </g>
  <g id="axes_2">
   <g id="patch_7">
    <path d="M 564.335377 387.159062 
L 993.855625 387.159062 
L 993.855625 23.391562 
L 564.335377 23.391562 
z
" style="fill: #ffffff"/>
   </g>
   <g id="matplotlib.axis_3">
    <g id="xtick_6">
     <g id="line2d_13">
      <path d="M 600.983557 387.159062 
L 600.983557 23.391562 
" clip-path="url(#pc750f7e0c8)" style="fill: none; stroke: #cccccc; stroke-width: 0.8; stroke-linecap: round"/>
     </g>
     <g id="text_30">
      <!-- −0.4 -->
      <g style="fill: #262626" transform="translate(591.113244 401.316875) scale(0.1 -0.1)">
       <defs>
        <path id="ArialMT-34" d="M 2069 0 
L 2069 1097 
L 81 1097 
L 81 1613 
L 2172 4581 
L 2631 4581 
L 2631 1613 
L 3250 1613 
L 3250 1097 
L 2631 1097 
L 2631 0 
L 2069 0 
z
M 2069 1613 
L 2069 3678 
L 634 1613 
L 2069 1613 
z
" transform="scale(0.015625)"/>
       </defs>
       <use xlink:href="#ArialMT-2212"/>
       <use xlink:href="#ArialMT-30" x="58.398438"/>
       <use xlink:href="#ArialMT-2e" x="114.013672"/>
       <use xlink:href="#ArialMT-34" x="141.796875"/>
      </g>
     </g>
    </g>
    <g id="xtick_7">
     <g id="line2d_14">
      <path d="M 685.912794 387.159062 
L 685.912794 23.391562 
" clip-path="url(#pc750f7e0c8)" style="fill: none; stroke: #cccccc; stroke-width: 0.8; stroke-linecap: round"/>
     </g>
     <g id="text_31">
      <!-- −0.2 -->
      <g style="fill: #262626" transform="translate(676.042481 401.316875) scale(0.1 -0.1)">
       <use xlink:href="#ArialMT-2212"/>
       <use xlink:href="#ArialMT-30" x="58.398438"/>
       <use xlink:href="#ArialMT-2e" x="114.013672"/>
       <use xlink:href="#ArialMT-32" x="141.796875"/>
      </g>
     </g>
    </g>
    <g id="xtick_8">
     <g id="line2d_15">
      <path d="M 770.842031 387.159062 
L 770.842031 23.391562 
" clip-path="url(#pc750f7e0c8)" style="fill: none; stroke: #cccccc; stroke-width: 0.8; stroke-linecap: round"/>
     </g>
     <g id="text_32">
      <!-- 0.0 -->
      <g style="fill: #262626" transform="translate(763.892031 401.316875) scale(0.1 -0.1)">
       <use xlink:href="#ArialMT-30"/>
       <use xlink:href="#ArialMT-2e" x="55.615234"/>
       <use xlink:href="#ArialMT-30" x="83.398438"/>
      </g>
     </g>
    </g>
    <g id="xtick_9">
     <g id="line2d_16">
      <path d="M 855.771268 387.159062 
L 855.771268 23.391562 
" clip-path="url(#pc750f7e0c8)" style="fill: none; stroke: #cccccc; stroke-width: 0.8; stroke-linecap: round"/>
     </g>
     <g id="text_33">
      <!-- 0.2 -->
      <g style="fill: #262626" transform="translate(848.821268 401.316875) scale(0.1 -0.1)">
       <use xlink:href="#ArialMT-30"/>
       <use xlink:href="#ArialMT-2e" x="55.615234"/>
       <use xlink:href="#ArialMT-32" x="83.398438"/>
      </g>
     </g>
    </g>
    <g id="xtick_10">
     <g id="line2d_17">
      <path d="M 940.700506 387.159062 
L 940.700506 23.391562 
" clip-path="url(#pc750f7e0c8)" style="fill: none; stroke: #cccccc; stroke-width: 0.8; stroke-linecap: round"/>
     </g>
     <g id="text_34">
      <!-- 0.4 -->
      <g style="fill: #262626" transform="translate(933.750506 401.316875) scale(0.1 -0.1)">
       <use xlink:href="#ArialMT-30"/>
       <use xlink:href="#ArialMT-2e" x="55.615234"/>
       <use xlink:href="#ArialMT-34" x="83.398438"/>
      </g>
     </g>
    </g>
    <g id="text_35">
     <!-- Índices de Moran simulados -->
     <g style="fill: #262626" transform="translate(704.396439 415.89375) scale(0.12 -0.12)">
      <defs>
       <path id="ArialMT-cd" d="M 597 0 
L 597 4581 
L 1203 4581 
L 1203 0 
L 597 0 
z
M 441 4862 
L 856 5737 
L 1594 5737 
L 906 4862 
L 441 4862 
z
" transform="scale(0.015625)"/>
      </defs>
      <use xlink:href="#ArialMT-cd"/>
      <use xlink:href="#ArialMT-6e" x="27.783203"/>
      <use xlink:href="#ArialMT-64" x="83.398438"/>
      <use xlink:href="#ArialMT-69" x="139.013672"/>
      <use xlink:href="#ArialMT-63" x="161.230469"/>
      <use xlink:href="#ArialMT-65" x="211.230469"/>
      <use xlink:href="#ArialMT-73" x="266.845703"/>
      <use xlink:href="#ArialMT-20" x="316.845703"/>
      <use xlink:href="#ArialMT-64" x="344.628906"/>
      <use xlink:href="#ArialMT-65" x="400.244141"/>
      <use xlink:href="#ArialMT-20" x="455.859375"/>
      <use xlink:href="#ArialMT-4d" x="483.642578"/>
      <use xlink:href="#ArialMT-6f" x="566.943359"/>
      <use xlink:href="#ArialMT-72" x="622.558594"/>
      <use xlink:href="#ArialMT-61" x="655.859375"/>
      <use xlink:href="#ArialMT-6e" x="711.474609"/>
      <use xlink:href="#ArialMT-20" x="767.089844"/>
      <use xlink:href="#ArialMT-73" x="794.873047"/>
      <use xlink:href="#ArialMT-69" x="844.873047"/>
      <use xlink:href="#ArialMT-6d" x="867.089844"/>
      <use xlink:href="#ArialMT-75" x="950.390625"/>
      <use xlink:href="#ArialMT-6c" x="1006.005859"/>
      <use xlink:href="#ArialMT-61" x="1028.222656"/>
      <use xlink:href="#ArialMT-64" x="1083.837891"/>
      <use xlink:href="#ArialMT-6f" x="1139.453125"/>
      <use xlink:href="#ArialMT-73" x="1195.068359"/>
     </g>
    </g>
   </g>
   <g id="matplotlib.axis_4">
    <g id="ytick_5">
     <g id="line2d_18">
      <path d="M 564.335377 387.159062 
L 993.855625 387.159062 
" clip-path="url(#pc750f7e0c8)" style="fill: none; stroke: #cccccc; stroke-width: 0.8; stroke-linecap: round"/>
     </g>
     <g id="text_36">
      <!-- 0 -->
      <g style="fill: #262626" transform="translate(551.77444 390.737969) scale(0.1 -0.1)">
       <use xlink:href="#ArialMT-30"/>
      </g>
     </g>
    </g>
    <g id="ytick_6">
     <g id="line2d_19">
      <path d="M 564.335377 313.54129 
L 993.855625 313.54129 
" clip-path="url(#pc750f7e0c8)" style="fill: none; stroke: #cccccc; stroke-width: 0.8; stroke-linecap: round"/>
     </g>
     <g id="text_37">
      <!-- 2000 -->
      <g style="fill: #262626" transform="translate(535.091627 317.120196) scale(0.1 -0.1)">
       <use xlink:href="#ArialMT-32"/>
       <use xlink:href="#ArialMT-30" x="55.615234"/>
       <use xlink:href="#ArialMT-30" x="111.230469"/>
       <use xlink:href="#ArialMT-30" x="166.845703"/>
      </g>
     </g>
    </g>
    <g id="ytick_7">
     <g id="line2d_20">
      <path d="M 564.335377 239.923517 
L 993.855625 239.923517 
" clip-path="url(#pc750f7e0c8)" style="fill: none; stroke: #cccccc; stroke-width: 0.8; stroke-linecap: round"/>
     </g>
     <g id="text_38">
      <!-- 4000 -->
      <g style="fill: #262626" transform="translate(535.091627 243.502423) scale(0.1 -0.1)">
       <use xlink:href="#ArialMT-34"/>
       <use xlink:href="#ArialMT-30" x="55.615234"/>
       <use xlink:href="#ArialMT-30" x="111.230469"/>
       <use xlink:href="#ArialMT-30" x="166.845703"/>
      </g>
     </g>
    </g>
    <g id="ytick_8">
     <g id="line2d_21">
      <path d="M 564.335377 166.305745 
L 993.855625 166.305745 
" clip-path="url(#pc750f7e0c8)" style="fill: none; stroke: #cccccc; stroke-width: 0.8; stroke-linecap: round"/>
     </g>
     <g id="text_39">
      <!-- 6000 -->
      <g style="fill: #262626" transform="translate(535.091627 169.884651) scale(0.1 -0.1)">
       <defs>
        <path id="ArialMT-36" d="M 3184 3459 
L 2625 3416 
Q 2550 3747 2413 3897 
Q 2184 4138 1850 4138 
Q 1581 4138 1378 3988 
Q 1113 3794 959 3422 
Q 806 3050 800 2363 
Q 1003 2672 1297 2822 
Q 1591 2972 1913 2972 
Q 2475 2972 2870 2558 
Q 3266 2144 3266 1488 
Q 3266 1056 3080 686 
Q 2894 316 2569 119 
Q 2244 -78 1831 -78 
Q 1128 -78 684 439 
Q 241 956 241 2144 
Q 241 3472 731 4075 
Q 1159 4600 1884 4600 
Q 2425 4600 2770 4297 
Q 3116 3994 3184 3459 
z
M 888 1484 
Q 888 1194 1011 928 
Q 1134 663 1356 523 
Q 1578 384 1822 384 
Q 2178 384 2434 671 
Q 2691 959 2691 1453 
Q 2691 1928 2437 2201 
Q 2184 2475 1800 2475 
Q 1419 2475 1153 2201 
Q 888 1928 888 1484 
z
" transform="scale(0.015625)"/>
       </defs>
       <use xlink:href="#ArialMT-36"/>
       <use xlink:href="#ArialMT-30" x="55.615234"/>
       <use xlink:href="#ArialMT-30" x="111.230469"/>
       <use xlink:href="#ArialMT-30" x="166.845703"/>
      </g>
     </g>
    </g>
    <g id="ytick_9">
     <g id="line2d_22">
      <path d="M 564.335377 92.687972 
L 993.855625 92.687972 
" clip-path="url(#pc750f7e0c8)" style="fill: none; stroke: #cccccc; stroke-width: 0.8; stroke-linecap: round"/>
     </g>
     <g id="text_40">
      <!-- 8000 -->
      <g style="fill: #262626" transform="translate(535.091627 96.266878) scale(0.1 -0.1)">
       <defs>
        <path id="ArialMT-38" d="M 1131 2484 
Q 781 2613 612 2850 
Q 444 3088 444 3419 
Q 444 3919 803 4259 
Q 1163 4600 1759 4600 
Q 2359 4600 2725 4251 
Q 3091 3903 3091 3403 
Q 3091 3084 2923 2848 
Q 2756 2613 2416 2484 
Q 2838 2347 3058 2040 
Q 3278 1734 3278 1309 
Q 3278 722 2862 322 
Q 2447 -78 1769 -78 
Q 1091 -78 675 323 
Q 259 725 259 1325 
Q 259 1772 486 2073 
Q 713 2375 1131 2484 
z
M 1019 3438 
Q 1019 3113 1228 2906 
Q 1438 2700 1772 2700 
Q 2097 2700 2305 2904 
Q 2513 3109 2513 3406 
Q 2513 3716 2298 3927 
Q 2084 4138 1766 4138 
Q 1444 4138 1231 3931 
Q 1019 3725 1019 3438 
z
M 838 1322 
Q 838 1081 952 856 
Q 1066 631 1291 507 
Q 1516 384 1775 384 
Q 2178 384 2440 643 
Q 2703 903 2703 1303 
Q 2703 1709 2433 1975 
Q 2163 2241 1756 2241 
Q 1359 2241 1098 1978 
Q 838 1716 838 1322 
z
" transform="scale(0.015625)"/>
       </defs>
       <use xlink:href="#ArialMT-38"/>
       <use xlink:href="#ArialMT-30" x="55.615234"/>
       <use xlink:href="#ArialMT-30" x="111.230469"/>
       <use xlink:href="#ArialMT-30" x="166.845703"/>
      </g>
     </g>
    </g>
    <g id="text_41">
     <!-- Frecuencia -->
     <g style="fill: #262626" transform="translate(528.706627 234.95375) rotate(-90) scale(0.12 -0.12)">
      <defs>
       <path id="ArialMT-46" d="M 525 0 
L 525 4581 
L 3616 4581 
L 3616 4041 
L 1131 4041 
L 1131 2622 
L 3281 2622 
L 3281 2081 
L 1131 2081 
L 1131 0 
L 525 0 
z
" transform="scale(0.015625)"/>
      </defs>
      <use xlink:href="#ArialMT-46"/>
      <use xlink:href="#ArialMT-72" x="61.083984"/>
      <use xlink:href="#ArialMT-65" x="94.384766"/>
      <use xlink:href="#ArialMT-63" x="150"/>
      <use xlink:href="#ArialMT-75" x="200"/>
      <use xlink:href="#ArialMT-65" x="255.615234"/>
      <use xlink:href="#ArialMT-6e" x="311.230469"/>
      <use xlink:href="#ArialMT-63" x="366.845703"/>
      <use xlink:href="#ArialMT-69" x="416.845703"/>
      <use xlink:href="#ArialMT-61" x="439.0625"/>
     </g>
    </g>
   </g>
   <g id="patch_8">
    <path d="M 583.859025 387.159062 
L 596.87479 387.159062 
L 596.87479 386.790974 
L 583.859025 386.790974 
z
" clip-path="url(#pc750f7e0c8)" style="fill: #669bbc; opacity: 0.8; stroke: #ffffff; stroke-linejoin: miter"/>
   </g>
   <g id="patch_9">
    <path d="M 596.87479 387.159062 
L 609.890555 387.159062 
L 609.890555 384.950529 
L 596.87479 384.950529 
z
" clip-path="url(#pc750f7e0c8)" style="fill: #669bbc; opacity: 0.8; stroke: #ffffff; stroke-linejoin: miter"/>
   </g>
   <g id="patch_10">
    <path d="M 609.890555 387.159062 
L 622.90632 387.159062 
L 622.90632 377.257472 
L 609.890555 377.257472 
z
" clip-path="url(#pc750f7e0c8)" style="fill: #669bbc; opacity: 0.8; stroke: #ffffff; stroke-linejoin: miter"/>
   </g>
   <g id="patch_11">
    <path d="M 622.90632 387.159062 
L 635.922085 387.159062 
L 635.922085 358.558558 
L 622.90632 358.558558 
z
" clip-path="url(#pc750f7e0c8)" style="fill: #669bbc; opacity: 0.8; stroke: #ffffff; stroke-linejoin: miter"/>
   </g>
   <g id="patch_12">
    <path d="M 635.922085 387.159062 
L 648.93785 387.159062 
L 648.93785 325.320133 
L 635.922085 325.320133 
z
" clip-path="url(#pc750f7e0c8)" style="fill: #669bbc; opacity: 0.8; stroke: #ffffff; stroke-linejoin: miter"/>
   </g>
   <g id="patch_13">
    <path d="M 648.93785 387.159062 
L 661.953615 387.159062 
L 661.953615 273.014706 
L 648.93785 273.014706 
z
" clip-path="url(#pc750f7e0c8)" style="fill: #669bbc; opacity: 0.8; stroke: #ffffff; stroke-linejoin: miter"/>
   </g>
   <g id="patch_14">
    <path d="M 661.953615 387.159062 
L 674.96938 387.159062 
L 674.96938 212.905795 
L 661.953615 212.905795 
z
" clip-path="url(#pc750f7e0c8)" style="fill: #669bbc; opacity: 0.8; stroke: #ffffff; stroke-linejoin: miter"/>
   </g>
   <g id="patch_15">
    <path d="M 674.96938 387.159062 
L 687.985145 387.159062 
L 687.985145 149.59451 
L 674.96938 149.59451 
z
" clip-path="url(#pc750f7e0c8)" style="fill: #669bbc; opacity: 0.8; stroke: #ffffff; stroke-linejoin: miter"/>
   </g>
   <g id="patch_16">
    <path d="M 687.985145 387.159062 
L 701.00091 387.159062 
L 701.00091 92.135839 
L 687.985145 92.135839 
z
" clip-path="url(#pc750f7e0c8)" style="fill: #669bbc; opacity: 0.8; stroke: #ffffff; stroke-linejoin: miter"/>
   </g>
   <g id="patch_17">
    <path d="M 701.00091 387.159062 
L 714.016676 387.159062 
L 714.016676 52.050961 
L 701.00091 52.050961 
z
" clip-path="url(#pc750f7e0c8)" style="fill: #669bbc; opacity: 0.8; stroke: #ffffff; stroke-linejoin: miter"/>
   </g>
   <g id="patch_18">
    <path d="M 714.016676 387.159062 
L 727.032441 387.159062 
L 727.032441 40.713824 
L 714.016676 40.713824 
z
" clip-path="url(#pc750f7e0c8)" style="fill: #669bbc; opacity: 0.8; stroke: #ffffff; stroke-linejoin: miter"/>
   </g>
   <g id="patch_19">
    <path d="M 727.032441 387.159062 
L 740.048206 387.159062 
L 740.048206 44.689184 
L 727.032441 44.689184 
z
" clip-path="url(#pc750f7e0c8)" style="fill: #669bbc; opacity: 0.8; stroke: #ffffff; stroke-linejoin: miter"/>
   </g>
   <g id="patch_20">
    <path d="M 740.048206 387.159062 
L 753.063971 387.159062 
L 753.063971 75.535031 
L 740.048206 75.535031 
z
" clip-path="url(#pc750f7e0c8)" style="fill: #669bbc; opacity: 0.8; stroke: #ffffff; stroke-linejoin: miter"/>
   </g>
   <g id="patch_21">
    <path d="M 753.063971 387.159062 
L 766.079736 387.159062 
L 766.079736 104.172344 
L 753.063971 104.172344 
z
" clip-path="url(#pc750f7e0c8)" style="fill: #669bbc; opacity: 0.8; stroke: #ffffff; stroke-linejoin: miter"/>
   </g>
   <g id="patch_22">
    <path d="M 766.079736 387.159062 
L 779.095501 387.159062 
L 779.095501 152.355177 
L 766.079736 152.355177 
z
" clip-path="url(#pc750f7e0c8)" style="fill: #669bbc; opacity: 0.8; stroke: #ffffff; stroke-linejoin: miter"/>
   </g>
   <g id="patch_23">
    <path d="M 779.095501 387.159062 
L 792.111266 387.159062 
L 792.111266 189.127254 
L 779.095501 189.127254 
z
" clip-path="url(#pc750f7e0c8)" style="fill: #669bbc; opacity: 0.8; stroke: #ffffff; stroke-linejoin: miter"/>
   </g>
   <g id="patch_24">
    <path d="M 792.111266 387.159062 
L 805.127031 387.159062 
L 805.127031 224.095696 
L 792.111266 224.095696 
z
" clip-path="url(#pc750f7e0c8)" style="fill: #669bbc; opacity: 0.8; stroke: #ffffff; stroke-linejoin: miter"/>
   </g>
   <g id="patch_25">
    <path d="M 805.127031 387.159062 
L 818.142796 387.159062 
L 818.142796 257.554974 
L 805.127031 257.554974 
z
" clip-path="url(#pc750f7e0c8)" style="fill: #669bbc; opacity: 0.8; stroke: #ffffff; stroke-linejoin: miter"/>
   </g>
   <g id="patch_26">
    <path d="M 818.142796 387.159062 
L 831.158561 387.159062 
L 831.158561 279.861159 
L 818.142796 279.861159 
z
" clip-path="url(#pc750f7e0c8)" style="fill: #669bbc; opacity: 0.8; stroke: #ffffff; stroke-linejoin: miter"/>
   </g>
   <g id="patch_27">
    <path d="M 831.158561 387.159062 
L 844.174326 387.159062 
L 844.174326 303.786935 
L 831.158561 303.786935 
z
" clip-path="url(#pc750f7e0c8)" style="fill: #669bbc; opacity: 0.8; stroke: #ffffff; stroke-linejoin: miter"/>
   </g>
   <g id="patch_28">
    <path d="M 844.174326 387.159062 
L 857.190092 387.159062 
L 857.190092 319.725183 
L 844.174326 319.725183 
z
" clip-path="url(#pc750f7e0c8)" style="fill: #669bbc; opacity: 0.8; stroke: #ffffff; stroke-linejoin: miter"/>
   </g>
   <g id="patch_29">
    <path d="M 857.190092 387.159062 
L 870.205857 387.159062 
L 870.205857 336.068328 
L 857.190092 336.068328 
z
" clip-path="url(#pc750f7e0c8)" style="fill: #669bbc; opacity: 0.8; stroke: #ffffff; stroke-linejoin: miter"/>
   </g>
   <g id="patch_30">
    <path d="M 870.205857 387.159062 
L 883.221622 387.159062 
L 883.221622 349.90847 
L 870.205857 349.90847 
z
" clip-path="url(#pc750f7e0c8)" style="fill: #669bbc; opacity: 0.8; stroke: #ffffff; stroke-linejoin: miter"/>
   </g>
   <g id="patch_31">
    <path d="M 883.221622 387.159062 
L 896.237387 387.159062 
L 896.237387 360.656664 
L 883.221622 360.656664 
z
" clip-path="url(#pc750f7e0c8)" style="fill: #669bbc; opacity: 0.8; stroke: #ffffff; stroke-linejoin: miter"/>
   </g>
   <g id="patch_32">
    <path d="M 896.237387 387.159062 
L 909.253152 387.159062 
L 909.253152 369.012282 
L 896.237387 369.012282 
z
" clip-path="url(#pc750f7e0c8)" style="fill: #669bbc; opacity: 0.8; stroke: #ffffff; stroke-linejoin: miter"/>
   </g>
   <g id="patch_33">
    <path d="M 909.253152 387.159062 
L 922.268917 387.159062 
L 922.268917 376.447677 
L 909.253152 376.447677 
z
" clip-path="url(#pc750f7e0c8)" style="fill: #669bbc; opacity: 0.8; stroke: #ffffff; stroke-linejoin: miter"/>
   </g>
   <g id="patch_34">
    <path d="M 922.268917 387.159062 
L 935.284682 387.159062 
L 935.284682 380.901552 
L 922.268917 380.901552 
z
" clip-path="url(#pc750f7e0c8)" style="fill: #669bbc; opacity: 0.8; stroke: #ffffff; stroke-linejoin: miter"/>
   </g>
   <g id="patch_35">
    <path d="M 935.284682 387.159062 
L 948.300447 387.159062 
L 948.300447 384.398396 
L 935.284682 384.398396 
z
" clip-path="url(#pc750f7e0c8)" style="fill: #669bbc; opacity: 0.8; stroke: #ffffff; stroke-linejoin: miter"/>
   </g>
   <g id="patch_36">
    <path d="M 948.300447 387.159062 
L 961.316212 387.159062 
L 961.316212 385.649898 
L 948.300447 385.649898 
z
" clip-path="url(#pc750f7e0c8)" style="fill: #669bbc; opacity: 0.8; stroke: #ffffff; stroke-linejoin: miter"/>
   </g>
   <g id="patch_37">
    <path d="M 961.316212 387.159062 
L 974.331977 387.159062 
L 974.331977 386.680547 
L 961.316212 386.680547 
z
" clip-path="url(#pc750f7e0c8)" style="fill: #669bbc; opacity: 0.8; stroke: #ffffff; stroke-linejoin: miter"/>
   </g>
   <g id="line2d_23">
    <path d="M 863.785942 387.159062 
L 863.785942 23.391562 
" clip-path="url(#pc750f7e0c8)" style="fill: none; stroke: #ff0000; stroke-width: 2; stroke-linecap: round"/>
   </g>
   <g id="patch_38">
    <path d="M 564.335377 387.159062 
L 564.335377 23.391562 
" style="fill: none; stroke: #cccccc; stroke-width: 0.8; stroke-linejoin: miter; stroke-linecap: square"/>
   </g>
   <g id="patch_39">
    <path d="M 993.855625 387.159062 
L 993.855625 23.391562 
" style="fill: none; stroke: #cccccc; stroke-width: 0.8; stroke-linejoin: miter; stroke-linecap: square"/>
   </g>
   <g id="patch_40">
    <path d="M 564.335377 387.159062 
L 993.855625 387.159062 
" style="fill: none; stroke: #cccccc; stroke-width: 0.8; stroke-linejoin: miter; stroke-linecap: square"/>
   </g>
   <g id="patch_41">
    <path d="M 564.335377 23.391562 
L 993.855625 23.391562 
" style="fill: none; stroke: #cccccc; stroke-width: 0.8; stroke-linejoin: miter; stroke-linecap: square"/>
   </g>
   <g id="text_42">
    <!-- Histograma de simulación -->
    <g style="fill: #262626" transform="translate(691.966282 17.391562) scale(0.14 -0.14)">
     <defs>
      <path id="Arial-BoldMT-48" d="M 469 0 
L 469 4581 
L 1394 4581 
L 1394 2778 
L 3206 2778 
L 3206 4581 
L 4131 4581 
L 4131 0 
L 3206 0 
L 3206 2003 
L 1394 2003 
L 1394 0 
L 469 0 
z
" transform="scale(0.015625)"/>
      <path id="Arial-BoldMT-74" d="M 1981 3319 
L 1981 2619 
L 1381 2619 
L 1381 1281 
Q 1381 875 1398 808 
Q 1416 741 1477 697 
Q 1538 653 1625 653 
Q 1747 653 1978 738 
L 2053 56 
Q 1747 -75 1359 -75 
Q 1122 -75 931 4 
Q 741 84 652 211 
Q 563 338 528 553 
Q 500 706 500 1172 
L 500 2619 
L 97 2619 
L 97 3319 
L 500 3319 
L 500 3978 
L 1381 4491 
L 1381 3319 
L 1981 3319 
z
" transform="scale(0.015625)"/>
      <path id="Arial-BoldMT-75" d="M 2644 0 
L 2644 497 
Q 2463 231 2167 78 
Q 1872 -75 1544 -75 
Q 1209 -75 943 72 
Q 678 219 559 484 
Q 441 750 441 1219 
L 441 3319 
L 1319 3319 
L 1319 1794 
Q 1319 1094 1367 936 
Q 1416 778 1544 686 
Q 1672 594 1869 594 
Q 2094 594 2272 717 
Q 2450 841 2515 1023 
Q 2581 1206 2581 1919 
L 2581 3319 
L 3459 3319 
L 3459 0 
L 2644 0 
z
" transform="scale(0.015625)"/>
      <path id="Arial-BoldMT-6c" d="M 459 0 
L 459 4581 
L 1338 4581 
L 1338 0 
L 459 0 
z
" transform="scale(0.015625)"/>
      <path id="Arial-BoldMT-63" d="M 3353 2338 
L 2488 2181 
Q 2444 2441 2289 2572 
Q 2134 2703 1888 2703 
Q 1559 2703 1364 2476 
Q 1169 2250 1169 1719 
Q 1169 1128 1367 884 
Q 1566 641 1900 641 
Q 2150 641 2309 783 
Q 2469 925 2534 1272 
L 3397 1125 
Q 3263 531 2881 228 
Q 2500 -75 1859 -75 
Q 1131 -75 698 384 
Q 266 844 266 1656 
Q 266 2478 700 2936 
Q 1134 3394 1875 3394 
Q 2481 3394 2839 3133 
Q 3197 2872 3353 2338 
z
" transform="scale(0.015625)"/>
     </defs>
     <use xlink:href="#Arial-BoldMT-48"/>
     <use xlink:href="#Arial-BoldMT-69" x="72.216797"/>
     <use xlink:href="#Arial-BoldMT-73" x="100"/>
     <use xlink:href="#Arial-BoldMT-74" x="155.615234"/>
     <use xlink:href="#Arial-BoldMT-6f" x="188.916016"/>
     <use xlink:href="#Arial-BoldMT-67" x="250"/>
     <use xlink:href="#Arial-BoldMT-72" x="311.083984"/>
     <use xlink:href="#Arial-BoldMT-61" x="350"/>
     <use xlink:href="#Arial-BoldMT-6d" x="405.615234"/>
     <use xlink:href="#Arial-BoldMT-61" x="494.53125"/>
     <use xlink:href="#Arial-BoldMT-20" x="550.146484"/>
     <use xlink:href="#Arial-BoldMT-64" x="577.929688"/>
     <use xlink:href="#Arial-BoldMT-65" x="639.013672"/>
     <use xlink:href="#Arial-BoldMT-20" x="694.628906"/>
     <use xlink:href="#Arial-BoldMT-73" x="722.412109"/>
     <use xlink:href="#Arial-BoldMT-69" x="778.027344"/>
     <use xlink:href="#Arial-BoldMT-6d" x="805.810547"/>
     <use xlink:href="#Arial-BoldMT-75" x="894.726562"/>
     <use xlink:href="#Arial-BoldMT-6c" x="955.810547"/>
     <use xlink:href="#Arial-BoldMT-61" x="983.59375"/>
     <use xlink:href="#Arial-BoldMT-63" x="1039.208984"/>
     <use xlink:href="#Arial-BoldMT-69" x="1094.824219"/>
     <use xlink:href="#Arial-BoldMT-f3" x="1122.607422"/>
     <use xlink:href="#Arial-BoldMT-6e" x="1183.691406"/>
    </g>
   </g>
   <g id="legend_1">
    <g id="patch_42">
     <path d="M 873.349375 50.001562 
L 985.455625 50.001562 
Q 987.855625 50.001562 987.855625 47.601562 
L 987.855625 31.791562 
Q 987.855625 29.391562 985.455625 29.391562 
L 873.349375 29.391562 
Q 870.949375 29.391562 870.949375 31.791562 
L 870.949375 47.601562 
Q 870.949375 50.001562 873.349375 50.001562 
z
" style="fill: #ffffff; opacity: 0.8; stroke: #cccccc; stroke-linejoin: miter"/>
    </g>
    <g id="line2d_24">
     <path d="M 875.749375 38.616562 
L 887.749375 38.616562 
L 899.749375 38.616562 
" style="fill: none; stroke: #ff0000; stroke-width: 2; stroke-linecap: round"/>
    </g>
    <g id="text_43">
     <!-- p-valor = 0.03 -->
     <g style="fill: #262626" transform="translate(909.349375 42.816562) scale(0.12 -0.12)">
      <defs>
       <path id="ArialMT-2d" d="M 203 1375 
L 203 1941 
L 1931 1941 
L 1931 1375 
L 203 1375 
z
" transform="scale(0.015625)"/>
      </defs>
      <use xlink:href="#ArialMT-70"/>
      <use xlink:href="#ArialMT-2d" x="55.615234"/>
      <use xlink:href="#ArialMT-76" x="88.916016"/>
      <use xlink:href="#ArialMT-61" x="138.916016"/>
      <use xlink:href="#ArialMT-6c" x="194.53125"/>
      <use xlink:href="#ArialMT-6f" x="216.748047"/>
      <use xlink:href="#ArialMT-72" x="272.363281"/>
      <use xlink:href="#ArialMT-20" x="305.664062"/>
      <use xlink:href="#ArialMT-3d" x="333.447266"/>
      <use xlink:href="#ArialMT-20" x="391.845703"/>
      <use xlink:href="#ArialMT-30" x="419.628906"/>
      <use xlink:href="#ArialMT-2e" x="475.244141"/>
      <use xlink:href="#ArialMT-30" x="503.027344"/>
      <use xlink:href="#ArialMT-33" x="558.642578"/>
     </g>
    </g>
   </g>
  </g>
 </g>
 <defs>
  <clipPath id="p4ad8596df0">
   <rect x="49.055625" y="23.391562" width="429.520248" height="363.7675"/>
  </clipPath>
  <clipPath id="pc750f7e0c8">
   <rect x="564.335377" y="23.391562" width="429.520248" height="363.7675"/>
  </clipPath>
 </defs>
</svg>
