<?xml version="1.0" encoding="utf-8" standalone="no"?>
<!DOCTYPE svg PUBLIC "-//W3C//DTD SVG 1.1//EN"
  "http://www.w3.org/Graphics/SVG/1.1/DTD/svg11.dtd">
<svg xmlns:xlink="http://www.w3.org/1999/xlink" width="418.315568pt" height="243.138276pt" viewBox="0 0 418.315568 243.138276" xmlns="http://www.w3.org/2000/svg" version="1.1">
 <metadata>
  <rdf:RDF xmlns:dc="http://purl.org/dc/elements/1.1/" xmlns:cc="http://creativecommons.org/ns#" xmlns:rdf="http://www.w3.org/1999/02/22-rdf-syntax-ns#">
   <cc:Work>
    <dc:type rdf:resource="http://purl.org/dc/dcmitype/StillImage"/>
    <dc:date>2025-03-30T20:47:44.734143</dc:date>
    <dc:format>image/svg+xml</dc:format>
    <dc:creator>
     <cc:Agent>
      <dc:title>Matplotlib v3.9.2, https://matplotlib.org/</dc:title>
     </cc:Agent>
    </dc:creator>
   </cc:Work>
  </rdf:RDF>
 </metadata>
 <defs>
  <style type="text/css">*{stroke-linejoin: round; stroke-linecap: butt}</style>
 </defs>
 <g id="figure_1">
  <g id="patch_1">
   <path d="M 0 243.138276 
L 418.315568 243.138276 
L 418.315568 0 
L 0 0 
z
" style="fill: #ffffff"/>
  </g>
  <g id="axes_1">
   <g id="patch_2">
    <path d="M 63.855625 197.884772 
L 398.655625 197.884772 
L 398.655625 23.220937 
L 63.855625 23.220937 
z
" style="fill: #ffffff"/>
   </g>
   <g id="matplotlib.axis_1">
    <g id="xtick_1">
     <g id="line2d_1">
      <path d="M 86.781526 197.884772 
L 86.781526 23.220937 
" clip-path="url(#p36aff2d324)" style="fill: none; stroke: #cccccc; stroke-width: 0.8; stroke-linecap: round"/>
     </g>
     <g id="line2d_2">
      <defs>
       <path id="m03c466cee4" d="M 0 0 
L 0 3.5 
" style="stroke: #262626; stroke-width: 0.8"/>
      </defs>
      <g>
       <use xlink:href="#m03c466cee4" x="86.781526" y="206.617963" style="fill: #262626; stroke: #262626; stroke-width: 0.8"/>
      </g>
     </g>
     <g id="text_1">
      <!-- −1.0 -->
      <g style="fill: #262626" transform="translate(76.911214 220.775776) scale(0.1 -0.1)">
       <defs>
        <path id="ArialMT-2212" d="M 3381 1997 
L 356 1997 
L 356 2522 
L 3381 2522 
L 3381 1997 
z
" transform="scale(0.015625)"/>
        <path id="ArialMT-31" d="M 2384 0 
L 1822 0 
L 1822 3584 
Q 1619 3391 1289 3197 
Q 959 3003 697 2906 
L 697 3450 
Q 1169 3672 1522 3987 
Q 1875 4303 2022 4600 
L 2384 4600 
L 2384 0 
z
" transform="scale(0.015625)"/>
        <path id="ArialMT-2e" d="M 581 0 
L 581 641 
L 1222 641 
L 1222 0 
L 581 0 
z
" transform="scale(0.015625)"/>
        <path id="ArialMT-30" d="M 266 2259 
Q 266 3072 433 3567 
Q 600 4063 929 4331 
Q 1259 4600 1759 4600 
Q 2128 4600 2406 4451 
Q 2684 4303 2865 4023 
Q 3047 3744 3150 3342 
Q 3253 2941 3253 2259 
Q 3253 1453 3087 958 
Q 2922 463 2592 192 
Q 2263 -78 1759 -78 
Q 1097 -78 719 397 
Q 266 969 266 2259 
z
M 844 2259 
Q 844 1131 1108 757 
Q 1372 384 1759 384 
Q 2147 384 2411 759 
Q 2675 1134 2675 2259 
Q 2675 3391 2411 3762 
Q 2147 4134 1753 4134 
Q 1366 4134 1134 3806 
Q 844 3388 844 2259 
z
" transform="scale(0.015625)"/>
       </defs>
       <use xlink:href="#ArialMT-2212"/>
       <use xlink:href="#ArialMT-31" x="58.398438"/>
       <use xlink:href="#ArialMT-2e" x="114.013672"/>
       <use xlink:href="#ArialMT-30" x="141.796875"/>
      </g>
     </g>
    </g>
    <g id="xtick_2">
     <g id="line2d_3">
      <path d="M 125.78026 197.884772 
L 125.78026 23.220937 
" clip-path="url(#p36aff2d324)" style="fill: none; stroke: #cccccc; stroke-width: 0.8; stroke-linecap: round"/>
     </g>
     <g id="line2d_4">
      <g>
       <use xlink:href="#m03c466cee4" x="125.78026" y="206.617963" style="fill: #262626; stroke: #262626; stroke-width: 0.8"/>
      </g>
     </g>
     <g id="text_2">
      <!-- −0.5 -->
      <g style="fill: #262626" transform="translate(115.909947 220.775776) scale(0.1 -0.1)">
       <defs>
        <path id="ArialMT-35" d="M 266 1200 
L 856 1250 
Q 922 819 1161 601 
Q 1400 384 1738 384 
Q 2144 384 2425 690 
Q 2706 997 2706 1503 
Q 2706 1984 2436 2262 
Q 2166 2541 1728 2541 
Q 1456 2541 1237 2417 
Q 1019 2294 894 2097 
L 366 2166 
L 809 4519 
L 3088 4519 
L 3088 3981 
L 1259 3981 
L 1013 2750 
Q 1425 3038 1878 3038 
Q 2478 3038 2890 2622 
Q 3303 2206 3303 1553 
Q 3303 931 2941 478 
Q 2500 -78 1738 -78 
Q 1113 -78 717 272 
Q 322 622 266 1200 
z
" transform="scale(0.015625)"/>
       </defs>
       <use xlink:href="#ArialMT-2212"/>
       <use xlink:href="#ArialMT-30" x="58.398438"/>
       <use xlink:href="#ArialMT-2e" x="114.013672"/>
       <use xlink:href="#ArialMT-35" x="141.796875"/>
      </g>
     </g>
    </g>
    <g id="xtick_3">
     <g id="line2d_5">
      <path d="M 164.778993 197.884772 
L 164.778993 23.220937 
" clip-path="url(#p36aff2d324)" style="fill: none; stroke: #cccccc; stroke-width: 0.8; stroke-linecap: round"/>
     </g>
     <g id="line2d_6">
      <g>
       <use xlink:href="#m03c466cee4" x="164.778993" y="206.617963" style="fill: #262626; stroke: #262626; stroke-width: 0.8"/>
      </g>
     </g>
     <g id="text_3">
      <!-- 0.0 -->
      <g style="fill: #262626" transform="translate(157.828993 220.775776) scale(0.1 -0.1)">
       <use xlink:href="#ArialMT-30"/>
       <use xlink:href="#ArialMT-2e" x="55.615234"/>
       <use xlink:href="#ArialMT-30" x="83.398438"/>
      </g>
     </g>
    </g>
    <g id="xtick_4">
     <g id="line2d_7">
      <path d="M 203.777727 197.884772 
L 203.777727 23.220937 
" clip-path="url(#p36aff2d324)" style="fill: none; stroke: #cccccc; stroke-width: 0.8; stroke-linecap: round"/>
     </g>
     <g id="line2d_8">
      <g>
       <use xlink:href="#m03c466cee4" x="203.777727" y="206.617963" style="fill: #262626; stroke: #262626; stroke-width: 0.8"/>
      </g>
     </g>
     <g id="text_4">
      <!-- 0.5 -->
      <g style="fill: #262626" transform="translate(196.827727 220.775776) scale(0.1 -0.1)">
       <use xlink:href="#ArialMT-30"/>
       <use xlink:href="#ArialMT-2e" x="55.615234"/>
       <use xlink:href="#ArialMT-35" x="83.398438"/>
      </g>
     </g>
    </g>
    <g id="xtick_5">
     <g id="line2d_9">
      <path d="M 242.776461 197.884772 
L 242.776461 23.220937 
" clip-path="url(#p36aff2d324)" style="fill: none; stroke: #cccccc; stroke-width: 0.8; stroke-linecap: round"/>
     </g>
     <g id="line2d_10">
      <g>
       <use xlink:href="#m03c466cee4" x="242.776461" y="206.617963" style="fill: #262626; stroke: #262626; stroke-width: 0.8"/>
      </g>
     </g>
     <g id="text_5">
      <!-- 1.0 -->
      <g style="fill: #262626" transform="translate(235.826461 220.775776) scale(0.1 -0.1)">
       <use xlink:href="#ArialMT-31"/>
       <use xlink:href="#ArialMT-2e" x="55.615234"/>
       <use xlink:href="#ArialMT-30" x="83.398438"/>
      </g>
     </g>
    </g>
    <g id="xtick_6">
     <g id="line2d_11">
      <path d="M 281.775194 197.884772 
L 281.775194 23.220937 
" clip-path="url(#p36aff2d324)" style="fill: none; stroke: #cccccc; stroke-width: 0.8; stroke-linecap: round"/>
     </g>
     <g id="line2d_12">
      <g>
       <use xlink:href="#m03c466cee4" x="281.775194" y="206.617963" style="fill: #262626; stroke: #262626; stroke-width: 0.8"/>
      </g>
     </g>
     <g id="text_6">
      <!-- 1.5 -->
      <g style="fill: #262626" transform="translate(274.825194 220.775776) scale(0.1 -0.1)">
       <use xlink:href="#ArialMT-31"/>
       <use xlink:href="#ArialMT-2e" x="55.615234"/>
       <use xlink:href="#ArialMT-35" x="83.398438"/>
      </g>
     </g>
    </g>
    <g id="xtick_7">
     <g id="line2d_13">
      <path d="M 320.773928 197.884772 
L 320.773928 23.220937 
" clip-path="url(#p36aff2d324)" style="fill: none; stroke: #cccccc; stroke-width: 0.8; stroke-linecap: round"/>
     </g>
     <g id="line2d_14">
      <g>
       <use xlink:href="#m03c466cee4" x="320.773928" y="206.617963" style="fill: #262626; stroke: #262626; stroke-width: 0.8"/>
      </g>
     </g>
     <g id="text_7">
      <!-- 2.0 -->
      <g style="fill: #262626" transform="translate(313.823928 220.775776) scale(0.1 -0.1)">
       <defs>
        <path id="ArialMT-32" d="M 3222 541 
L 3222 0 
L 194 0 
Q 188 203 259 391 
Q 375 700 629 1000 
Q 884 1300 1366 1694 
Q 2113 2306 2375 2664 
Q 2638 3022 2638 3341 
Q 2638 3675 2398 3904 
Q 2159 4134 1775 4134 
Q 1369 4134 1125 3890 
Q 881 3647 878 3216 
L 300 3275 
Q 359 3922 746 4261 
Q 1134 4600 1788 4600 
Q 2447 4600 2831 4234 
Q 3216 3869 3216 3328 
Q 3216 3053 3103 2787 
Q 2991 2522 2730 2228 
Q 2469 1934 1863 1422 
Q 1356 997 1212 845 
Q 1069 694 975 541 
L 3222 541 
z
" transform="scale(0.015625)"/>
       </defs>
       <use xlink:href="#ArialMT-32"/>
       <use xlink:href="#ArialMT-2e" x="55.615234"/>
       <use xlink:href="#ArialMT-30" x="83.398438"/>
      </g>
     </g>
    </g>
    <g id="xtick_8">
     <g id="line2d_15">
      <path d="M 359.772662 197.884772 
L 359.772662 23.220937 
" clip-path="url(#p36aff2d324)" style="fill: none; stroke: #cccccc; stroke-width: 0.8; stroke-linecap: round"/>
     </g>
     <g id="line2d_16">
      <g>
       <use xlink:href="#m03c466cee4" x="359.772662" y="206.617963" style="fill: #262626; stroke: #262626; stroke-width: 0.8"/>
      </g>
     </g>
     <g id="text_8">
      <!-- 2.5 -->
      <g style="fill: #262626" transform="translate(352.822662 220.775776) scale(0.1 -0.1)">
       <use xlink:href="#ArialMT-32"/>
       <use xlink:href="#ArialMT-2e" x="55.615234"/>
       <use xlink:href="#ArialMT-35" x="83.398438"/>
      </g>
     </g>
    </g>
    <g id="text_9">
     <!-- Robos por cada 10 mil habitantes -->
     <g style="fill: #262626" transform="translate(156.77125 233.950776) scale(0.1 -0.1)">
      <defs>
       <path id="ArialMT-52" d="M 503 0 
L 503 4581 
L 2534 4581 
Q 3147 4581 3465 4457 
Q 3784 4334 3975 4021 
Q 4166 3709 4166 3331 
Q 4166 2844 3850 2509 
Q 3534 2175 2875 2084 
Q 3116 1969 3241 1856 
Q 3506 1613 3744 1247 
L 4541 0 
L 3778 0 
L 3172 953 
Q 2906 1366 2734 1584 
Q 2563 1803 2427 1890 
Q 2291 1978 2150 2013 
Q 2047 2034 1813 2034 
L 1109 2034 
L 1109 0 
L 503 0 
z
M 1109 2559 
L 2413 2559 
Q 2828 2559 3062 2645 
Q 3297 2731 3419 2920 
Q 3541 3109 3541 3331 
Q 3541 3656 3305 3865 
Q 3069 4075 2559 4075 
L 1109 4075 
L 1109 2559 
z
" transform="scale(0.015625)"/>
       <path id="ArialMT-6f" d="M 213 1659 
Q 213 2581 725 3025 
Q 1153 3394 1769 3394 
Q 2453 3394 2887 2945 
Q 3322 2497 3322 1706 
Q 3322 1066 3130 698 
Q 2938 331 2570 128 
Q 2203 -75 1769 -75 
Q 1072 -75 642 372 
Q 213 819 213 1659 
z
M 791 1659 
Q 791 1022 1069 705 
Q 1347 388 1769 388 
Q 2188 388 2466 706 
Q 2744 1025 2744 1678 
Q 2744 2294 2464 2611 
Q 2184 2928 1769 2928 
Q 1347 2928 1069 2612 
Q 791 2297 791 1659 
z
" transform="scale(0.015625)"/>
       <path id="ArialMT-62" d="M 941 0 
L 419 0 
L 419 4581 
L 981 4581 
L 981 2947 
Q 1338 3394 1891 3394 
Q 2197 3394 2470 3270 
Q 2744 3147 2920 2923 
Q 3097 2700 3197 2384 
Q 3297 2069 3297 1709 
Q 3297 856 2875 390 
Q 2453 -75 1863 -75 
Q 1275 -75 941 416 
L 941 0 
z
M 934 1684 
Q 934 1088 1097 822 
Q 1363 388 1816 388 
Q 2184 388 2453 708 
Q 2722 1028 2722 1663 
Q 2722 2313 2464 2622 
Q 2206 2931 1841 2931 
Q 1472 2931 1203 2611 
Q 934 2291 934 1684 
z
" transform="scale(0.015625)"/>
       <path id="ArialMT-73" d="M 197 991 
L 753 1078 
Q 800 744 1014 566 
Q 1228 388 1613 388 
Q 2000 388 2187 545 
Q 2375 703 2375 916 
Q 2375 1106 2209 1216 
Q 2094 1291 1634 1406 
Q 1016 1563 777 1677 
Q 538 1791 414 1992 
Q 291 2194 291 2438 
Q 291 2659 392 2848 
Q 494 3038 669 3163 
Q 800 3259 1026 3326 
Q 1253 3394 1513 3394 
Q 1903 3394 2198 3281 
Q 2494 3169 2634 2976 
Q 2775 2784 2828 2463 
L 2278 2388 
Q 2241 2644 2061 2787 
Q 1881 2931 1553 2931 
Q 1166 2931 1000 2803 
Q 834 2675 834 2503 
Q 834 2394 903 2306 
Q 972 2216 1119 2156 
Q 1203 2125 1616 2013 
Q 2213 1853 2448 1751 
Q 2684 1650 2818 1456 
Q 2953 1263 2953 975 
Q 2953 694 2789 445 
Q 2625 197 2315 61 
Q 2006 -75 1616 -75 
Q 969 -75 630 194 
Q 291 463 197 991 
z
" transform="scale(0.015625)"/>
       <path id="ArialMT-20" transform="scale(0.015625)"/>
       <path id="ArialMT-70" d="M 422 -1272 
L 422 3319 
L 934 3319 
L 934 2888 
Q 1116 3141 1344 3267 
Q 1572 3394 1897 3394 
Q 2322 3394 2647 3175 
Q 2972 2956 3137 2557 
Q 3303 2159 3303 1684 
Q 3303 1175 3120 767 
Q 2938 359 2589 142 
Q 2241 -75 1856 -75 
Q 1575 -75 1351 44 
Q 1128 163 984 344 
L 984 -1272 
L 422 -1272 
z
M 931 1641 
Q 931 1000 1190 694 
Q 1450 388 1819 388 
Q 2194 388 2461 705 
Q 2728 1022 2728 1688 
Q 2728 2322 2467 2637 
Q 2206 2953 1844 2953 
Q 1484 2953 1207 2617 
Q 931 2281 931 1641 
z
" transform="scale(0.015625)"/>
       <path id="ArialMT-72" d="M 416 0 
L 416 3319 
L 922 3319 
L 922 2816 
Q 1116 3169 1280 3281 
Q 1444 3394 1641 3394 
Q 1925 3394 2219 3213 
L 2025 2691 
Q 1819 2813 1613 2813 
Q 1428 2813 1281 2702 
Q 1134 2591 1072 2394 
Q 978 2094 978 1738 
L 978 0 
L 416 0 
z
" transform="scale(0.015625)"/>
       <path id="ArialMT-63" d="M 2588 1216 
L 3141 1144 
Q 3050 572 2676 248 
Q 2303 -75 1759 -75 
Q 1078 -75 664 370 
Q 250 816 250 1647 
Q 250 2184 428 2587 
Q 606 2991 970 3192 
Q 1334 3394 1763 3394 
Q 2303 3394 2647 3120 
Q 2991 2847 3088 2344 
L 2541 2259 
Q 2463 2594 2264 2762 
Q 2066 2931 1784 2931 
Q 1359 2931 1093 2626 
Q 828 2322 828 1663 
Q 828 994 1084 691 
Q 1341 388 1753 388 
Q 2084 388 2306 591 
Q 2528 794 2588 1216 
z
" transform="scale(0.015625)"/>
       <path id="ArialMT-61" d="M 2588 409 
Q 2275 144 1986 34 
Q 1697 -75 1366 -75 
Q 819 -75 525 192 
Q 231 459 231 875 
Q 231 1119 342 1320 
Q 453 1522 633 1644 
Q 813 1766 1038 1828 
Q 1203 1872 1538 1913 
Q 2219 1994 2541 2106 
Q 2544 2222 2544 2253 
Q 2544 2597 2384 2738 
Q 2169 2928 1744 2928 
Q 1347 2928 1158 2789 
Q 969 2650 878 2297 
L 328 2372 
Q 403 2725 575 2942 
Q 747 3159 1072 3276 
Q 1397 3394 1825 3394 
Q 2250 3394 2515 3294 
Q 2781 3194 2906 3042 
Q 3031 2891 3081 2659 
Q 3109 2516 3109 2141 
L 3109 1391 
Q 3109 606 3145 398 
Q 3181 191 3288 0 
L 2700 0 
Q 2613 175 2588 409 
z
M 2541 1666 
Q 2234 1541 1622 1453 
Q 1275 1403 1131 1340 
Q 988 1278 909 1158 
Q 831 1038 831 891 
Q 831 666 1001 516 
Q 1172 366 1500 366 
Q 1825 366 2078 508 
Q 2331 650 2450 897 
Q 2541 1088 2541 1459 
L 2541 1666 
z
" transform="scale(0.015625)"/>
       <path id="ArialMT-64" d="M 2575 0 
L 2575 419 
Q 2259 -75 1647 -75 
Q 1250 -75 917 144 
Q 584 363 401 755 
Q 219 1147 219 1656 
Q 219 2153 384 2558 
Q 550 2963 881 3178 
Q 1213 3394 1622 3394 
Q 1922 3394 2156 3267 
Q 2391 3141 2538 2938 
L 2538 4581 
L 3097 4581 
L 3097 0 
L 2575 0 
z
M 797 1656 
Q 797 1019 1065 703 
Q 1334 388 1700 388 
Q 2069 388 2326 689 
Q 2584 991 2584 1609 
Q 2584 2291 2321 2609 
Q 2059 2928 1675 2928 
Q 1300 2928 1048 2622 
Q 797 2316 797 1656 
z
" transform="scale(0.015625)"/>
       <path id="ArialMT-6d" d="M 422 0 
L 422 3319 
L 925 3319 
L 925 2853 
Q 1081 3097 1340 3245 
Q 1600 3394 1931 3394 
Q 2300 3394 2536 3241 
Q 2772 3088 2869 2813 
Q 3263 3394 3894 3394 
Q 4388 3394 4653 3120 
Q 4919 2847 4919 2278 
L 4919 0 
L 4359 0 
L 4359 2091 
Q 4359 2428 4304 2576 
Q 4250 2725 4106 2815 
Q 3963 2906 3769 2906 
Q 3419 2906 3187 2673 
Q 2956 2441 2956 1928 
L 2956 0 
L 2394 0 
L 2394 2156 
Q 2394 2531 2256 2718 
Q 2119 2906 1806 2906 
Q 1569 2906 1367 2781 
Q 1166 2656 1075 2415 
Q 984 2175 984 1722 
L 984 0 
L 422 0 
z
" transform="scale(0.015625)"/>
       <path id="ArialMT-69" d="M 425 3934 
L 425 4581 
L 988 4581 
L 988 3934 
L 425 3934 
z
M 425 0 
L 425 3319 
L 988 3319 
L 988 0 
L 425 0 
z
" transform="scale(0.015625)"/>
       <path id="ArialMT-6c" d="M 409 0 
L 409 4581 
L 972 4581 
L 972 0 
L 409 0 
z
" transform="scale(0.015625)"/>
       <path id="ArialMT-68" d="M 422 0 
L 422 4581 
L 984 4581 
L 984 2938 
Q 1378 3394 1978 3394 
Q 2347 3394 2619 3248 
Q 2891 3103 3008 2847 
Q 3125 2591 3125 2103 
L 3125 0 
L 2563 0 
L 2563 2103 
Q 2563 2525 2380 2717 
Q 2197 2909 1863 2909 
Q 1613 2909 1392 2779 
Q 1172 2650 1078 2428 
Q 984 2206 984 1816 
L 984 0 
L 422 0 
z
" transform="scale(0.015625)"/>
       <path id="ArialMT-74" d="M 1650 503 
L 1731 6 
Q 1494 -44 1306 -44 
Q 1000 -44 831 53 
Q 663 150 594 308 
Q 525 466 525 972 
L 525 2881 
L 113 2881 
L 113 3319 
L 525 3319 
L 525 4141 
L 1084 4478 
L 1084 3319 
L 1650 3319 
L 1650 2881 
L 1084 2881 
L 1084 941 
Q 1084 700 1114 631 
Q 1144 563 1211 522 
Q 1278 481 1403 481 
Q 1497 481 1650 503 
z
" transform="scale(0.015625)"/>
       <path id="ArialMT-6e" d="M 422 0 
L 422 3319 
L 928 3319 
L 928 2847 
Q 1294 3394 1984 3394 
Q 2284 3394 2536 3286 
Q 2788 3178 2913 3003 
Q 3038 2828 3088 2588 
Q 3119 2431 3119 2041 
L 3119 0 
L 2556 0 
L 2556 2019 
Q 2556 2363 2490 2533 
Q 2425 2703 2258 2804 
Q 2091 2906 1866 2906 
Q 1506 2906 1245 2678 
Q 984 2450 984 1813 
L 984 0 
L 422 0 
z
" transform="scale(0.015625)"/>
       <path id="ArialMT-65" d="M 2694 1069 
L 3275 997 
Q 3138 488 2766 206 
Q 2394 -75 1816 -75 
Q 1088 -75 661 373 
Q 234 822 234 1631 
Q 234 2469 665 2931 
Q 1097 3394 1784 3394 
Q 2450 3394 2872 2941 
Q 3294 2488 3294 1666 
Q 3294 1616 3291 1516 
L 816 1516 
Q 847 969 1125 678 
Q 1403 388 1819 388 
Q 2128 388 2347 550 
Q 2566 713 2694 1069 
z
M 847 1978 
L 2700 1978 
Q 2663 2397 2488 2606 
Q 2219 2931 1791 2931 
Q 1403 2931 1139 2672 
Q 875 2413 847 1978 
z
" transform="scale(0.015625)"/>
      </defs>
      <use xlink:href="#ArialMT-52"/>
      <use xlink:href="#ArialMT-6f" x="72.216797"/>
      <use xlink:href="#ArialMT-62" x="127.832031"/>
      <use xlink:href="#ArialMT-6f" x="183.447266"/>
      <use xlink:href="#ArialMT-73" x="239.0625"/>
      <use xlink:href="#ArialMT-20" x="289.0625"/>
      <use xlink:href="#ArialMT-70" x="316.845703"/>
      <use xlink:href="#ArialMT-6f" x="372.460938"/>
      <use xlink:href="#ArialMT-72" x="428.076172"/>
      <use xlink:href="#ArialMT-20" x="461.376953"/>
      <use xlink:href="#ArialMT-63" x="489.160156"/>
      <use xlink:href="#ArialMT-61" x="539.160156"/>
      <use xlink:href="#ArialMT-64" x="594.775391"/>
      <use xlink:href="#ArialMT-61" x="650.390625"/>
      <use xlink:href="#ArialMT-20" x="706.005859"/>
      <use xlink:href="#ArialMT-31" x="733.789062"/>
      <use xlink:href="#ArialMT-30" x="789.404297"/>
      <use xlink:href="#ArialMT-20" x="845.019531"/>
      <use xlink:href="#ArialMT-6d" x="872.802734"/>
      <use xlink:href="#ArialMT-69" x="956.103516"/>
      <use xlink:href="#ArialMT-6c" x="978.320312"/>
      <use xlink:href="#ArialMT-20" x="1000.537109"/>
      <use xlink:href="#ArialMT-68" x="1028.320312"/>
      <use xlink:href="#ArialMT-61" x="1083.935547"/>
      <use xlink:href="#ArialMT-62" x="1139.550781"/>
      <use xlink:href="#ArialMT-69" x="1195.166016"/>
      <use xlink:href="#ArialMT-74" x="1217.382812"/>
      <use xlink:href="#ArialMT-61" x="1245.166016"/>
      <use xlink:href="#ArialMT-6e" x="1300.78125"/>
      <use xlink:href="#ArialMT-74" x="1356.396484"/>
      <use xlink:href="#ArialMT-65" x="1384.179688"/>
      <use xlink:href="#ArialMT-73" x="1439.794922"/>
     </g>
    </g>
   </g>
   <g id="matplotlib.axis_2">
    <g id="ytick_1">
     <g id="line2d_17">
      <path d="M 63.855625 175.042083 
L 398.655625 175.042083 
" clip-path="url(#p36aff2d324)" style="fill: none; stroke: #cccccc; stroke-width: 0.8; stroke-linecap: round"/>
     </g>
     <g id="line2d_18">
      <defs>
       <path id="m28ea8309f2" d="M 0 0 
L -3.5 0 
" style="stroke: #262626; stroke-width: 0.8"/>
      </defs>
      <g>
       <use xlink:href="#m28ea8309f2" x="47.115625" y="175.042083" style="fill: #262626; stroke: #262626; stroke-width: 0.8"/>
      </g>
     </g>
     <g id="text_10">
      <!-- −0.5 -->
      <g style="fill: #262626" transform="translate(20.375 178.62099) scale(0.1 -0.1)">
       <use xlink:href="#ArialMT-2212"/>
       <use xlink:href="#ArialMT-30" x="58.398438"/>
       <use xlink:href="#ArialMT-2e" x="114.013672"/>
       <use xlink:href="#ArialMT-35" x="141.796875"/>
      </g>
     </g>
    </g>
    <g id="ytick_2">
     <g id="line2d_19">
      <path d="M 63.855625 136.04335 
L 398.655625 136.04335 
" clip-path="url(#p36aff2d324)" style="fill: none; stroke: #cccccc; stroke-width: 0.8; stroke-linecap: round"/>
     </g>
     <g id="line2d_20">
      <g>
       <use xlink:href="#m28ea8309f2" x="47.115625" y="136.04335" style="fill: #262626; stroke: #262626; stroke-width: 0.8"/>
      </g>
     </g>
     <g id="text_11">
      <!-- 0.0 -->
      <g style="fill: #262626" transform="translate(26.215625 139.622256) scale(0.1 -0.1)">
       <use xlink:href="#ArialMT-30"/>
       <use xlink:href="#ArialMT-2e" x="55.615234"/>
       <use xlink:href="#ArialMT-30" x="83.398438"/>
      </g>
     </g>
    </g>
    <g id="ytick_3">
     <g id="line2d_21">
      <path d="M 63.855625 97.044616 
L 398.655625 97.044616 
" clip-path="url(#p36aff2d324)" style="fill: none; stroke: #cccccc; stroke-width: 0.8; stroke-linecap: round"/>
     </g>
     <g id="line2d_22">
      <g>
       <use xlink:href="#m28ea8309f2" x="47.115625" y="97.044616" style="fill: #262626; stroke: #262626; stroke-width: 0.8"/>
      </g>
     </g>
     <g id="text_12">
      <!-- 0.5 -->
      <g style="fill: #262626" transform="translate(26.215625 100.623522) scale(0.1 -0.1)">
       <use xlink:href="#ArialMT-30"/>
       <use xlink:href="#ArialMT-2e" x="55.615234"/>
       <use xlink:href="#ArialMT-35" x="83.398438"/>
      </g>
     </g>
    </g>
    <g id="ytick_4">
     <g id="line2d_23">
      <path d="M 63.855625 58.045882 
L 398.655625 58.045882 
" clip-path="url(#p36aff2d324)" style="fill: none; stroke: #cccccc; stroke-width: 0.8; stroke-linecap: round"/>
     </g>
     <g id="line2d_24">
      <g>
       <use xlink:href="#m28ea8309f2" x="47.115625" y="58.045882" style="fill: #262626; stroke: #262626; stroke-width: 0.8"/>
      </g>
     </g>
     <g id="text_13">
      <!-- 1.0 -->
      <g style="fill: #262626" transform="translate(26.215625 61.624789) scale(0.1 -0.1)">
       <use xlink:href="#ArialMT-31"/>
       <use xlink:href="#ArialMT-2e" x="55.615234"/>
       <use xlink:href="#ArialMT-30" x="83.398438"/>
      </g>
     </g>
    </g>
    <g id="text_14">
     <!-- Homicidios por cada 10 mil habitantes -->
     <g style="fill: #262626" transform="translate(14.3875 195.034886) rotate(-90) scale(0.1 -0.1)">
      <defs>
       <path id="ArialMT-48" d="M 513 0 
L 513 4581 
L 1119 4581 
L 1119 2700 
L 3500 2700 
L 3500 4581 
L 4106 4581 
L 4106 0 
L 3500 0 
L 3500 2159 
L 1119 2159 
L 1119 0 
L 513 0 
z
" transform="scale(0.015625)"/>
      </defs>
      <use xlink:href="#ArialMT-48"/>
      <use xlink:href="#ArialMT-6f" x="72.216797"/>
      <use xlink:href="#ArialMT-6d" x="127.832031"/>
      <use xlink:href="#ArialMT-69" x="211.132812"/>
      <use xlink:href="#ArialMT-63" x="233.349609"/>
      <use xlink:href="#ArialMT-69" x="283.349609"/>
      <use xlink:href="#ArialMT-64" x="305.566406"/>
      <use xlink:href="#ArialMT-69" x="361.181641"/>
      <use xlink:href="#ArialMT-6f" x="383.398438"/>
      <use xlink:href="#ArialMT-73" x="439.013672"/>
      <use xlink:href="#ArialMT-20" x="489.013672"/>
      <use xlink:href="#ArialMT-70" x="516.796875"/>
      <use xlink:href="#ArialMT-6f" x="572.412109"/>
      <use xlink:href="#ArialMT-72" x="628.027344"/>
      <use xlink:href="#ArialMT-20" x="661.328125"/>
      <use xlink:href="#ArialMT-63" x="689.111328"/>
      <use xlink:href="#ArialMT-61" x="739.111328"/>
      <use xlink:href="#ArialMT-64" x="794.726562"/>
      <use xlink:href="#ArialMT-61" x="850.341797"/>
      <use xlink:href="#ArialMT-20" x="905.957031"/>
      <use xlink:href="#ArialMT-31" x="933.740234"/>
      <use xlink:href="#ArialMT-30" x="989.355469"/>
      <use xlink:href="#ArialMT-20" x="1044.970703"/>
      <use xlink:href="#ArialMT-6d" x="1072.753906"/>
      <use xlink:href="#ArialMT-69" x="1156.054688"/>
      <use xlink:href="#ArialMT-6c" x="1178.271484"/>
      <use xlink:href="#ArialMT-20" x="1200.488281"/>
      <use xlink:href="#ArialMT-68" x="1228.271484"/>
      <use xlink:href="#ArialMT-61" x="1283.886719"/>
      <use xlink:href="#ArialMT-62" x="1339.501953"/>
      <use xlink:href="#ArialMT-69" x="1395.117188"/>
      <use xlink:href="#ArialMT-74" x="1417.333984"/>
      <use xlink:href="#ArialMT-61" x="1445.117188"/>
      <use xlink:href="#ArialMT-6e" x="1500.732422"/>
      <use xlink:href="#ArialMT-74" x="1556.347656"/>
      <use xlink:href="#ArialMT-65" x="1584.130859"/>
      <use xlink:href="#ArialMT-73" x="1639.746094"/>
     </g>
    </g>
   </g>
   <g id="PathCollection_1">
    <defs>
     <path id="m881bcd07c3" d="M 0 3.162278 
C 0.838646 3.162278 1.643056 2.82908 2.236068 2.236068 
C 2.82908 1.643056 3.162278 0.838646 3.162278 0 
C 3.162278 -0.838646 2.82908 -1.643056 2.236068 -2.236068 
C 1.643056 -2.82908 0.838646 -3.162278 0 -3.162278 
C -0.838646 -3.162278 -1.643056 -2.82908 -2.236068 -2.236068 
C -2.82908 -1.643056 -3.162278 -0.838646 -3.162278 0 
C -3.162278 0.838646 -2.82908 1.643056 -2.236068 2.236068 
C -1.643056 2.82908 -0.838646 3.162278 0 3.162278 
z
" style="stroke: #003049; stroke-opacity: 0.6"/>
    </defs>
    <g clip-path="url(#p36aff2d324)">
     <use xlink:href="#m881bcd07c3" x="165.509897" y="79.288461" style="fill: #003049; fill-opacity: 0.6; stroke: #003049; stroke-opacity: 0.6"/>
     <use xlink:href="#m881bcd07c3" x="195.783619" y="152.734339" style="fill: #003049; fill-opacity: 0.6; stroke: #003049; stroke-opacity: 0.6"/>
     <use xlink:href="#m881bcd07c3" x="121.257478" y="152.332717" style="fill: #003049; fill-opacity: 0.6; stroke: #003049; stroke-opacity: 0.6"/>
     <use xlink:href="#m881bcd07c3" x="125.623878" y="31.160203" style="fill: #003049; fill-opacity: 0.6; stroke: #003049; stroke-opacity: 0.6"/>
     <use xlink:href="#m881bcd07c3" x="160.890324" y="56.948868" style="fill: #003049; fill-opacity: 0.6; stroke: #003049; stroke-opacity: 0.6"/>
     <use xlink:href="#m881bcd07c3" x="112.411399" y="169.651221" style="fill: #003049; fill-opacity: 0.6; stroke: #003049; stroke-opacity: 0.6"/>
     <use xlink:href="#m881bcd07c3" x="114.675847" y="144.945351" style="fill: #003049; fill-opacity: 0.6; stroke: #003049; stroke-opacity: 0.6"/>
     <use xlink:href="#m881bcd07c3" x="79.073807" y="143.522097" style="fill: #003049; fill-opacity: 0.6; stroke: #003049; stroke-opacity: 0.6"/>
     <use xlink:href="#m881bcd07c3" x="128.263563" y="179.915401" style="fill: #003049; fill-opacity: 0.6; stroke: #003049; stroke-opacity: 0.6"/>
     <use xlink:href="#m881bcd07c3" x="105.545819" y="152.013837" style="fill: #003049; fill-opacity: 0.6; stroke: #003049; stroke-opacity: 0.6"/>
     <use xlink:href="#m881bcd07c3" x="148.78433" y="189.945506" style="fill: #003049; fill-opacity: 0.6; stroke: #003049; stroke-opacity: 0.6"/>
     <use xlink:href="#m881bcd07c3" x="108.334599" y="151.27885" style="fill: #003049; fill-opacity: 0.6; stroke: #003049; stroke-opacity: 0.6"/>
     <use xlink:href="#m881bcd07c3" x="285.59392" y="129.090802" style="fill: #003049; fill-opacity: 0.6; stroke: #003049; stroke-opacity: 0.6"/>
     <use xlink:href="#m881bcd07c3" x="383.437443" y="110.013078" style="fill: #003049; fill-opacity: 0.6; stroke: #003049; stroke-opacity: 0.6"/>
     <use xlink:href="#m881bcd07c3" x="222.869929" y="143.152284" style="fill: #003049; fill-opacity: 0.6; stroke: #003049; stroke-opacity: 0.6"/>
     <use xlink:href="#m881bcd07c3" x="178.408042" y="81.443723" style="fill: #003049; fill-opacity: 0.6; stroke: #003049; stroke-opacity: 0.6"/>
    </g>
   </g>
   <g id="line2d_25">
    <path d="M 165.509897 129.136314 
L 195.783619 125.885619 
L 121.257478 133.887997 
L 125.623878 133.419147 
L 160.890324 129.632349 
L 112.411399 134.83786 
L 114.675847 134.594711 
L 79.073807 138.417544 
L 128.263563 133.135706 
L 105.545819 135.575064 
L 148.78433 130.932252 
L 108.334599 135.275614 
L 285.59392 116.242078 
L 383.437443 105.735955 
L 222.869929 122.977178 
L 178.408042 127.751353 
" clip-path="url(#p36aff2d324)" style="fill: none; stroke: #ff0000; stroke-opacity: 0.9; stroke-width: 1.5; stroke-linecap: round"/>
   </g>
   <g id="line2d_26">
    <path d="M 164.778993 197.884772 
L 164.778993 23.220937 
" clip-path="url(#p36aff2d324)" style="fill: none; stroke-dasharray: 5.55,2.4; stroke-dashoffset: 0; stroke: #000000; stroke-opacity: 0.5; stroke-width: 1.5"/>
   </g>
   <g id="line2d_27">
    <path d="M 63.855625 136.04335 
L 398.655625 136.04335 
" clip-path="url(#p36aff2d324)" style="fill: none; stroke-dasharray: 5.55,2.4; stroke-dashoffset: 0; stroke: #000000; stroke-opacity: 0.5; stroke-width: 1.5"/>
   </g>
   <g id="patch_3">
    <path d="M 47.115625 197.884772 
L 47.115625 23.220937 
" style="fill: none; stroke: #cccccc; stroke-width: 0.8; stroke-linejoin: miter; stroke-linecap: square"/>
   </g>
   <g id="patch_4">
    <path d="M 398.655625 197.884772 
L 398.655625 23.220937 
" style="fill: none"/>
   </g>
   <g id="patch_5">
    <path d="M 63.855625 206.617963 
L 398.655625 206.617963 
" style="fill: none; stroke: #cccccc; stroke-width: 0.8; stroke-linejoin: miter; stroke-linecap: square"/>
   </g>
   <g id="patch_6">
    <path d="M 63.855625 23.220937 
L 398.655625 23.220937 
" style="fill: none"/>
   </g>
   <g id="text_15">
    <!-- Azcapotzalco -->
    <g style="fill: #262626" transform="translate(170.509897 74.288461) scale(0.04 -0.04)">
     <defs>
      <path id="ArialMT-41" d="M -9 0 
L 1750 4581 
L 2403 4581 
L 4278 0 
L 3588 0 
L 3053 1388 
L 1138 1388 
L 634 0 
L -9 0 
z
M 1313 1881 
L 2866 1881 
L 2388 3150 
Q 2169 3728 2063 4100 
Q 1975 3659 1816 3225 
L 1313 1881 
z
" transform="scale(0.015625)"/>
      <path id="ArialMT-7a" d="M 125 0 
L 125 456 
L 2238 2881 
Q 1878 2863 1603 2863 
L 250 2863 
L 250 3319 
L 2963 3319 
L 2963 2947 
L 1166 841 
L 819 456 
Q 1197 484 1528 484 
L 3063 484 
L 3063 0 
L 125 0 
z
" transform="scale(0.015625)"/>
     </defs>
     <use xlink:href="#ArialMT-41"/>
     <use xlink:href="#ArialMT-7a" x="66.699219"/>
     <use xlink:href="#ArialMT-63" x="116.699219"/>
     <use xlink:href="#ArialMT-61" x="166.699219"/>
     <use xlink:href="#ArialMT-70" x="222.314453"/>
     <use xlink:href="#ArialMT-6f" x="277.929688"/>
     <use xlink:href="#ArialMT-74" x="333.544922"/>
     <use xlink:href="#ArialMT-7a" x="361.328125"/>
     <use xlink:href="#ArialMT-61" x="411.328125"/>
     <use xlink:href="#ArialMT-6c" x="466.943359"/>
     <use xlink:href="#ArialMT-63" x="489.160156"/>
     <use xlink:href="#ArialMT-6f" x="539.160156"/>
    </g>
   </g>
   <g id="text_16">
    <!-- Coyoacán -->
    <g style="fill: #262626" transform="translate(200.783619 147.734339) scale(0.04 -0.04)">
     <defs>
      <path id="ArialMT-43" d="M 3763 1606 
L 4369 1453 
Q 4178 706 3683 314 
Q 3188 -78 2472 -78 
Q 1731 -78 1267 223 
Q 803 525 561 1097 
Q 319 1669 319 2325 
Q 319 3041 592 3573 
Q 866 4106 1370 4382 
Q 1875 4659 2481 4659 
Q 3169 4659 3637 4309 
Q 4106 3959 4291 3325 
L 3694 3184 
Q 3534 3684 3231 3912 
Q 2928 4141 2469 4141 
Q 1941 4141 1586 3887 
Q 1231 3634 1087 3207 
Q 944 2781 944 2328 
Q 944 1744 1114 1308 
Q 1284 872 1643 656 
Q 2003 441 2422 441 
Q 2931 441 3284 734 
Q 3638 1028 3763 1606 
z
" transform="scale(0.015625)"/>
      <path id="ArialMT-79" d="M 397 -1278 
L 334 -750 
Q 519 -800 656 -800 
Q 844 -800 956 -737 
Q 1069 -675 1141 -563 
Q 1194 -478 1313 -144 
Q 1328 -97 1363 -6 
L 103 3319 
L 709 3319 
L 1400 1397 
Q 1534 1031 1641 628 
Q 1738 1016 1872 1384 
L 2581 3319 
L 3144 3319 
L 1881 -56 
Q 1678 -603 1566 -809 
Q 1416 -1088 1222 -1217 
Q 1028 -1347 759 -1347 
Q 597 -1347 397 -1278 
z
" transform="scale(0.015625)"/>
      <path id="ArialMT-e1" d="M 2588 409 
Q 2275 144 1986 34 
Q 1697 -75 1366 -75 
Q 819 -75 525 192 
Q 231 459 231 875 
Q 231 1119 342 1320 
Q 453 1522 633 1644 
Q 813 1766 1038 1828 
Q 1203 1872 1538 1913 
Q 2219 1994 2541 2106 
Q 2544 2222 2544 2253 
Q 2544 2597 2384 2738 
Q 2169 2928 1744 2928 
Q 1347 2928 1158 2789 
Q 969 2650 878 2297 
L 328 2372 
Q 403 2725 575 2942 
Q 747 3159 1072 3276 
Q 1397 3394 1825 3394 
Q 2250 3394 2515 3294 
Q 2781 3194 2906 3042 
Q 3031 2891 3081 2659 
Q 3109 2516 3109 2141 
L 3109 1391 
Q 3109 606 3145 398 
Q 3181 191 3288 0 
L 2700 0 
Q 2613 175 2588 409 
z
M 2541 1666 
Q 2234 1541 1622 1453 
Q 1275 1403 1131 1340 
Q 988 1278 909 1158 
Q 831 1038 831 891 
Q 831 666 1001 516 
Q 1172 366 1500 366 
Q 1825 366 2078 508 
Q 2331 650 2450 897 
Q 2541 1088 2541 1459 
L 2541 1666 
z
M 1447 3731 
L 1863 4606 
L 2600 4606 
L 1913 3731 
L 1447 3731 
z
" transform="scale(0.015625)"/>
     </defs>
     <use xlink:href="#ArialMT-43"/>
     <use xlink:href="#ArialMT-6f" x="72.216797"/>
     <use xlink:href="#ArialMT-79" x="127.832031"/>
     <use xlink:href="#ArialMT-6f" x="177.832031"/>
     <use xlink:href="#ArialMT-61" x="233.447266"/>
     <use xlink:href="#ArialMT-63" x="289.0625"/>
     <use xlink:href="#ArialMT-e1" x="339.0625"/>
     <use xlink:href="#ArialMT-6e" x="394.677734"/>
    </g>
   </g>
   <g id="text_17">
    <!-- Cuajimalpa de Morelos -->
    <g style="fill: #262626" transform="translate(126.257478 147.332717) scale(0.04 -0.04)">
     <defs>
      <path id="ArialMT-75" d="M 2597 0 
L 2597 488 
Q 2209 -75 1544 -75 
Q 1250 -75 995 37 
Q 741 150 617 320 
Q 494 491 444 738 
Q 409 903 409 1263 
L 409 3319 
L 972 3319 
L 972 1478 
Q 972 1038 1006 884 
Q 1059 663 1231 536 
Q 1403 409 1656 409 
Q 1909 409 2131 539 
Q 2353 669 2445 892 
Q 2538 1116 2538 1541 
L 2538 3319 
L 3100 3319 
L 3100 0 
L 2597 0 
z
" transform="scale(0.015625)"/>
      <path id="ArialMT-6a" d="M 419 3928 
L 419 4581 
L 981 4581 
L 981 3928 
L 419 3928 
z
M -294 -1288 
L -188 -809 
Q -19 -853 78 -853 
Q 250 -853 334 -739 
Q 419 -625 419 -169 
L 419 3319 
L 981 3319 
L 981 -181 
Q 981 -794 822 -1034 
Q 619 -1347 147 -1347 
Q -81 -1347 -294 -1288 
z
" transform="scale(0.015625)"/>
      <path id="ArialMT-4d" d="M 475 0 
L 475 4581 
L 1388 4581 
L 2472 1338 
Q 2622 884 2691 659 
Q 2769 909 2934 1394 
L 4031 4581 
L 4847 4581 
L 4847 0 
L 4263 0 
L 4263 3834 
L 2931 0 
L 2384 0 
L 1059 3900 
L 1059 0 
L 475 0 
z
" transform="scale(0.015625)"/>
     </defs>
     <use xlink:href="#ArialMT-43"/>
     <use xlink:href="#ArialMT-75" x="72.216797"/>
     <use xlink:href="#ArialMT-61" x="127.832031"/>
     <use xlink:href="#ArialMT-6a" x="183.447266"/>
     <use xlink:href="#ArialMT-69" x="205.664062"/>
     <use xlink:href="#ArialMT-6d" x="227.880859"/>
     <use xlink:href="#ArialMT-61" x="311.181641"/>
     <use xlink:href="#ArialMT-6c" x="366.796875"/>
     <use xlink:href="#ArialMT-70" x="389.013672"/>
     <use xlink:href="#ArialMT-61" x="444.628906"/>
     <use xlink:href="#ArialMT-20" x="500.244141"/>
     <use xlink:href="#ArialMT-64" x="528.027344"/>
     <use xlink:href="#ArialMT-65" x="583.642578"/>
     <use xlink:href="#ArialMT-20" x="639.257812"/>
     <use xlink:href="#ArialMT-4d" x="667.041016"/>
     <use xlink:href="#ArialMT-6f" x="750.341797"/>
     <use xlink:href="#ArialMT-72" x="805.957031"/>
     <use xlink:href="#ArialMT-65" x="839.257812"/>
     <use xlink:href="#ArialMT-6c" x="894.873047"/>
     <use xlink:href="#ArialMT-6f" x="917.089844"/>
     <use xlink:href="#ArialMT-73" x="972.705078"/>
    </g>
   </g>
   <g id="text_18">
    <!-- Gustavo A. Madero -->
    <g style="fill: #262626" transform="translate(130.623878 26.160203) scale(0.04 -0.04)">
     <defs>
      <path id="ArialMT-47" d="M 2638 1797 
L 2638 2334 
L 4578 2338 
L 4578 638 
Q 4131 281 3656 101 
Q 3181 -78 2681 -78 
Q 2006 -78 1454 211 
Q 903 500 622 1047 
Q 341 1594 341 2269 
Q 341 2938 620 3517 
Q 900 4097 1425 4378 
Q 1950 4659 2634 4659 
Q 3131 4659 3532 4498 
Q 3934 4338 4162 4050 
Q 4391 3763 4509 3300 
L 3963 3150 
Q 3859 3500 3706 3700 
Q 3553 3900 3268 4020 
Q 2984 4141 2638 4141 
Q 2222 4141 1919 4014 
Q 1616 3888 1430 3681 
Q 1244 3475 1141 3228 
Q 966 2803 966 2306 
Q 966 1694 1177 1281 
Q 1388 869 1791 669 
Q 2194 469 2647 469 
Q 3041 469 3416 620 
Q 3791 772 3984 944 
L 3984 1797 
L 2638 1797 
z
" transform="scale(0.015625)"/>
      <path id="ArialMT-76" d="M 1344 0 
L 81 3319 
L 675 3319 
L 1388 1331 
Q 1503 1009 1600 663 
Q 1675 925 1809 1294 
L 2547 3319 
L 3125 3319 
L 1869 0 
L 1344 0 
z
" transform="scale(0.015625)"/>
     </defs>
     <use xlink:href="#ArialMT-47"/>
     <use xlink:href="#ArialMT-75" x="77.783203"/>
     <use xlink:href="#ArialMT-73" x="133.398438"/>
     <use xlink:href="#ArialMT-74" x="183.398438"/>
     <use xlink:href="#ArialMT-61" x="211.181641"/>
     <use xlink:href="#ArialMT-76" x="266.796875"/>
     <use xlink:href="#ArialMT-6f" x="316.796875"/>
     <use xlink:href="#ArialMT-20" x="372.412109"/>
     <use xlink:href="#ArialMT-41" x="394.695312"/>
     <use xlink:href="#ArialMT-2e" x="461.394531"/>
     <use xlink:href="#ArialMT-20" x="489.177734"/>
     <use xlink:href="#ArialMT-4d" x="516.960938"/>
     <use xlink:href="#ArialMT-61" x="600.261719"/>
     <use xlink:href="#ArialMT-64" x="655.876953"/>
     <use xlink:href="#ArialMT-65" x="711.492188"/>
     <use xlink:href="#ArialMT-72" x="767.107422"/>
     <use xlink:href="#ArialMT-6f" x="800.408203"/>
    </g>
   </g>
   <g id="text_19">
    <!-- Iztacalco -->
    <g style="fill: #262626" transform="translate(165.890324 51.948868) scale(0.04 -0.04)">
     <defs>
      <path id="ArialMT-49" d="M 597 0 
L 597 4581 
L 1203 4581 
L 1203 0 
L 597 0 
z
" transform="scale(0.015625)"/>
     </defs>
     <use xlink:href="#ArialMT-49"/>
     <use xlink:href="#ArialMT-7a" x="27.783203"/>
     <use xlink:href="#ArialMT-74" x="77.783203"/>
     <use xlink:href="#ArialMT-61" x="105.566406"/>
     <use xlink:href="#ArialMT-63" x="161.181641"/>
     <use xlink:href="#ArialMT-61" x="211.181641"/>
     <use xlink:href="#ArialMT-6c" x="266.796875"/>
     <use xlink:href="#ArialMT-63" x="289.013672"/>
     <use xlink:href="#ArialMT-6f" x="339.013672"/>
    </g>
   </g>
   <g id="text_20">
    <!-- Iztapalapa -->
    <g style="fill: #262626" transform="translate(117.411399 164.651221) scale(0.04 -0.04)">
     <use xlink:href="#ArialMT-49"/>
     <use xlink:href="#ArialMT-7a" x="27.783203"/>
     <use xlink:href="#ArialMT-74" x="77.783203"/>
     <use xlink:href="#ArialMT-61" x="105.566406"/>
     <use xlink:href="#ArialMT-70" x="161.181641"/>
     <use xlink:href="#ArialMT-61" x="216.796875"/>
     <use xlink:href="#ArialMT-6c" x="272.412109"/>
     <use xlink:href="#ArialMT-61" x="294.628906"/>
     <use xlink:href="#ArialMT-70" x="350.244141"/>
     <use xlink:href="#ArialMT-61" x="405.859375"/>
    </g>
   </g>
   <g id="text_21">
    <!-- La Magdalena Contreras -->
    <g style="fill: #262626" transform="translate(119.675847 139.945351) scale(0.04 -0.04)">
     <defs>
      <path id="ArialMT-4c" d="M 469 0 
L 469 4581 
L 1075 4581 
L 1075 541 
L 3331 541 
L 3331 0 
L 469 0 
z
" transform="scale(0.015625)"/>
      <path id="ArialMT-67" d="M 319 -275 
L 866 -356 
Q 900 -609 1056 -725 
Q 1266 -881 1628 -881 
Q 2019 -881 2231 -725 
Q 2444 -569 2519 -288 
Q 2563 -116 2559 434 
Q 2191 0 1641 0 
Q 956 0 581 494 
Q 206 988 206 1678 
Q 206 2153 378 2554 
Q 550 2956 876 3175 
Q 1203 3394 1644 3394 
Q 2231 3394 2613 2919 
L 2613 3319 
L 3131 3319 
L 3131 450 
Q 3131 -325 2973 -648 
Q 2816 -972 2473 -1159 
Q 2131 -1347 1631 -1347 
Q 1038 -1347 672 -1080 
Q 306 -813 319 -275 
z
M 784 1719 
Q 784 1066 1043 766 
Q 1303 466 1694 466 
Q 2081 466 2343 764 
Q 2606 1063 2606 1700 
Q 2606 2309 2336 2618 
Q 2066 2928 1684 2928 
Q 1309 2928 1046 2623 
Q 784 2319 784 1719 
z
" transform="scale(0.015625)"/>
     </defs>
     <use xlink:href="#ArialMT-4c"/>
     <use xlink:href="#ArialMT-61" x="55.615234"/>
     <use xlink:href="#ArialMT-20" x="111.230469"/>
     <use xlink:href="#ArialMT-4d" x="139.013672"/>
     <use xlink:href="#ArialMT-61" x="222.314453"/>
     <use xlink:href="#ArialMT-67" x="277.929688"/>
     <use xlink:href="#ArialMT-64" x="333.544922"/>
     <use xlink:href="#ArialMT-61" x="389.160156"/>
     <use xlink:href="#ArialMT-6c" x="444.775391"/>
     <use xlink:href="#ArialMT-65" x="466.992188"/>
     <use xlink:href="#ArialMT-6e" x="522.607422"/>
     <use xlink:href="#ArialMT-61" x="578.222656"/>
     <use xlink:href="#ArialMT-20" x="633.837891"/>
     <use xlink:href="#ArialMT-43" x="661.621094"/>
     <use xlink:href="#ArialMT-6f" x="733.837891"/>
     <use xlink:href="#ArialMT-6e" x="789.453125"/>
     <use xlink:href="#ArialMT-74" x="845.068359"/>
     <use xlink:href="#ArialMT-72" x="872.851562"/>
     <use xlink:href="#ArialMT-65" x="906.152344"/>
     <use xlink:href="#ArialMT-72" x="961.767578"/>
     <use xlink:href="#ArialMT-61" x="995.068359"/>
     <use xlink:href="#ArialMT-73" x="1050.683594"/>
    </g>
   </g>
   <g id="text_22">
    <!-- Milpa Alta -->
    <g style="fill: #262626" transform="translate(84.073807 138.522097) scale(0.04 -0.04)">
     <use xlink:href="#ArialMT-4d"/>
     <use xlink:href="#ArialMT-69" x="83.300781"/>
     <use xlink:href="#ArialMT-6c" x="105.517578"/>
     <use xlink:href="#ArialMT-70" x="127.734375"/>
     <use xlink:href="#ArialMT-61" x="183.349609"/>
     <use xlink:href="#ArialMT-20" x="238.964844"/>
     <use xlink:href="#ArialMT-41" x="261.248047"/>
     <use xlink:href="#ArialMT-6c" x="327.947266"/>
     <use xlink:href="#ArialMT-74" x="350.164062"/>
     <use xlink:href="#ArialMT-61" x="377.947266"/>
    </g>
   </g>
   <g id="text_23">
    <!-- Álvaro Obregón -->
    <g style="fill: #262626" transform="translate(133.263563 174.915401) scale(0.04 -0.04)">
     <defs>
      <path id="ArialMT-c1" d="M -9 0 
L 1750 4581 
L 2403 4581 
L 4278 0 
L 3588 0 
L 3053 1388 
L 1138 1388 
L 634 0 
L -9 0 
z
M 1313 1881 
L 2866 1881 
L 2388 3150 
Q 2169 3728 2063 4100 
Q 1975 3659 1816 3225 
L 1313 1881 
z
M 1691 4862 
L 2106 5737 
L 2844 5737 
L 2156 4862 
L 1691 4862 
z
" transform="scale(0.015625)"/>
      <path id="ArialMT-4f" d="M 309 2231 
Q 309 3372 921 4017 
Q 1534 4663 2503 4663 
Q 3138 4663 3647 4359 
Q 4156 4056 4423 3514 
Q 4691 2972 4691 2284 
Q 4691 1588 4409 1038 
Q 4128 488 3612 205 
Q 3097 -78 2500 -78 
Q 1853 -78 1343 234 
Q 834 547 571 1087 
Q 309 1628 309 2231 
z
M 934 2222 
Q 934 1394 1379 917 
Q 1825 441 2497 441 
Q 3181 441 3623 922 
Q 4066 1403 4066 2288 
Q 4066 2847 3877 3264 
Q 3688 3681 3323 3911 
Q 2959 4141 2506 4141 
Q 1863 4141 1398 3698 
Q 934 3256 934 2222 
z
" transform="scale(0.015625)"/>
      <path id="ArialMT-f3" d="M 213 1659 
Q 213 2581 725 3025 
Q 1153 3394 1769 3394 
Q 2453 3394 2887 2945 
Q 3322 2497 3322 1706 
Q 3322 1066 3130 698 
Q 2938 331 2570 128 
Q 2203 -75 1769 -75 
Q 1072 -75 642 372 
Q 213 819 213 1659 
z
M 791 1659 
Q 791 1022 1069 705 
Q 1347 388 1769 388 
Q 2188 388 2466 706 
Q 2744 1025 2744 1678 
Q 2744 2294 2464 2611 
Q 2184 2928 1769 2928 
Q 1347 2928 1069 2612 
Q 791 2297 791 1659 
z
M 1456 3731 
L 1872 4606 
L 2609 4606 
L 1922 3731 
L 1456 3731 
z
" transform="scale(0.015625)"/>
     </defs>
     <use xlink:href="#ArialMT-c1"/>
     <use xlink:href="#ArialMT-6c" x="66.699219"/>
     <use xlink:href="#ArialMT-76" x="88.916016"/>
     <use xlink:href="#ArialMT-61" x="138.916016"/>
     <use xlink:href="#ArialMT-72" x="194.53125"/>
     <use xlink:href="#ArialMT-6f" x="227.832031"/>
     <use xlink:href="#ArialMT-20" x="283.447266"/>
     <use xlink:href="#ArialMT-4f" x="311.230469"/>
     <use xlink:href="#ArialMT-62" x="389.013672"/>
     <use xlink:href="#ArialMT-72" x="444.628906"/>
     <use xlink:href="#ArialMT-65" x="477.929688"/>
     <use xlink:href="#ArialMT-67" x="533.544922"/>
     <use xlink:href="#ArialMT-f3" x="589.160156"/>
     <use xlink:href="#ArialMT-6e" x="644.775391"/>
    </g>
   </g>
   <g id="text_24">
    <!-- Tláhuac -->
    <g style="fill: #262626" transform="translate(110.545819 147.013837) scale(0.04 -0.04)">
     <defs>
      <path id="ArialMT-54" d="M 1659 0 
L 1659 4041 
L 150 4041 
L 150 4581 
L 3781 4581 
L 3781 4041 
L 2266 4041 
L 2266 0 
L 1659 0 
z
" transform="scale(0.015625)"/>
     </defs>
     <use xlink:href="#ArialMT-54"/>
     <use xlink:href="#ArialMT-6c" x="61.083984"/>
     <use xlink:href="#ArialMT-e1" x="83.300781"/>
     <use xlink:href="#ArialMT-68" x="138.916016"/>
     <use xlink:href="#ArialMT-75" x="194.53125"/>
     <use xlink:href="#ArialMT-61" x="250.146484"/>
     <use xlink:href="#ArialMT-63" x="305.761719"/>
    </g>
   </g>
   <g id="text_25">
    <!-- Tlalpan -->
    <g style="fill: #262626" transform="translate(153.78433 184.945506) scale(0.04 -0.04)">
     <use xlink:href="#ArialMT-54"/>
     <use xlink:href="#ArialMT-6c" x="61.083984"/>
     <use xlink:href="#ArialMT-61" x="83.300781"/>
     <use xlink:href="#ArialMT-6c" x="138.916016"/>
     <use xlink:href="#ArialMT-70" x="161.132812"/>
     <use xlink:href="#ArialMT-61" x="216.748047"/>
     <use xlink:href="#ArialMT-6e" x="272.363281"/>
    </g>
   </g>
   <g id="text_26">
    <!-- Xochimilco -->
    <g style="fill: #262626" transform="translate(113.334599 146.27885) scale(0.04 -0.04)">
     <defs>
      <path id="ArialMT-58" d="M 28 0 
L 1800 2388 
L 238 4581 
L 959 4581 
L 1791 3406 
Q 2050 3041 2159 2844 
Q 2313 3094 2522 3366 
L 3444 4581 
L 4103 4581 
L 2494 2422 
L 4228 0 
L 3478 0 
L 2325 1634 
Q 2228 1775 2125 1941 
Q 1972 1691 1906 1597 
L 756 0 
L 28 0 
z
" transform="scale(0.015625)"/>
     </defs>
     <use xlink:href="#ArialMT-58"/>
     <use xlink:href="#ArialMT-6f" x="66.699219"/>
     <use xlink:href="#ArialMT-63" x="122.314453"/>
     <use xlink:href="#ArialMT-68" x="172.314453"/>
     <use xlink:href="#ArialMT-69" x="227.929688"/>
     <use xlink:href="#ArialMT-6d" x="250.146484"/>
     <use xlink:href="#ArialMT-69" x="333.447266"/>
     <use xlink:href="#ArialMT-6c" x="355.664062"/>
     <use xlink:href="#ArialMT-63" x="377.880859"/>
     <use xlink:href="#ArialMT-6f" x="427.880859"/>
    </g>
   </g>
   <g id="text_27">
    <!-- Benito Juárez -->
    <g style="fill: #262626" transform="translate(290.59392 124.090802) scale(0.04 -0.04)">
     <defs>
      <path id="ArialMT-42" d="M 469 0 
L 469 4581 
L 2188 4581 
Q 2713 4581 3030 4442 
Q 3347 4303 3526 4014 
Q 3706 3725 3706 3409 
Q 3706 3116 3547 2856 
Q 3388 2597 3066 2438 
Q 3481 2316 3704 2022 
Q 3928 1728 3928 1328 
Q 3928 1006 3792 729 
Q 3656 453 3456 303 
Q 3256 153 2954 76 
Q 2653 0 2216 0 
L 469 0 
z
M 1075 2656 
L 2066 2656 
Q 2469 2656 2644 2709 
Q 2875 2778 2992 2937 
Q 3109 3097 3109 3338 
Q 3109 3566 3000 3739 
Q 2891 3913 2687 3977 
Q 2484 4041 1991 4041 
L 1075 4041 
L 1075 2656 
z
M 1075 541 
L 2216 541 
Q 2509 541 2628 563 
Q 2838 600 2978 687 
Q 3119 775 3209 942 
Q 3300 1109 3300 1328 
Q 3300 1584 3169 1773 
Q 3038 1963 2805 2039 
Q 2572 2116 2134 2116 
L 1075 2116 
L 1075 541 
z
" transform="scale(0.015625)"/>
      <path id="ArialMT-4a" d="M 184 1300 
L 731 1375 
Q 753 850 928 656 
Q 1103 463 1413 463 
Q 1641 463 1806 567 
Q 1972 672 2034 851 
Q 2097 1031 2097 1425 
L 2097 4581 
L 2703 4581 
L 2703 1459 
Q 2703 884 2564 568 
Q 2425 253 2123 87 
Q 1822 -78 1416 -78 
Q 813 -78 492 269 
Q 172 616 184 1300 
z
" transform="scale(0.015625)"/>
     </defs>
     <use xlink:href="#ArialMT-42"/>
     <use xlink:href="#ArialMT-65" x="66.699219"/>
     <use xlink:href="#ArialMT-6e" x="122.314453"/>
     <use xlink:href="#ArialMT-69" x="177.929688"/>
     <use xlink:href="#ArialMT-74" x="200.146484"/>
     <use xlink:href="#ArialMT-6f" x="227.929688"/>
     <use xlink:href="#ArialMT-20" x="283.544922"/>
     <use xlink:href="#ArialMT-4a" x="311.328125"/>
     <use xlink:href="#ArialMT-75" x="361.328125"/>
     <use xlink:href="#ArialMT-e1" x="416.943359"/>
     <use xlink:href="#ArialMT-72" x="472.558594"/>
     <use xlink:href="#ArialMT-65" x="505.859375"/>
     <use xlink:href="#ArialMT-7a" x="561.474609"/>
    </g>
   </g>
   <g id="text_28">
    <!-- Cuauhtémoc -->
    <g style="fill: #262626" transform="translate(388.437443 105.013078) scale(0.04 -0.04)">
     <defs>
      <path id="ArialMT-e9" d="M 2694 1069 
L 3275 997 
Q 3138 488 2766 206 
Q 2394 -75 1816 -75 
Q 1088 -75 661 373 
Q 234 822 234 1631 
Q 234 2469 665 2931 
Q 1097 3394 1784 3394 
Q 2450 3394 2872 2941 
Q 3294 2488 3294 1666 
Q 3294 1616 3291 1516 
L 816 1516 
Q 847 969 1125 678 
Q 1403 388 1819 388 
Q 2128 388 2347 550 
Q 2566 713 2694 1069 
z
M 847 1978 
L 2700 1978 
Q 2663 2397 2488 2606 
Q 2219 2931 1791 2931 
Q 1403 2931 1139 2672 
Q 875 2413 847 1978 
z
M 1453 3731 
L 1869 4606 
L 2606 4606 
L 1919 3731 
L 1453 3731 
z
" transform="scale(0.015625)"/>
     </defs>
     <use xlink:href="#ArialMT-43"/>
     <use xlink:href="#ArialMT-75" x="72.216797"/>
     <use xlink:href="#ArialMT-61" x="127.832031"/>
     <use xlink:href="#ArialMT-75" x="183.447266"/>
     <use xlink:href="#ArialMT-68" x="239.0625"/>
     <use xlink:href="#ArialMT-74" x="294.677734"/>
     <use xlink:href="#ArialMT-e9" x="322.460938"/>
     <use xlink:href="#ArialMT-6d" x="378.076172"/>
     <use xlink:href="#ArialMT-6f" x="461.376953"/>
     <use xlink:href="#ArialMT-63" x="516.992188"/>
    </g>
   </g>
   <g id="text_29">
    <!-- Miguel Hidalgo -->
    <g style="fill: #262626" transform="translate(227.869929 138.152284) scale(0.04 -0.04)">
     <use xlink:href="#ArialMT-4d"/>
     <use xlink:href="#ArialMT-69" x="83.300781"/>
     <use xlink:href="#ArialMT-67" x="105.517578"/>
     <use xlink:href="#ArialMT-75" x="161.132812"/>
     <use xlink:href="#ArialMT-65" x="216.748047"/>
     <use xlink:href="#ArialMT-6c" x="272.363281"/>
     <use xlink:href="#ArialMT-20" x="294.580078"/>
     <use xlink:href="#ArialMT-48" x="322.363281"/>
     <use xlink:href="#ArialMT-69" x="394.580078"/>
     <use xlink:href="#ArialMT-64" x="416.796875"/>
     <use xlink:href="#ArialMT-61" x="472.412109"/>
     <use xlink:href="#ArialMT-6c" x="528.027344"/>
     <use xlink:href="#ArialMT-67" x="550.244141"/>
     <use xlink:href="#ArialMT-6f" x="605.859375"/>
    </g>
   </g>
   <g id="text_30">
    <!-- Venustiano Carranza -->
    <g style="fill: #262626" transform="translate(183.408042 76.443723) scale(0.04 -0.04)">
     <defs>
      <path id="ArialMT-56" d="M 1803 0 
L 28 4581 
L 684 4581 
L 1875 1253 
Q 2019 853 2116 503 
Q 2222 878 2363 1253 
L 3600 4581 
L 4219 4581 
L 2425 0 
L 1803 0 
z
" transform="scale(0.015625)"/>
     </defs>
     <use xlink:href="#ArialMT-56"/>
     <use xlink:href="#ArialMT-65" x="61.199219"/>
     <use xlink:href="#ArialMT-6e" x="116.814453"/>
     <use xlink:href="#ArialMT-75" x="172.429688"/>
     <use xlink:href="#ArialMT-73" x="228.044922"/>
     <use xlink:href="#ArialMT-74" x="278.044922"/>
     <use xlink:href="#ArialMT-69" x="305.828125"/>
     <use xlink:href="#ArialMT-61" x="328.044922"/>
     <use xlink:href="#ArialMT-6e" x="383.660156"/>
     <use xlink:href="#ArialMT-6f" x="439.275391"/>
     <use xlink:href="#ArialMT-20" x="494.890625"/>
     <use xlink:href="#ArialMT-43" x="522.673828"/>
     <use xlink:href="#ArialMT-61" x="594.890625"/>
     <use xlink:href="#ArialMT-72" x="650.505859"/>
     <use xlink:href="#ArialMT-72" x="683.806641"/>
     <use xlink:href="#ArialMT-61" x="717.107422"/>
     <use xlink:href="#ArialMT-6e" x="772.722656"/>
     <use xlink:href="#ArialMT-7a" x="828.337891"/>
     <use xlink:href="#ArialMT-61" x="878.337891"/>
    </g>
   </g>
   <g id="text_31">
    <!-- Índice de Moran Bivariado: 0.11 -->
    <g style="fill: #ff0000" transform="translate(170.991625 110.552855) scale(0.1 -0.1)">
     <defs>
      <path id="ArialMT-cd" d="M 597 0 
L 597 4581 
L 1203 4581 
L 1203 0 
L 597 0 
z
M 441 4862 
L 856 5737 
L 1594 5737 
L 906 4862 
L 441 4862 
z
" transform="scale(0.015625)"/>
      <path id="ArialMT-3a" d="M 578 2678 
L 578 3319 
L 1219 3319 
L 1219 2678 
L 578 2678 
z
M 578 0 
L 578 641 
L 1219 641 
L 1219 0 
L 578 0 
z
" transform="scale(0.015625)"/>
     </defs>
     <use xlink:href="#ArialMT-cd"/>
     <use xlink:href="#ArialMT-6e" x="27.783203"/>
     <use xlink:href="#ArialMT-64" x="83.398438"/>
     <use xlink:href="#ArialMT-69" x="139.013672"/>
     <use xlink:href="#ArialMT-63" x="161.230469"/>
     <use xlink:href="#ArialMT-65" x="211.230469"/>
     <use xlink:href="#ArialMT-20" x="266.845703"/>
     <use xlink:href="#ArialMT-64" x="294.628906"/>
     <use xlink:href="#ArialMT-65" x="350.244141"/>
     <use xlink:href="#ArialMT-20" x="405.859375"/>
     <use xlink:href="#ArialMT-4d" x="433.642578"/>
     <use xlink:href="#ArialMT-6f" x="516.943359"/>
     <use xlink:href="#ArialMT-72" x="572.558594"/>
     <use xlink:href="#ArialMT-61" x="605.859375"/>
     <use xlink:href="#ArialMT-6e" x="661.474609"/>
     <use xlink:href="#ArialMT-20" x="717.089844"/>
     <use xlink:href="#ArialMT-42" x="744.873047"/>
     <use xlink:href="#ArialMT-69" x="811.572266"/>
     <use xlink:href="#ArialMT-76" x="833.789062"/>
     <use xlink:href="#ArialMT-61" x="883.789062"/>
     <use xlink:href="#ArialMT-72" x="939.404297"/>
     <use xlink:href="#ArialMT-69" x="972.705078"/>
     <use xlink:href="#ArialMT-61" x="994.921875"/>
     <use xlink:href="#ArialMT-64" x="1050.537109"/>
     <use xlink:href="#ArialMT-6f" x="1106.152344"/>
     <use xlink:href="#ArialMT-3a" x="1161.767578"/>
     <use xlink:href="#ArialMT-20" x="1189.550781"/>
     <use xlink:href="#ArialMT-30" x="1217.333984"/>
     <use xlink:href="#ArialMT-2e" x="1272.949219"/>
     <use xlink:href="#ArialMT-31" x="1300.732422"/>
     <use xlink:href="#ArialMT-31" x="1348.972656"/>
    </g>
   </g>
   <g id="text_32">
    <!-- Moran Bivariado entre Robos y Homicidios -->
    <g style="fill: #262626" transform="translate(88.126406 17.220937) scale(0.14 -0.14)">
     <defs>
      <path id="Arial-BoldMT-4d" d="M 453 0 
L 453 4581 
L 1838 4581 
L 2669 1456 
L 3491 4581 
L 4878 4581 
L 4878 0 
L 4019 0 
L 4019 3606 
L 3109 0 
L 2219 0 
L 1313 3606 
L 1313 0 
L 453 0 
z
" transform="scale(0.015625)"/>
      <path id="Arial-BoldMT-6f" d="M 256 1706 
Q 256 2144 472 2553 
Q 688 2963 1083 3178 
Q 1478 3394 1966 3394 
Q 2719 3394 3200 2905 
Q 3681 2416 3681 1669 
Q 3681 916 3195 420 
Q 2709 -75 1972 -75 
Q 1516 -75 1102 131 
Q 688 338 472 736 
Q 256 1134 256 1706 
z
M 1156 1659 
Q 1156 1166 1390 903 
Q 1625 641 1969 641 
Q 2313 641 2545 903 
Q 2778 1166 2778 1666 
Q 2778 2153 2545 2415 
Q 2313 2678 1969 2678 
Q 1625 2678 1390 2415 
Q 1156 2153 1156 1659 
z
" transform="scale(0.015625)"/>
      <path id="Arial-BoldMT-72" d="M 1300 0 
L 422 0 
L 422 3319 
L 1238 3319 
L 1238 2847 
Q 1447 3181 1614 3287 
Q 1781 3394 1994 3394 
Q 2294 3394 2572 3228 
L 2300 2463 
Q 2078 2606 1888 2606 
Q 1703 2606 1575 2504 
Q 1447 2403 1373 2137 
Q 1300 1872 1300 1025 
L 1300 0 
z
" transform="scale(0.015625)"/>
      <path id="Arial-BoldMT-61" d="M 1116 2306 
L 319 2450 
Q 453 2931 781 3162 
Q 1109 3394 1756 3394 
Q 2344 3394 2631 3255 
Q 2919 3116 3036 2902 
Q 3153 2688 3153 2116 
L 3144 1091 
Q 3144 653 3186 445 
Q 3228 238 3344 0 
L 2475 0 
Q 2441 88 2391 259 
Q 2369 338 2359 363 
Q 2134 144 1878 34 
Q 1622 -75 1331 -75 
Q 819 -75 523 203 
Q 228 481 228 906 
Q 228 1188 362 1408 
Q 497 1628 739 1745 
Q 981 1863 1438 1950 
Q 2053 2066 2291 2166 
L 2291 2253 
Q 2291 2506 2166 2614 
Q 2041 2722 1694 2722 
Q 1459 2722 1328 2630 
Q 1197 2538 1116 2306 
z
M 2291 1594 
Q 2122 1538 1756 1459 
Q 1391 1381 1278 1306 
Q 1106 1184 1106 997 
Q 1106 813 1243 678 
Q 1381 544 1594 544 
Q 1831 544 2047 700 
Q 2206 819 2256 991 
Q 2291 1103 2291 1419 
L 2291 1594 
z
" transform="scale(0.015625)"/>
      <path id="Arial-BoldMT-6e" d="M 3478 0 
L 2600 0 
L 2600 1694 
Q 2600 2231 2544 2389 
Q 2488 2547 2361 2634 
Q 2234 2722 2056 2722 
Q 1828 2722 1647 2597 
Q 1466 2472 1398 2265 
Q 1331 2059 1331 1503 
L 1331 0 
L 453 0 
L 453 3319 
L 1269 3319 
L 1269 2831 
Q 1703 3394 2363 3394 
Q 2653 3394 2893 3289 
Q 3134 3184 3257 3021 
Q 3381 2859 3429 2653 
Q 3478 2447 3478 2063 
L 3478 0 
z
" transform="scale(0.015625)"/>
      <path id="Arial-BoldMT-20" transform="scale(0.015625)"/>
      <path id="Arial-BoldMT-42" d="M 469 4581 
L 2300 4581 
Q 2844 4581 3111 4536 
Q 3378 4491 3589 4347 
Q 3800 4203 3940 3964 
Q 4081 3725 4081 3428 
Q 4081 3106 3907 2837 
Q 3734 2569 3438 2434 
Q 3856 2313 4081 2019 
Q 4306 1725 4306 1328 
Q 4306 1016 4161 720 
Q 4016 425 3764 248 
Q 3513 72 3144 31 
Q 2913 6 2028 0 
L 469 0 
L 469 4581 
z
M 1394 3819 
L 1394 2759 
L 2000 2759 
Q 2541 2759 2672 2775 
Q 2909 2803 3045 2939 
Q 3181 3075 3181 3297 
Q 3181 3509 3064 3642 
Q 2947 3775 2716 3803 
Q 2578 3819 1925 3819 
L 1394 3819 
z
M 1394 1997 
L 1394 772 
L 2250 772 
Q 2750 772 2884 800 
Q 3091 838 3220 983 
Q 3350 1128 3350 1372 
Q 3350 1578 3250 1722 
Q 3150 1866 2961 1931 
Q 2772 1997 2141 1997 
L 1394 1997 
z
" transform="scale(0.015625)"/>
      <path id="Arial-BoldMT-69" d="M 459 3769 
L 459 4581 
L 1338 4581 
L 1338 3769 
L 459 3769 
z
M 459 0 
L 459 3319 
L 1338 3319 
L 1338 0 
L 459 0 
z
" transform="scale(0.015625)"/>
      <path id="Arial-BoldMT-76" d="M 1372 0 
L 34 3319 
L 956 3319 
L 1581 1625 
L 1763 1059 
Q 1834 1275 1853 1344 
Q 1897 1484 1947 1625 
L 2578 3319 
L 3481 3319 
L 2163 0 
L 1372 0 
z
" transform="scale(0.015625)"/>
      <path id="Arial-BoldMT-64" d="M 3503 0 
L 2688 0 
L 2688 488 
Q 2484 203 2207 64 
Q 1931 -75 1650 -75 
Q 1078 -75 670 386 
Q 263 847 263 1672 
Q 263 2516 659 2955 
Q 1056 3394 1663 3394 
Q 2219 3394 2625 2931 
L 2625 4581 
L 3503 4581 
L 3503 0 
z
M 1159 1731 
Q 1159 1200 1306 963 
Q 1519 619 1900 619 
Q 2203 619 2415 876 
Q 2628 1134 2628 1647 
Q 2628 2219 2422 2470 
Q 2216 2722 1894 2722 
Q 1581 2722 1370 2473 
Q 1159 2225 1159 1731 
z
" transform="scale(0.015625)"/>
      <path id="Arial-BoldMT-65" d="M 2381 1056 
L 3256 909 
Q 3088 428 2723 176 
Q 2359 -75 1813 -75 
Q 947 -75 531 491 
Q 203 944 203 1634 
Q 203 2459 634 2926 
Q 1066 3394 1725 3394 
Q 2466 3394 2894 2905 
Q 3322 2416 3303 1406 
L 1103 1406 
Q 1113 1016 1316 798 
Q 1519 581 1822 581 
Q 2028 581 2168 693 
Q 2309 806 2381 1056 
z
M 2431 1944 
Q 2422 2325 2234 2523 
Q 2047 2722 1778 2722 
Q 1491 2722 1303 2513 
Q 1116 2303 1119 1944 
L 2431 1944 
z
" transform="scale(0.015625)"/>
      <path id="Arial-BoldMT-74" d="M 1981 3319 
L 1981 2619 
L 1381 2619 
L 1381 1281 
Q 1381 875 1398 808 
Q 1416 741 1477 697 
Q 1538 653 1625 653 
Q 1747 653 1978 738 
L 2053 56 
Q 1747 -75 1359 -75 
Q 1122 -75 931 4 
Q 741 84 652 211 
Q 563 338 528 553 
Q 500 706 500 1172 
L 500 2619 
L 97 2619 
L 97 3319 
L 500 3319 
L 500 3978 
L 1381 4491 
L 1381 3319 
L 1981 3319 
z
" transform="scale(0.015625)"/>
      <path id="Arial-BoldMT-52" d="M 469 0 
L 469 4581 
L 2416 4581 
Q 3150 4581 3483 4457 
Q 3816 4334 4016 4018 
Q 4216 3703 4216 3297 
Q 4216 2781 3912 2445 
Q 3609 2109 3006 2022 
Q 3306 1847 3501 1637 
Q 3697 1428 4028 894 
L 4588 0 
L 3481 0 
L 2813 997 
Q 2456 1531 2325 1670 
Q 2194 1809 2047 1861 
Q 1900 1913 1581 1913 
L 1394 1913 
L 1394 0 
L 469 0 
z
M 1394 2644 
L 2078 2644 
Q 2744 2644 2909 2700 
Q 3075 2756 3169 2893 
Q 3263 3031 3263 3238 
Q 3263 3469 3139 3611 
Q 3016 3753 2791 3791 
Q 2678 3806 2116 3806 
L 1394 3806 
L 1394 2644 
z
" transform="scale(0.015625)"/>
      <path id="Arial-BoldMT-62" d="M 422 0 
L 422 4581 
L 1300 4581 
L 1300 2931 
Q 1706 3394 2263 3394 
Q 2869 3394 3266 2955 
Q 3663 2516 3663 1694 
Q 3663 844 3258 384 
Q 2853 -75 2275 -75 
Q 1991 -75 1714 67 
Q 1438 209 1238 488 
L 1238 0 
L 422 0 
z
M 1294 1731 
Q 1294 1216 1456 969 
Q 1684 619 2063 619 
Q 2353 619 2558 867 
Q 2763 1116 2763 1650 
Q 2763 2219 2556 2470 
Q 2350 2722 2028 2722 
Q 1713 2722 1503 2476 
Q 1294 2231 1294 1731 
z
" transform="scale(0.015625)"/>
      <path id="Arial-BoldMT-73" d="M 150 947 
L 1031 1081 
Q 1088 825 1259 692 
Q 1431 559 1741 559 
Q 2081 559 2253 684 
Q 2369 772 2369 919 
Q 2369 1019 2306 1084 
Q 2241 1147 2013 1200 
Q 950 1434 666 1628 
Q 272 1897 272 2375 
Q 272 2806 612 3100 
Q 953 3394 1669 3394 
Q 2350 3394 2681 3172 
Q 3013 2950 3138 2516 
L 2309 2363 
Q 2256 2556 2107 2659 
Q 1959 2763 1684 2763 
Q 1338 2763 1188 2666 
Q 1088 2597 1088 2488 
Q 1088 2394 1175 2328 
Q 1294 2241 1995 2081 
Q 2697 1922 2975 1691 
Q 3250 1456 3250 1038 
Q 3250 581 2869 253 
Q 2488 -75 1741 -75 
Q 1063 -75 667 200 
Q 272 475 150 947 
z
" transform="scale(0.015625)"/>
      <path id="Arial-BoldMT-79" d="M 44 3319 
L 978 3319 
L 1772 963 
L 2547 3319 
L 3456 3319 
L 2284 125 
L 2075 -453 
Q 1959 -744 1854 -897 
Q 1750 -1050 1614 -1145 
Q 1478 -1241 1279 -1294 
Q 1081 -1347 831 -1347 
Q 578 -1347 334 -1294 
L 256 -606 
Q 463 -647 628 -647 
Q 934 -647 1081 -467 
Q 1228 -288 1306 -9 
L 44 3319 
z
" transform="scale(0.015625)"/>
      <path id="Arial-BoldMT-48" d="M 469 0 
L 469 4581 
L 1394 4581 
L 1394 2778 
L 3206 2778 
L 3206 4581 
L 4131 4581 
L 4131 0 
L 3206 0 
L 3206 2003 
L 1394 2003 
L 1394 0 
L 469 0 
z
" transform="scale(0.015625)"/>
      <path id="Arial-BoldMT-6d" d="M 394 3319 
L 1203 3319 
L 1203 2866 
Q 1638 3394 2238 3394 
Q 2556 3394 2790 3262 
Q 3025 3131 3175 2866 
Q 3394 3131 3647 3262 
Q 3900 3394 4188 3394 
Q 4553 3394 4806 3245 
Q 5059 3097 5184 2809 
Q 5275 2597 5275 2122 
L 5275 0 
L 4397 0 
L 4397 1897 
Q 4397 2391 4306 2534 
Q 4184 2722 3931 2722 
Q 3747 2722 3584 2609 
Q 3422 2497 3350 2280 
Q 3278 2063 3278 1594 
L 3278 0 
L 2400 0 
L 2400 1819 
Q 2400 2303 2353 2443 
Q 2306 2584 2207 2653 
Q 2109 2722 1941 2722 
Q 1738 2722 1575 2612 
Q 1413 2503 1342 2297 
Q 1272 2091 1272 1613 
L 1272 0 
L 394 0 
L 394 3319 
z
" transform="scale(0.015625)"/>
      <path id="Arial-BoldMT-63" d="M 3353 2338 
L 2488 2181 
Q 2444 2441 2289 2572 
Q 2134 2703 1888 2703 
Q 1559 2703 1364 2476 
Q 1169 2250 1169 1719 
Q 1169 1128 1367 884 
Q 1566 641 1900 641 
Q 2150 641 2309 783 
Q 2469 925 2534 1272 
L 3397 1125 
Q 3263 531 2881 228 
Q 2500 -75 1859 -75 
Q 1131 -75 698 384 
Q 266 844 266 1656 
Q 266 2478 700 2936 
Q 1134 3394 1875 3394 
Q 2481 3394 2839 3133 
Q 3197 2872 3353 2338 
z
" transform="scale(0.015625)"/>
     </defs>
     <use xlink:href="#Arial-BoldMT-4d"/>
     <use xlink:href="#Arial-BoldMT-6f" x="83.300781"/>
     <use xlink:href="#Arial-BoldMT-72" x="144.384766"/>
     <use xlink:href="#Arial-BoldMT-61" x="183.300781"/>
     <use xlink:href="#Arial-BoldMT-6e" x="238.916016"/>
     <use xlink:href="#Arial-BoldMT-20" x="300"/>
     <use xlink:href="#Arial-BoldMT-42" x="327.783203"/>
     <use xlink:href="#Arial-BoldMT-69" x="400"/>
     <use xlink:href="#Arial-BoldMT-76" x="427.783203"/>
     <use xlink:href="#Arial-BoldMT-61" x="483.398438"/>
     <use xlink:href="#Arial-BoldMT-72" x="539.013672"/>
     <use xlink:href="#Arial-BoldMT-69" x="577.929688"/>
     <use xlink:href="#Arial-BoldMT-61" x="605.712891"/>
     <use xlink:href="#Arial-BoldMT-64" x="661.328125"/>
     <use xlink:href="#Arial-BoldMT-6f" x="722.412109"/>
     <use xlink:href="#Arial-BoldMT-20" x="783.496094"/>
     <use xlink:href="#Arial-BoldMT-65" x="811.279297"/>
     <use xlink:href="#Arial-BoldMT-6e" x="866.894531"/>
     <use xlink:href="#Arial-BoldMT-74" x="927.978516"/>
     <use xlink:href="#Arial-BoldMT-72" x="961.279297"/>
     <use xlink:href="#Arial-BoldMT-65" x="1000.195312"/>
     <use xlink:href="#Arial-BoldMT-20" x="1055.810547"/>
     <use xlink:href="#Arial-BoldMT-52" x="1083.59375"/>
     <use xlink:href="#Arial-BoldMT-6f" x="1155.810547"/>
     <use xlink:href="#Arial-BoldMT-62" x="1216.894531"/>
     <use xlink:href="#Arial-BoldMT-6f" x="1277.978516"/>
     <use xlink:href="#Arial-BoldMT-73" x="1339.0625"/>
     <use xlink:href="#Arial-BoldMT-20" x="1394.677734"/>
     <use xlink:href="#Arial-BoldMT-79" x="1422.460938"/>
     <use xlink:href="#Arial-BoldMT-20" x="1478.076172"/>
     <use xlink:href="#Arial-BoldMT-48" x="1505.859375"/>
     <use xlink:href="#Arial-BoldMT-6f" x="1578.076172"/>
     <use xlink:href="#Arial-BoldMT-6d" x="1639.160156"/>
     <use xlink:href="#Arial-BoldMT-69" x="1728.076172"/>
     <use xlink:href="#Arial-BoldMT-63" x="1755.859375"/>
     <use xlink:href="#Arial-BoldMT-69" x="1811.474609"/>
     <use xlink:href="#Arial-BoldMT-64" x="1839.257812"/>
     <use xlink:href="#Arial-BoldMT-69" x="1900.341797"/>
     <use xlink:href="#Arial-BoldMT-6f" x="1928.125"/>
     <use xlink:href="#Arial-BoldMT-73" x="1989.208984"/>
    </g>
   </g>
   <g id="legend_1">
    <g id="patch_7">
     <path d="M 243.486875 45.36625 
L 391.655625 45.36625 
Q 393.655625 45.36625 393.655625 43.36625 
L 393.655625 30.220937 
Q 393.655625 28.220937 391.655625 28.220937 
L 243.486875 28.220937 
Q 241.486875 28.220937 241.486875 30.220937 
L 241.486875 43.36625 
Q 241.486875 45.36625 243.486875 45.36625 
z
" style="fill: #ffffff; opacity: 0.8; stroke: #cccccc; stroke-linejoin: miter"/>
    </g>
    <g id="line2d_28">
     <path d="M 245.486875 35.87875 
L 255.486875 35.87875 
L 265.486875 35.87875 
" style="fill: none; stroke: #ff0000; stroke-width: 2; stroke-linecap: round"/>
    </g>
    <g id="text_33">
     <!-- Índice de Moran Bivariado -->
     <g style="fill: #262626" transform="translate(273.486875 39.37875) scale(0.1 -0.1)">
      <use xlink:href="#ArialMT-cd"/>
      <use xlink:href="#ArialMT-6e" x="27.783203"/>
      <use xlink:href="#ArialMT-64" x="83.398438"/>
      <use xlink:href="#ArialMT-69" x="139.013672"/>
      <use xlink:href="#ArialMT-63" x="161.230469"/>
      <use xlink:href="#ArialMT-65" x="211.230469"/>
      <use xlink:href="#ArialMT-20" x="266.845703"/>
      <use xlink:href="#ArialMT-64" x="294.628906"/>
      <use xlink:href="#ArialMT-65" x="350.244141"/>
      <use xlink:href="#ArialMT-20" x="405.859375"/>
      <use xlink:href="#ArialMT-4d" x="433.642578"/>
      <use xlink:href="#ArialMT-6f" x="516.943359"/>
      <use xlink:href="#ArialMT-72" x="572.558594"/>
      <use xlink:href="#ArialMT-61" x="605.859375"/>
      <use xlink:href="#ArialMT-6e" x="661.474609"/>
      <use xlink:href="#ArialMT-20" x="717.089844"/>
      <use xlink:href="#ArialMT-42" x="744.873047"/>
      <use xlink:href="#ArialMT-69" x="811.572266"/>
      <use xlink:href="#ArialMT-76" x="833.789062"/>
      <use xlink:href="#ArialMT-61" x="883.789062"/>
      <use xlink:href="#ArialMT-72" x="939.404297"/>
      <use xlink:href="#ArialMT-69" x="972.705078"/>
      <use xlink:href="#ArialMT-61" x="994.921875"/>
      <use xlink:href="#ArialMT-64" x="1050.537109"/>
      <use xlink:href="#ArialMT-6f" x="1106.152344"/>
     </g>
    </g>
   </g>
  </g>
 </g>
 <defs>
  <clipPath id="p36aff2d324">
   <rect x="63.855625" y="23.220937" width="334.8" height="174.663834"/>
  </clipPath>
 </defs>
</svg>
